<mxfile host="app.diagrams.net" modified="2020-12-09T05:41:09.032Z" agent="5.0 (Windows NT 10.0; Win64; x64) AppleWebKit/537.36 (KHTML, like Gecko) Chrome/88.0.4324.27 Safari/537.36" etag="d6roKMsr-aH3kDH0S_6h" version="13.11.0" type="github" pages="3">
  <diagram id="IyBNO4WMqh4tq5qnDeRS" name="Logical Routing HLD">
    <mxGraphModel dx="1422" dy="762" grid="1" gridSize="10" guides="1" tooltips="1" connect="1" arrows="1" fold="1" page="1" pageScale="1" pageWidth="1700" pageHeight="1100" math="0" shadow="0">
      <root>
        <mxCell id="zyCjnop6QbWn4T4vvVL7-0" />
        <mxCell id="zyCjnop6QbWn4T4vvVL7-1" parent="zyCjnop6QbWn4T4vvVL7-0" />
        <mxCell id="zyCjnop6QbWn4T4vvVL7-21" value="" style="shape=stencil(nZBLDoAgDERP0z3SIyjew0SURgSD+Lu9kMZoXLhwN9O+tukAlrNpJg1SzDH4QW/URgNYgZTkjA4UkwJUgGXng+6DX1zLfmoymdXo17xh5zmRJ6Q42BWCfc2oJfdAr+Yv+AP9Cb7OJ3H/2JG1HNGz/84klThPVCc=);whiteSpace=wrap;overflow=block;html=1;fontSize=11;strokeOpacity=0;fillOpacity=100;fillColor=#3b9ece;whiteSpace=wrap;fontSize=11;spacing=0;" parent="zyCjnop6QbWn4T4vvVL7-1" vertex="1">
          <mxGeometry x="420" y="399.5" width="908" height="98" as="geometry">
            <mxPoint x="-3" as="offset" />
          </mxGeometry>
        </mxCell>
        <mxCell id="zyCjnop6QbWn4T4vvVL7-25" value="" style="group;html=1;" parent="zyCjnop6QbWn4T4vvVL7-1" vertex="1">
          <mxGeometry x="420" y="188" width="908" height="127" as="geometry" />
        </mxCell>
        <mxCell id="zyCjnop6QbWn4T4vvVL7-26" value="" style="shape=stencil(nZBLDoAgDERP0z3SIyjew0SURgSD+Lu9kMZoXLhwN9O+tukAlrNpJg1SzDH4QW/URgNYgZTkjA4UkwJUgGXng+6DX1zLfmoymdXo17xh5zmRJ6Q42BWCfc2oJfdAr+Yv+AP9Cb7OJ3H/2JG1HNGz/84klThPVCc=);whiteSpace=wrap;overflow=block;html=1;fontSize=11;strokeOpacity=0;fillOpacity=100;fillColor=#66b245;whiteSpace=wrap;fontSize=11;spacing=0;rounded=1;absoluteArcSize=1;arcSize=1;" parent="zyCjnop6QbWn4T4vvVL7-25" vertex="1">
          <mxGeometry width="908" height="127" relative="1" as="geometry" />
        </mxCell>
        <mxCell id="zyCjnop6QbWn4T4vvVL7-27" value="" style="shape=stencil(UzV2Ls5ILEhVNTIoLinKz04tz0wpyVA1dlE1MsrMy0gtyiwBslSNXVWNndPyi1LTi/JL81Ig/IJEkEoQKze/DGRCBUSfoZ4JSI+RQSWEb2kM5rpB1OZk5iGpNTLQMyZfsameOW7V6M4gSTGqM4AMhGfTMnNyIGGFLI8eOEAhSMAauwIA);whiteSpace=wrap;overflow=block;html=1;fontSize=11;strokeOpacity=0;fillOpacity=0;fillColor=#000000;whiteSpace=wrap;fontSize=11;spacing=0;rounded=1;absoluteArcSize=1;arcSize=1;" parent="zyCjnop6QbWn4T4vvVL7-25" vertex="1">
          <mxGeometry width="908" height="127" relative="1" as="geometry" />
        </mxCell>
        <mxCell id="zyCjnop6QbWn4T4vvVL7-28" value="&lt;div style=&quot;display: flex; justify-content: flex-start; text-align: left; align-items: baseline; font-size: 0; line-height: 1;&quot;&gt;&lt;span style=&quot;font-size:11px;&quot;&gt;&lt;span style=&quot;font-size:13px;color:#FFFFFF;font-family: Carlito;&quot;&gt;Physical Network&#xa;&lt;/span&gt;&lt;/span&gt;&lt;/div&gt;&lt;div style=&quot;display: flex; justify-content: flex-start; text-align: left; align-items: baseline; font-size: 0; line-height: 1;&quot;&gt;&lt;span style=&quot;font-size:11px;&quot;&gt;&lt;span style=&quot;font-size:13px;color:#FFFFFF;font-family: Carlito;&quot;&gt;Datacenter ToRs&#xa;&lt;/span&gt;&lt;/span&gt;&lt;/div&gt;&lt;div style=&quot;display: flex; justify-content: flex-start; text-align: left; align-items: baseline; font-size: 0; line-height: 1;&quot;&gt;&lt;span style=&quot;font-size:11px;&quot;&gt;&lt;span style=&quot;font-size:13px;color:#FFFFFF;font-family: Carlito;&quot;&gt;&#xa;&lt;/span&gt;&lt;/span&gt;&lt;/div&gt;&lt;div style=&quot;display: flex; justify-content: flex-start; text-align: left; align-items: baseline; font-size: 0; line-height: 1;&quot;&gt;&lt;span style=&quot;font-size:11px;&quot;&gt;&lt;span style=&quot;font-size:13px;color:#FFFFFF;font-family: Carlito;&quot;&gt;Scale-N up to 8-way&#xa;&lt;/span&gt;&lt;/span&gt;&lt;/div&gt;&lt;div style=&quot;display: flex; justify-content: flex-start; text-align: left; align-items: baseline; font-size: 0; line-height: 1;&quot;&gt;&lt;span style=&quot;font-size:11px;&quot;&gt;&lt;span style=&quot;font-size:13px;color:#FFFFFF;font-family: Carlito;&quot;&gt;&#xa;&lt;/span&gt;&lt;/span&gt;&lt;/div&gt;&lt;div style=&quot;display: flex; justify-content: flex-start; text-align: left; align-items: baseline; font-size: 0; line-height: 1;&quot;&gt;&lt;span style=&quot;font-size:11px;&quot;&gt;&lt;span style=&quot;font-size:13px;color:#FFFFFF;font-family: Carlito;&quot;&gt;Each Tier-0 peering requires a separate Layer 2 Domain&lt;/span&gt;&lt;/span&gt;&lt;/div&gt;" style="strokeColor=none;fillColor=none;overflow=visible;whiteSpace=wrap;html=1;fontSize=11;whiteSpace=wrap;fontSize=11;spacing=0;strokeOpacity=0;fillOpacity=0;rounded=1;absoluteArcSize=1;arcSize=1;whiteSpace=wrap;fontSize=11;" parent="zyCjnop6QbWn4T4vvVL7-25" vertex="1">
          <mxGeometry x="0.014" y="0.075" width="171.612" height="108.585" relative="1" as="geometry" />
        </mxCell>
        <mxCell id="zyCjnop6QbWn4T4vvVL7-29" value="" style="points=[[0.513,1.135,0],[0.513,1.135,0]];group;html=1;" parent="zyCjnop6QbWn4T4vvVL7-1" vertex="1">
          <mxGeometry x="671" y="210.5" width="88" height="82" as="geometry" />
        </mxCell>
        <mxCell id="zyCjnop6QbWn4T4vvVL7-30" value="" style="shape=stencil(nZHBDoMgEES/Zq+EsGD0bO1/mIiFlIJBa9u/LwSSWhsP9DY7+3ZCGMB2Vv0kgdF58e4qH3pYFOAJGNNWSa+XoAA7wHZ0Xl68u9shzVMfyahubo0Jz3RXNUTEI0Zf2WDZOCfcaLvBhSD8CxeU4DH+k451Ec45qY/xhuewP3FRFT2mEN9/ZBCfEkZtTOpwu9+XFqxUOHZv);whiteSpace=wrap;overflow=block;html=1;fontSize=11;strokeOpacity=0;fillOpacity=100;fillColor=#ffffff;whiteSpace=wrap;fontSize=11;spacing=0;" parent="zyCjnop6QbWn4T4vvVL7-29" vertex="1">
          <mxGeometry width="88" height="82" relative="1" as="geometry" />
        </mxCell>
        <mxCell id="zyCjnop6QbWn4T4vvVL7-31" value="" style="shape=stencil(lVXLcsMgDPwarh4sEuOc0/Q/Mo1Te5rGGeK08Pe1y1sa3PQGYmHZlQRM7O/98dYx4PdJjR/d93CaeiZeGMBw7Ts1TPOIiQMT+/Oounc1Pq4nO78dF+Qy+hy/lhO03bflyxbgxk5F1fzOXy327aEsuLbLDVStw9f5Bq7BBuSm2jiIi7R+jxYuEE9xkVpWsMa7q9164IUtJt41mFj4UwNzghGZ/hJvxBMHAm+8G7GgrDhECsyJjcQDz5xkg3igBcovdqDAGz0zxAPPG703xAONM/q04haXVmIjoGIzxAHPGyFPJTjCiX6Ny9cQ+WWxfxV0YiGWr0n1Giy/lFzUvaudvmoLAK4+nl+OI0sA1x262XoWeM4lJe7t5D4uUnO+7oUHlPpL4gTEEzFF6GtJEs//pTPCic+acJjc6pLOjHAexIf+PFwu9p9I1/HHMIfspyIOPw==);whiteSpace=wrap;overflow=block;html=1;fontSize=11;strokeOpacity=0;fillOpacity=100;fillColor=#ffffff;whiteSpace=wrap;fontSize=11;spacing=0;" parent="zyCjnop6QbWn4T4vvVL7-29" vertex="1">
          <mxGeometry width="88" height="82" relative="1" as="geometry" />
        </mxCell>
        <mxCell id="zyCjnop6QbWn4T4vvVL7-32" value="" style="shape=stencil(pZFNDsIgEIVPM1uCDDS6rvUeTUqFiNBQ/Lu9IE1sUBfE3ZvHN5NhHmA7q36SwOgcvDvJmx6CAtwDY9oq6XWICrADbEfn5dG7ix1yPfWJTOrsrmnCPfchJbvUxOhjMbYEX8Yh40bbFc55gQtKxG/8Y3rDqnAhFuMr3pDNH3T8Cq9YpRIvzxjFO4JRG5MTXL+XkUUrx43dEw==);whiteSpace=wrap;overflow=block;html=1;fontSize=11;strokeOpacity=0;fillOpacity=100;fillColor=#ffffff;whiteSpace=wrap;fontSize=11;spacing=0;" parent="zyCjnop6QbWn4T4vvVL7-29" vertex="1">
          <mxGeometry width="88" height="82" relative="1" as="geometry" />
        </mxCell>
        <mxCell id="zyCjnop6QbWn4T4vvVL7-33" value="" style="shape=stencil(nZHNDsIgEISfZq+kZQvac63v0aRUiAgNxb+3F8TEygGjt2H2282EAewWOcwCaLV4Z4/iqkYvAXdAqTJSOOWDAuwBu8k6cXD2bMb0nodIRnWyl3jhlvY4Eh6XaHVPxrYm+DT2CdfKrHBWk+YDb1kJxzbDy9ebX6JkMOOEFXJvXtM/8XKUr58YxLuASWmd+lvP88KClcrG/gE=);whiteSpace=wrap;overflow=block;html=1;fontSize=11;strokeOpacity=0;fillOpacity=100;fillColor=#ffffff;whiteSpace=wrap;fontSize=11;spacing=0;" parent="zyCjnop6QbWn4T4vvVL7-29" vertex="1">
          <mxGeometry width="88" height="82" relative="1" as="geometry" />
        </mxCell>
        <mxCell id="zyCjnop6QbWn4T4vvVL7-34" value="" style="shape=stencil(pZHdDsIgDIWfhlsyKMzses73WDImRISFbf68vWBNnERdjHenp1+bpodAPep2UIQX4xT8QZ1NN2kCW8K5cVoFM0VFoCFQ9z6offCz67Ae2kQmdfSntOGCc1BRkYZ4cUWDVRTuxg5xa9wCl4yWL7ik/DNdQkavLN9Q9g8uxMN4iwuZHfMj/v2Y1T9G8cygN9ZihMt+nlm0MG9obg==);whiteSpace=wrap;overflow=block;html=1;fontSize=11;strokeOpacity=0;fillOpacity=100;fillColor=#ffffff;whiteSpace=wrap;fontSize=11;spacing=0;" parent="zyCjnop6QbWn4T4vvVL7-29" vertex="1">
          <mxGeometry width="88" height="82" relative="1" as="geometry" />
        </mxCell>
        <mxCell id="zyCjnop6QbWn4T4vvVL7-35" value="" style="points=[[0.516,1.135,0],[0.516,1.135,0]];group;html=1;" parent="zyCjnop6QbWn4T4vvVL7-1" vertex="1">
          <mxGeometry x="984" y="210.5" width="94" height="82" as="geometry" />
        </mxCell>
        <mxCell id="zyCjnop6QbWn4T4vvVL7-36" value="" style="shape=stencil(nZHBDoMgEES/Zq+EsGD0bO1/mIiFlIJBa9u/LwSSWhsP9DY7+3ZCGMB2Vv0kgdF58e4qH3pYFOAJGNNWSa+XoAA7wHZ0Xl68u9shzVMfyahubo0Jz3RXNUTEI0Zf2WDZOCfcaLvBhSD8CxeU4DH+k451Ec45qY/xhuewP3FRFT2mEN9/ZBCfEkZtTOpwu9+XFqxUOHZv);whiteSpace=wrap;overflow=block;html=1;fontSize=11;strokeOpacity=0;fillOpacity=100;fillColor=#ffffff;whiteSpace=wrap;fontSize=11;spacing=0;" parent="zyCjnop6QbWn4T4vvVL7-35" vertex="1">
          <mxGeometry width="94" height="82" relative="1" as="geometry" />
        </mxCell>
        <mxCell id="zyCjnop6QbWn4T4vvVL7-37" value="" style="shape=stencil(lVXLcsMgDPwarh4sEuOc0/Q/Mo1Te5rGGeK08Pe1y1sa3PQGYmHZlQRM7O/98dYx4PdJjR/d93CaeiZeGMBw7Ts1TPOIiQMT+/Oounc1Pq4nO78dF+Qy+hy/lhO03bflyxbgxk5F1fzOXy327aEsuLbLDVStw9f5Bq7BBuSm2jiIi7R+jxYuEE9xkVpWsMa7q9164IUtJt41mFj4UwNzghGZ/hJvxBMHAm+8G7GgrDhECsyJjcQDz5xkg3igBcovdqDAGz0zxAPPG703xAONM/q04haXVmIjoGIzxAHPGyFPJTjCiX6Ny9cQ+WWxfxV0YiGWr0n1Giy/lFzUvaudvmoLAK4+nl+OI0sA1x262XoWeM4lJe7t5D4uUnO+7oUHlPpL4gTEEzFF6GtJEs//pTPCic+acJjc6pLOjHAexIf+PFwu9p9I1/HHMIfspyIOPw==);whiteSpace=wrap;overflow=block;html=1;fontSize=11;strokeOpacity=0;fillOpacity=100;fillColor=#ffffff;whiteSpace=wrap;fontSize=11;spacing=0;" parent="zyCjnop6QbWn4T4vvVL7-35" vertex="1">
          <mxGeometry width="94" height="82" relative="1" as="geometry" />
        </mxCell>
        <mxCell id="zyCjnop6QbWn4T4vvVL7-38" value="" style="shape=stencil(pZFNDsIgEIVPM1uCDDS6rvUeTUqFiNBQ/Lu9IE1sUBfE3ZvHN5NhHmA7q36SwOgcvDvJmx6CAtwDY9oq6XWICrADbEfn5dG7ix1yPfWJTOrsrmnCPfchJbvUxOhjMbYEX8Yh40bbFc55gQtKxG/8Y3rDqnAhFuMr3pDNH3T8Cq9YpRIvzxjFO4JRG5MTXL+XkUUrx43dEw==);whiteSpace=wrap;overflow=block;html=1;fontSize=11;strokeOpacity=0;fillOpacity=100;fillColor=#ffffff;whiteSpace=wrap;fontSize=11;spacing=0;" parent="zyCjnop6QbWn4T4vvVL7-35" vertex="1">
          <mxGeometry width="94" height="82" relative="1" as="geometry" />
        </mxCell>
        <mxCell id="zyCjnop6QbWn4T4vvVL7-39" value="" style="shape=stencil(nZHNDsIgEISfZq+kZQvac63v0aRUiAgNxb+3F8TEygGjt2H2282EAewWOcwCaLV4Z4/iqkYvAXdAqTJSOOWDAuwBu8k6cXD2bMb0nodIRnWyl3jhlvY4Eh6XaHVPxrYm+DT2CdfKrHBWk+YDb1kJxzbDy9ebX6JkMOOEFXJvXtM/8XKUr58YxLuASWmd+lvP88KClcrG/gE=);whiteSpace=wrap;overflow=block;html=1;fontSize=11;strokeOpacity=0;fillOpacity=100;fillColor=#ffffff;whiteSpace=wrap;fontSize=11;spacing=0;" parent="zyCjnop6QbWn4T4vvVL7-35" vertex="1">
          <mxGeometry width="94" height="82" relative="1" as="geometry" />
        </mxCell>
        <mxCell id="zyCjnop6QbWn4T4vvVL7-40" value="" style="shape=stencil(pZHdDsIgDIWfhlsyKMzses73WDImRISFbf68vWBNnERdjHenp1+bpodAPep2UIQX4xT8QZ1NN2kCW8K5cVoFM0VFoCFQ9z6offCz67Ae2kQmdfSntOGCc1BRkYZ4cUWDVRTuxg5xa9wCl4yWL7ik/DNdQkavLN9Q9g8uxMN4iwuZHfMj/v2Y1T9G8cygN9ZihMt+nlm0MG9obg==);whiteSpace=wrap;overflow=block;html=1;fontSize=11;strokeOpacity=0;fillOpacity=100;fillColor=#ffffff;whiteSpace=wrap;fontSize=11;spacing=0;" parent="zyCjnop6QbWn4T4vvVL7-35" vertex="1">
          <mxGeometry width="94" height="82" relative="1" as="geometry" />
        </mxCell>
        <mxCell id="zyCjnop6QbWn4T4vvVL7-2" value="" style="group;dropTarget=0;" parent="zyCjnop6QbWn4T4vvVL7-1" vertex="1">
          <mxGeometry x="606" y="424.5" width="620" height="48" as="geometry" />
        </mxCell>
        <mxCell id="zyCjnop6QbWn4T4vvVL7-3" value="" style="points=[[0.468,-0.539,0],[0.468,1.5,0]];group;html=1;" parent="zyCjnop6QbWn4T4vvVL7-2" vertex="1">
          <mxGeometry width="48" height="48" as="geometry" />
        </mxCell>
        <mxCell id="zyCjnop6QbWn4T4vvVL7-4" value="" style="shape=stencil(lVfLctswDPwaXTUk+D6nyX9kEqfW1LUzjtPafx+5IiFxKcPNTYaX3CWwAKXOPHxsn983HamP0/Hwa/N3eD1tO/OjIxr2281xOI1PnXnszMPb4bj5eTx87l+n3+/PV+T16ffhz3WH87RO+56ui0hdcoD69C/wNMF3w34BN7Y3NTz08TacUgUm0+vbYEe9q+DW916EW4SH23CbslCGp3zydeUeDkpO2p10BTbCMe9mHAoU+npvG7KyDH/5PE54nRekLFRdNKxQZypyOXfEmBw5m4wh1mkY4yXmsbyuYU7AbBlTmGPedWZ2nHvDtQoi85zTHHGqlJuZi5uY2fEJmXnG5IgzdXFWmD0wO96VGi8VZo4szhyBOdT+bJgd17Awx2KVRbYjMEfOS2G2wJtkf41VNsCbmioTVtmrJtcaTzxirMis0NnjCl8z68ROmJlDzawD+osx6x1rYdJ8Fx6lGakVNPg34TgPAH5vfNTTJrm+HtlOtn/yvH0pCc6a5JuKoAUXkBwRz5RwgiaSx0NqxkOybArCyKURzjqJMah8VWiAOwTRqJMTc2mEnwnSu1Cpa5VzCQ0Udf0e1eAQp6RrNzi4R4OTahUUXOpR3D1GhLscWIcbLkhOT6hHCIiJ0JmBpEZ2uLsV+nIEw/tFELMe8GXHSk6615d1F6PvlGS6Zpyr2nGq9pvBm6v8/z+dqypZ99pW1bqSx5412AxaqVpcM+kLYj3LBAUH9MpcgQtpFoCKFv2K15GCFGJe8AKos3jvdVBBGs3KgIbJB0lsx56QQ9F748P8IfI27HbTd8zyf/xwGUPTR495/AI=);whiteSpace=wrap;fontSize=11;strokeColor=#ffffff;fillOpacity=100;fillColor=#ffffff;whiteSpace=wrap;spacing=0;" parent="zyCjnop6QbWn4T4vvVL7-3" vertex="1">
          <mxGeometry width="48" height="48" relative="1" as="geometry" />
        </mxCell>
        <mxCell id="zyCjnop6QbWn4T4vvVL7-5" value="" style="shape=stencil(lZTdcoMgEEafhtsddkGj12n6HpnGVKZWM8S0ydtHy58uUzu9w/UsBz5BofbX9nhpBMnraIeP5tucxlaoF0Fk+raxZpxGQh2E2p8H27zb4daf3PPlOJPz6HP4mme4uz6sYTc3kXy4QoGAP4VXh7/drOMxNqBvwNDhnu/kiSoSvlJIqD2jPFNC4RnFGO/tTL9cpga9XuY/8d0GXEK1AWcBVHHpuOJTACnTEEDJAyAJxAIoYdM7dVTMG0MMZkJQmRmZGaFk5sJXfjNjWH00F8A+OlH20XXwRHNigllveik7aiqktthxzbwUU0k71sxLfyTN94tZ0jLOSZGhtXdxDlRkVpdrGqSLeTZd5+718j2/yFPJ/QTU4Qk=);whiteSpace=wrap;fontSize=11;strokeColor=#ffffff;fillOpacity=100;fillColor=#ffffff;whiteSpace=wrap;spacing=0;" parent="zyCjnop6QbWn4T4vvVL7-3" vertex="1">
          <mxGeometry width="48" height="48" relative="1" as="geometry" />
        </mxCell>
        <mxCell id="zyCjnop6QbWn4T4vvVL7-6" value="" style="shape=stencil(lZHNDoIwEISfptcN7JYUzojvQUKRxkpJKf68va01EUnUeptOv51sdhjV89BOkmE2O2uO8qI6NzDaMUQ1DtIq5xWjhlHdGysP1ixjF99TG8igTuYcEq5xjgugMITZLRqlgOph7COu1bjGcyjfcIGfYRKQJ8Ocb5IrguILXgH/Ay8EYPIqBT6jkvb+dUAvXsfvldaxu/X/tixvxaKpuQM=);whiteSpace=wrap;fontSize=11;strokeColor=#ffffff;fillOpacity=100;fillColor=#ffffff;whiteSpace=wrap;spacing=0;" parent="zyCjnop6QbWn4T4vvVL7-3" vertex="1">
          <mxGeometry width="48" height="48" relative="1" as="geometry" />
        </mxCell>
        <mxCell id="zyCjnop6QbWn4T4vvVL7-7" value="" style="points=[[0.489,-0.539,0],[0.489,1.5,0]];group;html=1;" parent="zyCjnop6QbWn4T4vvVL7-2" vertex="1">
          <mxGeometry x="190" width="48" height="48" as="geometry" />
        </mxCell>
        <mxCell id="zyCjnop6QbWn4T4vvVL7-8" value="" style="shape=stencil(lVfLctswDPwaXTUk+D6nyX9kEqfW1LUzjtPafx+5IiFxKcPNTYaX3CWwAKXOPHxsn983HamP0/Hwa/N3eD1tO/OjIxr2281xOI1PnXnszMPb4bj5eTx87l+n3+/PV+T16ffhz3WH87RO+56ui0hdcoD69C/wNMF3w34BN7Y3NTz08TacUgUm0+vbYEe9q+DW916EW4SH23CbslCGp3zydeUeDkpO2p10BTbCMe9mHAoU+npvG7KyDH/5PE54nRekLFRdNKxQZypyOXfEmBw5m4wh1mkY4yXmsbyuYU7AbBlTmGPedWZ2nHvDtQoi85zTHHGqlJuZi5uY2fEJmXnG5IgzdXFWmD0wO96VGi8VZo4szhyBOdT+bJgd17Awx2KVRbYjMEfOS2G2wJtkf41VNsCbmioTVtmrJtcaTzxirMis0NnjCl8z68ROmJlDzawD+osx6x1rYdJ8Fx6lGakVNPg34TgPAH5vfNTTJrm+HtlOtn/yvH0pCc6a5JuKoAUXkBwRz5RwgiaSx0NqxkOybArCyKURzjqJMah8VWiAOwTRqJMTc2mEnwnSu1Cpa5VzCQ0Udf0e1eAQp6RrNzi4R4OTahUUXOpR3D1GhLscWIcbLkhOT6hHCIiJ0JmBpEZ2uLsV+nIEw/tFELMe8GXHSk6615d1F6PvlGS6Zpyr2nGq9pvBm6v8/z+dqypZ99pW1bqSx5412AxaqVpcM+kLYj3LBAUH9MpcgQtpFoCKFv2K15GCFGJe8AKos3jvdVBBGs3KgIbJB0lsx56QQ9F748P8IfI27HbTd8zyf/xwGUPTR495/AI=);whiteSpace=wrap;fontSize=11;strokeOpacity=0;fillOpacity=100;fillColor=#ffffff;whiteSpace=wrap;spacing=0;" parent="zyCjnop6QbWn4T4vvVL7-7" vertex="1">
          <mxGeometry width="48" height="48" relative="1" as="geometry" />
        </mxCell>
        <mxCell id="zyCjnop6QbWn4T4vvVL7-9" value="" style="shape=stencil(lZTdcoMgEEafhtsddkGj12n6HpnGVKZWM8S0ydtHy58uUzu9w/UsBz5BofbX9nhpBMnraIeP5tucxlaoF0Fk+raxZpxGQh2E2p8H27zb4daf3PPlOJPz6HP4mme4uz6sYTc3kXy4QoGAP4VXh7/drOMxNqBvwNDhnu/kiSoSvlJIqD2jPFNC4RnFGO/tTL9cpga9XuY/8d0GXEK1AWcBVHHpuOJTACnTEEDJAyAJxAIoYdM7dVTMG0MMZkJQmRmZGaFk5sJXfjNjWH00F8A+OlH20XXwRHNigllveik7aiqktthxzbwUU0k71sxLfyTN94tZ0jLOSZGhtXdxDlRkVpdrGqSLeTZd5+718j2/yFPJ/QTU4Qk=);whiteSpace=wrap;fontSize=11;strokeOpacity=0;fillOpacity=100;fillColor=#ffffff;whiteSpace=wrap;spacing=0;" parent="zyCjnop6QbWn4T4vvVL7-7" vertex="1">
          <mxGeometry width="48" height="48" relative="1" as="geometry" />
        </mxCell>
        <mxCell id="zyCjnop6QbWn4T4vvVL7-10" value="" style="shape=stencil(lZHNDoIwEISfptcN7JYUzojvQUKRxkpJKf68va01EUnUeptOv51sdhjV89BOkmE2O2uO8qI6NzDaMUQ1DtIq5xWjhlHdGysP1ixjF99TG8igTuYcEq5xjgugMITZLRqlgOph7COu1bjGcyjfcIGfYRKQJ8Ocb5IrguILXgH/Ay8EYPIqBT6jkvb+dUAvXsfvldaxu/X/tixvxaKpuQM=);whiteSpace=wrap;fontSize=11;strokeOpacity=0;fillOpacity=100;fillColor=#ffffff;whiteSpace=wrap;spacing=0;" parent="zyCjnop6QbWn4T4vvVL7-7" vertex="1">
          <mxGeometry width="48" height="48" relative="1" as="geometry" />
        </mxCell>
        <mxCell id="zyCjnop6QbWn4T4vvVL7-11" value="" style="points=[[0.511,-0.539,0]];group;html=1;" parent="zyCjnop6QbWn4T4vvVL7-2" vertex="1">
          <mxGeometry x="381" width="48" height="48" as="geometry" />
        </mxCell>
        <mxCell id="zyCjnop6QbWn4T4vvVL7-12" value="" style="shape=stencil(lVfLctswDPwaXTUk+D6nyX9kEqfW1LUzjtPafx+5IiFxKcPNTYaX3CWwAKXOPHxsn983HamP0/Hwa/N3eD1tO/OjIxr2281xOI1PnXnszMPb4bj5eTx87l+n3+/PV+T16ffhz3WH87RO+56ui0hdcoD69C/wNMF3w34BN7Y3NTz08TacUgUm0+vbYEe9q+DW916EW4SH23CbslCGp3zydeUeDkpO2p10BTbCMe9mHAoU+npvG7KyDH/5PE54nRekLFRdNKxQZypyOXfEmBw5m4wh1mkY4yXmsbyuYU7AbBlTmGPedWZ2nHvDtQoi85zTHHGqlJuZi5uY2fEJmXnG5IgzdXFWmD0wO96VGi8VZo4szhyBOdT+bJgd17Awx2KVRbYjMEfOS2G2wJtkf41VNsCbmioTVtmrJtcaTzxirMis0NnjCl8z68ROmJlDzawD+osx6x1rYdJ8Fx6lGakVNPg34TgPAH5vfNTTJrm+HtlOtn/yvH0pCc6a5JuKoAUXkBwRz5RwgiaSx0NqxkOybArCyKURzjqJMah8VWiAOwTRqJMTc2mEnwnSu1Cpa5VzCQ0Udf0e1eAQp6RrNzi4R4OTahUUXOpR3D1GhLscWIcbLkhOT6hHCIiJ0JmBpEZ2uLsV+nIEw/tFELMe8GXHSk6615d1F6PvlGS6Zpyr2nGq9pvBm6v8/z+dqypZ99pW1bqSx5412AxaqVpcM+kLYj3LBAUH9MpcgQtpFoCKFv2K15GCFGJe8AKos3jvdVBBGs3KgIbJB0lsx56QQ9F748P8IfI27HbTd8zyf/xwGUPTR495/AI=);whiteSpace=wrap;fontSize=11;strokeOpacity=0;fillOpacity=100;fillColor=#ffffff;whiteSpace=wrap;spacing=0;" parent="zyCjnop6QbWn4T4vvVL7-11" vertex="1">
          <mxGeometry width="48" height="48" relative="1" as="geometry" />
        </mxCell>
        <mxCell id="zyCjnop6QbWn4T4vvVL7-13" value="" style="shape=stencil(lZTdcoMgEEafhtsddkGj12n6HpnGVKZWM8S0ydtHy58uUzu9w/UsBz5BofbX9nhpBMnraIeP5tucxlaoF0Fk+raxZpxGQh2E2p8H27zb4daf3PPlOJPz6HP4mme4uz6sYTc3kXy4QoGAP4VXh7/drOMxNqBvwNDhnu/kiSoSvlJIqD2jPFNC4RnFGO/tTL9cpga9XuY/8d0GXEK1AWcBVHHpuOJTACnTEEDJAyAJxAIoYdM7dVTMG0MMZkJQmRmZGaFk5sJXfjNjWH00F8A+OlH20XXwRHNigllveik7aiqktthxzbwUU0k71sxLfyTN94tZ0jLOSZGhtXdxDlRkVpdrGqSLeTZd5+718j2/yFPJ/QTU4Qk=);whiteSpace=wrap;fontSize=11;strokeOpacity=0;fillOpacity=100;fillColor=#ffffff;whiteSpace=wrap;spacing=0;" parent="zyCjnop6QbWn4T4vvVL7-11" vertex="1">
          <mxGeometry width="48" height="48" relative="1" as="geometry" />
        </mxCell>
        <mxCell id="zyCjnop6QbWn4T4vvVL7-14" value="" style="shape=stencil(lZHNDoIwEISfptcN7JYUzojvQUKRxkpJKf68va01EUnUeptOv51sdhjV89BOkmE2O2uO8qI6NzDaMUQ1DtIq5xWjhlHdGysP1ixjF99TG8igTuYcEq5xjgugMITZLRqlgOph7COu1bjGcyjfcIGfYRKQJ8Ocb5IrguILXgH/Ay8EYPIqBT6jkvb+dUAvXsfvldaxu/X/tixvxaKpuQM=);whiteSpace=wrap;fontSize=11;strokeOpacity=0;fillOpacity=100;fillColor=#ffffff;whiteSpace=wrap;spacing=0;" parent="zyCjnop6QbWn4T4vvVL7-11" vertex="1">
          <mxGeometry width="48" height="48" relative="1" as="geometry" />
        </mxCell>
        <mxCell id="zyCjnop6QbWn4T4vvVL7-15" value="" style="points=[[0.469,-0.539,0],[0.532,1.5,0]];group;html=1;" parent="zyCjnop6QbWn4T4vvVL7-2" vertex="1">
          <mxGeometry x="572" width="48" height="48" as="geometry" />
        </mxCell>
        <mxCell id="zyCjnop6QbWn4T4vvVL7-16" value="" style="shape=stencil(lVfLctswDPwaXTUk+D6nyX9kEqfW1LUzjtPafx+5IiFxKcPNTYaX3CWwAKXOPHxsn983HamP0/Hwa/N3eD1tO/OjIxr2281xOI1PnXnszMPb4bj5eTx87l+n3+/PV+T16ffhz3WH87RO+56ui0hdcoD69C/wNMF3w34BN7Y3NTz08TacUgUm0+vbYEe9q+DW916EW4SH23CbslCGp3zydeUeDkpO2p10BTbCMe9mHAoU+npvG7KyDH/5PE54nRekLFRdNKxQZypyOXfEmBw5m4wh1mkY4yXmsbyuYU7AbBlTmGPedWZ2nHvDtQoi85zTHHGqlJuZi5uY2fEJmXnG5IgzdXFWmD0wO96VGi8VZo4szhyBOdT+bJgd17Awx2KVRbYjMEfOS2G2wJtkf41VNsCbmioTVtmrJtcaTzxirMis0NnjCl8z68ROmJlDzawD+osx6x1rYdJ8Fx6lGakVNPg34TgPAH5vfNTTJrm+HtlOtn/yvH0pCc6a5JuKoAUXkBwRz5RwgiaSx0NqxkOybArCyKURzjqJMah8VWiAOwTRqJMTc2mEnwnSu1Cpa5VzCQ0Udf0e1eAQp6RrNzi4R4OTahUUXOpR3D1GhLscWIcbLkhOT6hHCIiJ0JmBpEZ2uLsV+nIEw/tFELMe8GXHSk6615d1F6PvlGS6Zpyr2nGq9pvBm6v8/z+dqypZ99pW1bqSx5412AxaqVpcM+kLYj3LBAUH9MpcgQtpFoCKFv2K15GCFGJe8AKos3jvdVBBGs3KgIbJB0lsx56QQ9F748P8IfI27HbTd8zyf/xwGUPTR495/AI=);whiteSpace=wrap;fontSize=11;strokeOpacity=0;fillOpacity=100;fillColor=#ffffff;whiteSpace=wrap;spacing=0;" parent="zyCjnop6QbWn4T4vvVL7-15" vertex="1">
          <mxGeometry width="48" height="48" relative="1" as="geometry" />
        </mxCell>
        <mxCell id="zyCjnop6QbWn4T4vvVL7-17" value="" style="shape=stencil(lZTdcoMgEEafhtsddkGj12n6HpnGVKZWM8S0ydtHy58uUzu9w/UsBz5BofbX9nhpBMnraIeP5tucxlaoF0Fk+raxZpxGQh2E2p8H27zb4daf3PPlOJPz6HP4mme4uz6sYTc3kXy4QoGAP4VXh7/drOMxNqBvwNDhnu/kiSoSvlJIqD2jPFNC4RnFGO/tTL9cpga9XuY/8d0GXEK1AWcBVHHpuOJTACnTEEDJAyAJxAIoYdM7dVTMG0MMZkJQmRmZGaFk5sJXfjNjWH00F8A+OlH20XXwRHNigllveik7aiqktthxzbwUU0k71sxLfyTN94tZ0jLOSZGhtXdxDlRkVpdrGqSLeTZd5+718j2/yFPJ/QTU4Qk=);whiteSpace=wrap;fontSize=11;strokeOpacity=0;fillOpacity=100;fillColor=#ffffff;whiteSpace=wrap;spacing=0;" parent="zyCjnop6QbWn4T4vvVL7-15" vertex="1">
          <mxGeometry width="48" height="48" relative="1" as="geometry" />
        </mxCell>
        <mxCell id="zyCjnop6QbWn4T4vvVL7-18" value="" style="shape=stencil(lZHNDoIwEISfptcN7JYUzojvQUKRxkpJKf68va01EUnUeptOv51sdhjV89BOkmE2O2uO8qI6NzDaMUQ1DtIq5xWjhlHdGysP1ixjF99TG8igTuYcEq5xjgugMITZLRqlgOph7COu1bjGcyjfcIGfYRKQJ8Ocb5IrguILXgH/Ay8EYPIqBT6jkvb+dUAvXsfvldaxu/X/tixvxaKpuQM=);whiteSpace=wrap;fontSize=11;strokeOpacity=0;fillOpacity=100;fillColor=#ffffff;whiteSpace=wrap;spacing=0;" parent="zyCjnop6QbWn4T4vvVL7-15" vertex="1">
          <mxGeometry width="48" height="48" relative="1" as="geometry" />
        </mxCell>
        <mxCell id="zyCjnop6QbWn4T4vvVL7-23" value="" style="shape=stencil(nZBRDoQgDERP03+WHsHFe5iISyOCQdT19kIaIxq//Jtp3zTpAFaTaUYNUkwx+F6v1EYD+AUpyRkdKCYFqACrzgf9C352LfuxyWRWg1/yhT/nRE5IsZWuZtCSK8CPeI0e/hF+jV7AJM4PO7KWCyr390bSiNtEtQM=);whiteSpace=wrap;overflow=block;html=1;fontSize=11;strokeOpacity=0;fillOpacity=0;fillColor=#000000;whiteSpace=wrap;fontSize=11;spacing=0;" parent="zyCjnop6QbWn4T4vvVL7-1" vertex="1">
          <mxGeometry x="430" y="410.5" width="146" height="76" as="geometry" />
        </mxCell>
        <mxCell id="zyCjnop6QbWn4T4vvVL7-24" value="&lt;div style=&quot;display: flex; justify-content: flex-start; text-align: left; align-items: baseline; font-size: 0; line-height: 1;&quot;&gt;&lt;span style=&quot;font-size:11px;&quot;&gt;&lt;span style=&quot;font-size:12px;color:#ffffff;font-family: Arimo;&quot;&gt;Tier-0 Routing&#xa;&lt;/span&gt;&lt;/span&gt;&lt;/div&gt;&lt;div style=&quot;display: flex; justify-content: flex-start; text-align: left; align-items: baseline; font-size: 0; line-height: 1;&quot;&gt;&lt;span style=&quot;font-size:11px;&quot;&gt;&lt;span style=&quot;font-size:12px;color:#ffffff;font-family: Arimo;&quot;&gt;ECMP, No Edge Services&#xa;&lt;/span&gt;&lt;/span&gt;&lt;/div&gt;&lt;div style=&quot;display: flex; justify-content: flex-start; text-align: left; align-items: baseline; font-size: 0; line-height: 1;&quot;&gt;&lt;span style=&quot;font-size:11px;&quot;&gt;&lt;span style=&quot;font-size:12px;color:#ffffff;font-family: Arimo;&quot;&gt;&#xa;&lt;/span&gt;&lt;/span&gt;&lt;/div&gt;&lt;div style=&quot;display: flex; justify-content: flex-start; text-align: left; align-items: baseline; font-size: 0; line-height: 1;&quot;&gt;&lt;span style=&quot;font-size:11px;&quot;&gt;&lt;span style=&quot;font-size:12px;color:#ffffff;font-family: Arimo;&quot;&gt;Each LR/VRF requires unique connectivity&lt;/span&gt;&lt;/span&gt;&lt;/div&gt;" style="strokeColor=none;fillColor=none;overflow=visible;whiteSpace=wrap;html=1;fontSize=11;whiteSpace=wrap;fontSize=11;spacing=0;strokeOpacity=0;fillOpacity=0;whiteSpace=wrap;fontSize=11;" parent="zyCjnop6QbWn4T4vvVL7-1" vertex="1">
          <mxGeometry x="430" y="413.312" width="146" height="73.188" as="geometry" />
        </mxCell>
        <mxCell id="zyCjnop6QbWn4T4vvVL7-50" value="" style="group;html=1;" parent="zyCjnop6QbWn4T4vvVL7-1" vertex="1">
          <mxGeometry x="420" y="578.5" width="908" height="265" as="geometry" />
        </mxCell>
        <mxCell id="zyCjnop6QbWn4T4vvVL7-51" value="" style="shape=stencil(nZBLDoAgDERP0z3SIyjew0SURgSD+Lu9kMZoXLhwN9O+tukAlrNpJg1SzDH4QW/URgNYgZTkjA4UkwJUgGXng+6DX1zLfmoymdXo17xh5zmRJ6Q42BWCfc2oJfdAr+Yv+AP9Cb7OJ3H/2JG1HNGz/84klThPVCc=);whiteSpace=wrap;fontSize=11;strokeOpacity=0;fillOpacity=100;fillColor=#1e428a;whiteSpace=wrap;spacing=0;rounded=1;absoluteArcSize=1;arcSize=1;" parent="zyCjnop6QbWn4T4vvVL7-50" vertex="1">
          <mxGeometry width="908" height="265" relative="1" as="geometry" />
        </mxCell>
        <mxCell id="zyCjnop6QbWn4T4vvVL7-52" value="" style="shape=stencil(UzV2Ls5ILEhVNTIoLinKz04tz0wpyVA1dlE1MsrMy0gtyiwBslSNXVWNndPyi1LTi/JL81Ig/IJEkEoQKze/DGRCBUSfoZ4ZSI+RQSWEb2mgZwkWcIOozsnMQ1ZtTplyYz1DPKopUYzuECAD4eW0zJwcSIghy6MHEVAIErzGrgA=);whiteSpace=wrap;fontSize=11;strokeOpacity=0;fillOpacity=0;fillColor=#000000;whiteSpace=wrap;spacing=0;rounded=1;absoluteArcSize=1;arcSize=1;" parent="zyCjnop6QbWn4T4vvVL7-50" vertex="1">
          <mxGeometry width="908" height="265" relative="1" as="geometry" />
        </mxCell>
        <mxCell id="zyCjnop6QbWn4T4vvVL7-53" value="&lt;div style=&quot;display: flex ; justify-content: flex-start ; text-align: left ; align-items: baseline ; font-size: 0 ; line-height: 1&quot;&gt;&lt;span style=&quot;font-size: 11px&quot;&gt;&lt;span style=&quot;font-size: 12px ; color: #ffffff ; font-family: &amp;#34;arimo&amp;#34;&quot;&gt;Tier-1 Aggregation Services (Distributed):&lt;br&gt;&lt;/span&gt;&lt;/span&gt;&lt;/div&gt;&lt;div style=&quot;display: flex ; justify-content: flex-start ; text-align: left ; align-items: baseline ; font-size: 0 ; line-height: 1&quot;&gt;&lt;span style=&quot;font-size: 11px&quot;&gt;&lt;span style=&quot;font-size: 12px ; color: #ffffff ; font-family: &amp;#34;arimo&amp;#34;&quot;&gt;VN-Segments&lt;br&gt;&lt;/span&gt;&lt;/span&gt;&lt;/div&gt;&lt;div style=&quot;display: flex ; justify-content: flex-start ; text-align: left ; align-items: baseline ; font-size: 0 ; line-height: 1&quot;&gt;&lt;span style=&quot;font-size: 11px&quot;&gt;&lt;span style=&quot;font-size: 12px ; color: #ffffff ; font-family: &amp;#34;arimo&amp;#34;&quot;&gt;Next-Hop Routing&lt;br&gt;&lt;/span&gt;&lt;/span&gt;&lt;/div&gt;&lt;div style=&quot;display: flex ; justify-content: flex-start ; text-align: left ; align-items: baseline ; font-size: 0 ; line-height: 1&quot;&gt;&lt;span style=&quot;font-size: 11px&quot;&gt;&lt;span style=&quot;font-size: 12px ; color: #ffffff ; font-family: &amp;#34;arimo&amp;#34;&quot;&gt;D-IDS&lt;br&gt;&lt;/span&gt;&lt;/span&gt;&lt;/div&gt;&lt;div style=&quot;display: flex ; justify-content: flex-start ; text-align: left ; align-items: baseline ; font-size: 0 ; line-height: 1&quot;&gt;&lt;span style=&quot;font-size: 11px&quot;&gt;&lt;span style=&quot;font-size: 12px ; color: #ffffff ; font-family: &amp;#34;arimo&amp;#34;&quot;&gt;&lt;br&gt;&lt;/span&gt;&lt;/span&gt;&lt;/div&gt;&lt;div style=&quot;display: flex ; justify-content: flex-start ; text-align: left ; align-items: baseline ; font-size: 0 ; line-height: 1&quot;&gt;&lt;span style=&quot;font-size: 11px&quot;&gt;&lt;span style=&quot;font-size: 12px ; color: #ffffff ; font-family: &amp;#34;arimo&amp;#34;&quot;&gt;Tier-1 Aggregation Services (Centralized)&lt;br&gt;&lt;/span&gt;&lt;/span&gt;&lt;/div&gt;&lt;div style=&quot;display: flex ; justify-content: flex-start ; text-align: left ; align-items: baseline ; font-size: 0 ; line-height: 1&quot;&gt;&lt;span style=&quot;font-size: 11px&quot;&gt;&lt;span style=&quot;font-size: 12px ; color: #ffffff ; font-family: &amp;#34;arimo&amp;#34;&quot;&gt;Load Balancing&lt;/span&gt;&lt;/span&gt;&lt;/div&gt;&lt;div style=&quot;display: flex ; justify-content: flex-start ; text-align: left ; align-items: baseline ; font-size: 0 ; line-height: 1&quot;&gt;&lt;span style=&quot;font-size: 11px&quot;&gt;&lt;span style=&quot;font-size: 12px ; color: #ffffff ; font-family: &amp;#34;arimo&amp;#34;&quot;&gt;IDS&lt;br&gt;&lt;/span&gt;&lt;/span&gt;&lt;/div&gt;&lt;div style=&quot;display: flex ; justify-content: flex-start ; text-align: left ; align-items: baseline ; font-size: 0 ; line-height: 1&quot;&gt;&lt;span style=&quot;font-size: 11px&quot;&gt;&lt;span style=&quot;font-size: 12px ; color: #ffffff ; font-family: &amp;#34;arimo&amp;#34;&quot;&gt;CNI&lt;br&gt;&lt;/span&gt;&lt;/span&gt;&lt;/div&gt;&lt;div style=&quot;display: flex ; justify-content: flex-start ; text-align: left ; align-items: baseline ; font-size: 0 ; line-height: 1&quot;&gt;&lt;span style=&quot;font-size: 11px&quot;&gt;&lt;span style=&quot;font-size: 12px ; color: #ffffff ; font-family: &amp;#34;arimo&amp;#34;&quot;&gt;Firewalling&lt;br&gt;&lt;/span&gt;&lt;/span&gt;&lt;/div&gt;&lt;div style=&quot;display: flex ; justify-content: flex-start ; text-align: left ; align-items: baseline ; font-size: 0 ; line-height: 1&quot;&gt;&lt;span style=&quot;font-size: 11px&quot;&gt;&lt;span style=&quot;font-size: 12px ; color: #ffffff ; font-family: &amp;#34;arimo&amp;#34;&quot;&gt;VPN&lt;br&gt;&lt;/span&gt;&lt;/span&gt;&lt;/div&gt;&lt;div style=&quot;display: flex ; justify-content: center ; text-align: center ; align-items: baseline ; font-size: 0 ; line-height: 1&quot;&gt;&lt;span style=&quot;font-size: 11px&quot;&gt;&lt;/span&gt;&lt;/div&gt;" style="strokeColor=none;fillColor=none;overflow=visible;whiteSpace=wrap;html=1;fontSize=11;whiteSpace=wrap;fontSize=11;spacing=0;strokeOpacity=0;fillOpacity=0;rounded=1;absoluteArcSize=1;arcSize=1;whiteSpace=wrap;fontSize=11;" parent="zyCjnop6QbWn4T4vvVL7-50" vertex="1">
          <mxGeometry x="0.016" y="0.041" width="145.28" height="230.02" relative="1" as="geometry" />
        </mxCell>
        <mxCell id="zyCjnop6QbWn4T4vvVL7-54" value="" style="points=[[2.1,-0.212,0],[2.1,-0.212,0],[2.1,-0.212,0],[2.1,-0.212,0]];group;html=1;" parent="zyCjnop6QbWn4T4vvVL7-1" vertex="1">
          <mxGeometry x="774" y="591.5" width="60" height="60" as="geometry" />
        </mxCell>
        <mxCell id="zyCjnop6QbWn4T4vvVL7-55" value="" style="shape=stencil(pZTdcoMgEIWfhltGdsGf6zR9j0xjKlOrGWLa9O2rw7IiNXbS3uHhg7PLritwd2kO51pAdhlc/1Z/2uPQCHwSALZrameHcSVwL3B36l396vprd/Tf58NETqv3/mO64ebPaSPNdAiyLy+UFQnPHm9tF+OlhP/gKpN6A0+D+QWvaDfgKIuYfrk6n6qi7VyWxAclCDfwAswRkFIRgBRRwRmlyh3Xig8o9oClq2YEOFK19A2psS0/7erTYMGp/g03m2U1Ml/gJnvgbqO37v6JKxLWcX6XdTqthk6rkaMMJYa0YCQUmtvkbheUsO0bNVboC7W0jbozBJJzo4Sizx2PzOADP1T6u46LeTKcbNv6wRLvp5NklPwUwv03);whiteSpace=wrap;fontSize=11;strokeColor=#ffffff;fillOpacity=0;fillColor=#000000;whiteSpace=wrap;spacing=0;" parent="zyCjnop6QbWn4T4vvVL7-54" vertex="1">
          <mxGeometry width="60" height="60" relative="1" as="geometry" />
        </mxCell>
        <mxCell id="zyCjnop6QbWn4T4vvVL7-56" value="" style="shape=stencil(nZTdcoMgEIWfhlsGWEG8TpP3yCSmMrWaMaY1bx8sPwKNpOkdHj84cnZdBJtLsz/XiJHLOPQf9bc6jg2CN8SY6pp6UKNeIdgi2Jz6oX4f+mt3NM/n/UzOq8/+az5hMvsEw2zexMjNCJxi+SPsDN6qLosXmK/j+m0R4+SFswueO/s3Lq3wEK8Ehix+uA4mGGo3cBsEuVkFBKZGmZhliGeswrj7qgmMIplnrELLvHPpMvXOVWwrwF/dKuA8nCsnWMSugMtsoXiUDiW2co9x6u/0L1xWT7qGv4IvV01KvZJvEB/1O1gccVADV2uKntTVK2sdRdKO0i4y9g26bil2FTsHrQxJwH/8aRNcL5b5cFJta8ZL+D6dJ1oyswi2dw==);whiteSpace=wrap;fontSize=11;strokeColor=#ffffff;fillOpacity=0;fillColor=#000000;whiteSpace=wrap;spacing=0;" parent="zyCjnop6QbWn4T4vvVL7-54" vertex="1">
          <mxGeometry width="60" height="60" relative="1" as="geometry" />
        </mxCell>
        <mxCell id="zyCjnop6QbWn4T4vvVL7-57" value="" style="shape=stencil(pVbLcsIwDPyaXDOOleeZwn8wJZRMKWFCaMPfN6kt2Zbzgt6CWHsl7UpJAJvbaX8tAylubVN/lj/VoT0F8BZIWV1OZVO1/VMA2wA2x7opP5r6fjmo39f9gByevurv4YZOnYuLMB4OSfFQAQizv987hT5XFxudhImDjoQ+Pg7PQ/kfeF5ounXJLMB5pUUagg1/vzeqM5HuRBrm+kBEJ3SCnVQRaXLQkSLSCNAlZ1SUjuRS3zvBW9ABHchiTARpY4LoQAph4fKijkSbRC6t2x3IqNjX4PGCVKkLF0/cTUKvhKONxuHUl3E0VyPmavS2QIklF8y4An0y6QKKTPBazkJfuKyWPTFCNgHP8swVu7FdkAimEkPzFHvT8d5wo2axNx9uijQMqxtTCD6WVruRJPF6Y1QDNv7EPG+cVLLt9Cx81sX9/IADn5sQ7+756fPhs7NtNWYc7imScEWsdSQ91Yw1mF19LyytSstemAubTcujkspjw2n5nntjSqtnXjzUvhfh8y9NL5kF+MKM843gYB1LegtL0rKJbDhJgXdJjkcdEAAO+QSdcLmyDOvqvPuRMRIiYMKz1SNmKQ0HspobOQW53OQFHLKqTgP3+tx5HA+31VN1OoT9g/k4PFbns/q2tP/nH5N9SH2IwvYX);whiteSpace=wrap;fontSize=11;strokeColor=#ffffff;fillOpacity=100;fillColor=#434445;whiteSpace=wrap;spacing=0;" parent="zyCjnop6QbWn4T4vvVL7-54" vertex="1">
          <mxGeometry width="60" height="60" relative="1" as="geometry" />
        </mxCell>
        <mxCell id="zyCjnop6QbWn4T4vvVL7-58" value="" style="group;html=1;" parent="zyCjnop6QbWn4T4vvVL7-1" vertex="1">
          <mxGeometry x="994" y="591.5" width="60" height="60" as="geometry" />
        </mxCell>
        <mxCell id="zyCjnop6QbWn4T4vvVL7-59" value="" style="shape=stencil(pZTdcoMgEIWfhltGdsGf6zR9j0xjKlOrGWLa9O2rw7IiNXbS3uHhg7PLritwd2kO51pAdhlc/1Z/2uPQCHwSALZrameHcSVwL3B36l396vprd/Tf58NETqv3/mO64ebPaSPNdAiyLy+UFQnPHm9tF+OlhP/gKpN6A0+D+QWvaDfgKIuYfrk6n6qi7VyWxAclCDfwAswRkFIRgBRRwRmlyh3Xig8o9oClq2YEOFK19A2psS0/7erTYMGp/g03m2U1Ml/gJnvgbqO37v6JKxLWcX6XdTqthk6rkaMMJYa0YCQUmtvkbheUsO0bNVboC7W0jbozBJJzo4Sizx2PzOADP1T6u46LeTKcbNv6wRLvp5NklPwUwv03);whiteSpace=wrap;overflow=block;html=1;fontSize=11;strokeColor=#ffffff;fillOpacity=0;fillColor=#000000;whiteSpace=wrap;fontSize=11;spacing=0;" parent="zyCjnop6QbWn4T4vvVL7-58" vertex="1">
          <mxGeometry width="60" height="60" relative="1" as="geometry" />
        </mxCell>
        <mxCell id="zyCjnop6QbWn4T4vvVL7-60" value="" style="shape=stencil(nZTdcoMgEIWfhlsGWEG8TpP3yCSmMrWaMaY1bx8sPwKNpOkdHj84cnZdBJtLsz/XiJHLOPQf9bc6jg2CN8SY6pp6UKNeIdgi2Jz6oX4f+mt3NM/n/UzOq8/+az5hMvsEw2zexMjNCJxi+SPsDN6qLosXmK/j+m0R4+SFswueO/s3Lq3wEK8Ehix+uA4mGGo3cBsEuVkFBKZGmZhliGeswrj7qgmMIplnrELLvHPpMvXOVWwrwF/dKuA8nCsnWMSugMtsoXiUDiW2co9x6u/0L1xWT7qGv4IvV01KvZJvEB/1O1gccVADV2uKntTVK2sdRdKO0i4y9g26bil2FTsHrQxJwH/8aRNcL5b5cFJta8ZL+D6dJ1oyswi2dw==);whiteSpace=wrap;overflow=block;html=1;fontSize=11;strokeColor=#ffffff;fillOpacity=0;fillColor=#000000;whiteSpace=wrap;fontSize=11;spacing=0;" parent="zyCjnop6QbWn4T4vvVL7-58" vertex="1">
          <mxGeometry width="60" height="60" relative="1" as="geometry" />
        </mxCell>
        <mxCell id="zyCjnop6QbWn4T4vvVL7-61" value="" style="shape=stencil(pVbLcsIwDPyaXDOOleeZwn8wJZRMKWFCaMPfN6kt2Zbzgt6CWHsl7UpJAJvbaX8tAylubVN/lj/VoT0F8BZIWV1OZVO1/VMA2wA2x7opP5r6fjmo39f9gByevurv4YZOnYuLMB4OSfFQAQizv987hT5XFxudhImDjoQ+Pg7PQ/kfeF5ounXJLMB5pUUagg1/vzeqM5HuRBrm+kBEJ3SCnVQRaXLQkSLSCNAlZ1SUjuRS3zvBW9ABHchiTARpY4LoQAph4fKijkSbRC6t2x3IqNjX4PGCVKkLF0/cTUKvhKONxuHUl3E0VyPmavS2QIklF8y4An0y6QKKTPBazkJfuKyWPTFCNgHP8swVu7FdkAimEkPzFHvT8d5wo2axNx9uijQMqxtTCD6WVruRJPF6Y1QDNv7EPG+cVLLt9Cx81sX9/IADn5sQ7+756fPhs7NtNWYc7imScEWsdSQ91Yw1mF19LyytSstemAubTcujkspjw2n5nntjSqtnXjzUvhfh8y9NL5kF+MKM843gYB1LegtL0rKJbDhJgXdJjkcdEAAO+QSdcLmyDOvqvPuRMRIiYMKz1SNmKQ0HspobOQW53OQFHLKqTgP3+tx5HA+31VN1OoT9g/k4PFbns/q2tP/nH5N9SH2IwvYX);whiteSpace=wrap;overflow=block;html=1;fontSize=11;strokeColor=#ffffff;fillOpacity=100;fillColor=#434445;whiteSpace=wrap;fontSize=11;spacing=0;" parent="zyCjnop6QbWn4T4vvVL7-58" vertex="1">
          <mxGeometry width="60" height="60" relative="1" as="geometry" />
        </mxCell>
        <mxCell id="zyCjnop6QbWn4T4vvVL7-62" value="" style="group;html=1;" parent="zyCjnop6QbWn4T4vvVL7-1" vertex="1">
          <mxGeometry x="1252" y="591.5" width="60" height="60" as="geometry" />
        </mxCell>
        <mxCell id="zyCjnop6QbWn4T4vvVL7-63" value="" style="shape=stencil(hZDBDoMgEES/hqvRXdNwt/Y/TMVCSsUgWvn7SpcgMU16W4Y3zDIMm1l2k2BQzs6ap3ir3kmGVwagRimscvvEsGXYDMaKhzXL2NN56gIZppdZwwsb+QALHkxQehI4L/Ar3Ai/L5b4KhrqooqGKjlqUjZITFQ8JOYSGUxMVDwmhufJWo35okfuKfY3/u9f+3B0MiitqdL8/tzhLlH/2H4A);whiteSpace=wrap;fontSize=11;strokeColor=#a5a5a5;fillOpacity=100;fillColor=#ffffff;whiteSpace=wrap;spacing=0;" parent="zyCjnop6QbWn4T4vvVL7-62" vertex="1">
          <mxGeometry width="60" height="60" relative="1" as="geometry" />
        </mxCell>
        <mxCell id="zyCjnop6QbWn4T4vvVL7-64" value="" style="shape=stencil(hZNLEoIwDEBP023HJlTK2s89HEXpiOAUVLy9YD9A6uCuhJe+Jpkw3DTF4Z4zWDWtqa/5S5/aguGWAeiqyI1u+xPDHcPNuTb5xdSP6mS/74eBHE63+jnc0Nk8UDwdkmD1tgGBXH0De4sfH8bywiVkDheBX9tIB57g4BgIjIt0GDEuIuCflwti9hmjWfGMmEcGA6Mic7ZoVr7CsebIi1HFkZdYE9cBZy11NRvLfCiJE/yG01B2wLOlu8NrA64WcZjjcv7yH/1C0i/pZzfpmCQdk9Gc1qRj8o81JdbEOyZWRaxJZE2JlexDfxh36azL0q7i9D/dvT5k9xZ3Hw==);whiteSpace=wrap;fontSize=11;strokeColor=#a5a5a5;fillOpacity=100;fillColor=#ffffff;whiteSpace=wrap;spacing=0;" parent="zyCjnop6QbWn4T4vvVL7-62" vertex="1">
          <mxGeometry width="60" height="60" relative="1" as="geometry" />
        </mxCell>
        <mxCell id="zyCjnop6QbWn4T4vvVL7-65" value="" style="shape=stencil(nZ3bknS3bYWfRreqJni+zuE9XLEcqeJYLll27LfPOPpnb/b60EBP7mKF/6DJTeK4sPBd/Ze//Pi7P//wnT3+8usvP//XD//z0+9//fG7+q/fmf30px9/+OWnXz/+r+/qv31X/+UPP//yw3/+8vNf//T73/73n3/3z5X//L/+++e//fMv/P23fzf29/uf/8ge//jtP9T6/fq///Dvvy3/409/OpbPx/ddl+9z+X/89Zff/nzBP/j2X2r7fv72X/5u129Y39YY1tRrzfi25tt/qf37Gv5Qe/6h/fmHYvl6Xj6+/W5/efkm+1genVq5fvy35fPbr3t1auVz/9epzc8f+HlqH2uKnNp6PrPj7OvTitffykSqynzEEo8vWa/fHRz7x/qpBzPD5T1crjv6+Ae6o/n5Ka7bt64XYNeaLvta1++899VCyev65EX+xSm5Q3KD5PZlydyzSp7OnlXydPYcvImP9Z/38c2PwyuuimE4P1MVw72mvil3OJ+Gktsbku3LkssbkvVZO5JjufJhOrVPDX9mxwFdh3z9zA6dfR3Hy5/5+XdfH08Vuf3zMI7jGSK34bXqvW3P95YXES/m/pv3i6m5XOjblux4Qs83nPS9xq5T0ZPmW+3hWxVj12Mj/qFS9N52/MyFe3uvqVhT35asV9GTrFfxusC3YYLcWIlu7Jgfhur7vq4Va969EtxxcwyH6sX2eT0PU6zaqT07HbCtsSP47DfuIf5VL88n+vzX9xCHSZfrMWzogm7XrTes+fZfuhzChoruNVKV+1lRfiyO9tTlxD6WBwf8sfzZ1/nYUHj3d79s0OsjgBruhiOQN9dLfATJh5X4YcmHbf370Mnk/b7+RfCi23BelrzpNqKA4HjR1/JMBYhVaAO+49Yb2AaU3lYV0BLv//CKy/UvVAUgZmp0EzaOKPP/Rem16+veEYAqvbZU7scasfzt8/BfS9Yd7zckb1XzjHjaTsI+eZOP2FU44sRy/QuxC0dw+Pkmi97ejzXyQ3tJAk5RTSWJuwt+KJTHLGpGPtZIFDBVf1psvqbpq7nU3C33XvNCb0/TqOdDt8YfxjTP0KsjV5Vl436vj1evNfGruU+xyL84T3pCsijqWZw9Z9+4YM/it/LVXFbqfDXiPXaLI4SPf6GmqeC0H+oQXlc8yBd8rMl0o5724w3deP2XQCvvyNgf1uBSe7HnCg/yUJSGNbcy1TAcKvxZlapjL3qi5dkC+ZKXdTrNMa0cMiTyM0fyM8UY9yh/ljoZzz5J06xScpv7Vt1hanyOc/28zOpwT/ia5RGf/ex6l8tDPYwJB6889C7Prne5lOj053MSrZRnlS6Lm3i5xRJb3tTyFINWappeKXqaTbVhqWG+915/LQ9zMbOpy1FEjcyuZqo0OBxdXZ2SmYuO40FkOZEDKvLc5sDxxOZxYLf6SZBrO37Xp9SpsUS624Er3uCGDDVRhcaR+82+71BH5LpAp2RRbMXwhSnZIkNxnPT1vGIrziMq0AITF6JA/0z1XFQLQDJCsett35JhSz+OUZzZxUsRyl0P51LIp1kPyIWvtuC3lBZfivXAjjvk6jPoauscuaH5Ov7mt+Vhcen4kdfyQPN9LH82jiWsdK2HLo4fMGLR0tWNmRvaHAm4uXFicRyxcEc6XgXSYI7cpR7mG5JxR2C/4BEV5GQn5Voodzo7VlU58SrohyAXXJJk5/FXPyXzpPmF1QtBpaokGZaJSlVBhmXqfge+8MQXHskXRtbdkTthlDzJ3HEiOZU7NFIs8LUdkzSS6BjZ1OOv3pLV3fEkq67PJNPd4Z67s2f6uNxzlNlpaoaDnOdsqkJn4msWXR55BE0XR+52vc7LX44Drhq8FEIFKp7vgtpQ52ElKQC9UEwVGtQzpZqmKFO5SPSUBafFcKGmI1mvclIWJSijIC17/NXXey6IGVaiKAtM0oLkAoWFXAJTTG9I5nemZFUcnmQ97VRyKpeuGuU+nPsVvVU4UzuMpB+qCXbk2aHGVnbsfR2ZrM/MxEMv+4GMsmsN82zyvC1JdI8NuSxC6mffqEAsxCQRGkg034o136Dbgjsyph4O78ix5rojoVy6LdBAzBeV5XwUU7nZR3FeI0tS1PWohjt6ILYyKA1R8pFGfq37GDrNJABBaahMJ8mte56ouDxEbojYOx7e/3d5BkyjQ5bmHIt+x4UbFOdRp+qfHpWCD1zMtfwrALASIjQHEiU9Kp87y8PF4nS1yFkcWvMuGUiDmVuktQa92qoJtdGhH5O01mi4OFXdvVGhmSvqHwall2RthkEy94yKIlN5ozhZmxiPVqBwic/y8jYKiXlA7fXktB8iV1ReR/1fn2inkh+xwutUDRPmBbU1RkzHmlvVhi5Xv83CS6e+L9zqraq2TzhdO86B9qnmxR4iF3GxoQ7SUYGxpJrY8Y6tqAvRuzrWhjpmxzu2knzljh1XfU3HX/2UDMxhR0RuPfJYu2pGC9RoH2IvrEXmpU/92y0yL/1OsVzLg8i4q/HS5Thi+GnW1GfpQC0aqh4dVjY54qX7SrTM8aY+f+jQF98BiTJkZ7q8OhvJq8N7N+B8O6MLR65m4GxEQdbQIMtGYgCQtjdixuADGmGygAfphXYk66chGhPxr6FUMQoURALuGFQPNHn6aSo8fe44O2kthZtz0ioXsKEBP99CRTxQErICf5jnDBNA5yINdFVHMNAFXMkeuFkALH0zYO87U1vLKsffvE0t5WrpP0xYHOsvCx9fQ0P4RRiL+kAMOCv83Cy4r07KS0PdimoIsIij0hcJjqdqkLHTn6kq9AGnGLAze+Bn4jtmrsvhwN8vRg8IeVArCEGMLzWBDFW4LtQRCEGsQkdUSE5AfsfHfK0VGyw6AG+jxVpR+2eeroRZGEp2CSWvs3m1HH89Nkiop5jhs3eNhRwFTV85QUmxO8eBSQFQYYbDR/XqWvNasl51YFnZF3T8uluy+ikWJzS+9mkA5KBLP4B1ser8TP00NfyZ2odgYY8Dr1zY8TsU/2WxcgCsytScNnwpNq80uEstzCXd1uJanmkS9XMA2qV5se7oML3MWZMbLQYAFYe5NKx5aVKzMMPR245kyNWsteER9czDgsoCoMKxVJ5ktRe5ZFVZjBvgZdnAdTS8yKTQPwxnPSAZoHCbTrJM71cG6FW57DCl/z6d5JHuOAr8Nf1tK84ldta1FrIfG8ez9HiONVXWvI/19STrM1jIcSGv98ae9dOgbNQBCPckf1HueuOsUWowlG46anmWlHA75WpuDeU5Q3muT+ekw2ff1QItVTd9QLUjZukDTuJK8jho77alj753Z8eaxwSe21bkcx65xG/Ld2Qs7/aUe3n0uJt4tPURO4q96TFUxNR3c87VwYqida9qaeoj+QBNM34V5XJKNpStO21rfKJVE1pJVN1pinlTAJ8xlJA7qjipNqBJBCNGRxXHUE7tTHgkSDBHMrOclIzGz14cByS6v0VieuvJ/QXa5mj2MKwxrLl/qD7jXLKlkgGMplfamfVLPKUO6hdDn33bzscRg9zQcmpJJbyhocuAqupveCwdSJ/UFQC2yTFQvJA0ULyQ8eMHjsw2DDJ6SG0790tLPzv5yrxfyDp2FFJtoyLycDTz01nLEwS7UpKU7Ui71wf0Izobq2oK8h+FJAVdcfo1K+Iha339i+A8jzXXl8TPjOXi5jpyEV1Uli0R19QS2jkTVZosr+KX1LAtrVcpH9bYklUY+4JnVNWfruib6YCg1pIUFpF6rUi9dhQNvM+OZ5T01lF1VCoO5ccxSNVXkalJPWeVyStusNpQzzXryuTjMigrgF6rvXHKIU9HN721NXmNcGxqg2ODLEMFMKajBnAxv7x/EZHFOv7qp2RkVj45Qw52nNjPLprDqmjO6UADOnIfkBuahZvw4ZAroV3beHiQ28Adojt+vhJtqf1KaIsaYu6KfosGarP0RyatAI7UCScO+J2KDENbGlXUJNJvJC3K5W58Ft1vghpqJGnajtOqvF1wZxq4AN6QjP06klUTe5KVtytDSgkirTHABTasMbQGEq49EptHhpaHE5psSGb0ViE5s3nKUMA9ww40lOg72i5a7LR+qhH/w2RGY0cKhY5UnF8w1T8Jn05Xg8Tsgr4KhjXynZTJ0/HHVCpSzzc/ya31KNfhnYy+kziN0bFrn1dNgtMOtG1lzqI5BlYDppYZHAcfqF4XijW9w6mg5I7TTGxXR+O8IxllzMr0B8gCatIBe+AHb8lpxriiE7WjI7SOLEeOr6w7RrdLBdNX91hi4x0D60t+2o60y2HVr3KNyF2h9gHr7k5/poYdGx/GM7R6JdCGVMN+KfzQ9ni9eDx0T3FtkGTH2NNgigF7IsIuU87E2FVCqpDxqgRVOfTOX8VRVnYuAWVXUQoayDxlxoH4PoeUGAjOynqoXvSwCbiD0zLs4uG7yMwDALQVzc0d/Vh1wOSRqzNVWDhPKmmPkVWdIrr6GaqaeyaqGqVbxmAHCPg2DxkWV98NuWAZdZI5kqmIDH/MFAjCucHEy21E7ncDA5HIZUBnkKs7ntAUjtwMfYz7haLxhZx96UISN6GGycFN6O0CESQRG+0hchlihPaNaCCGc8QVMrgZDfvNrBAdTJVLlxkF42PNu5YA8FqmCrhj52aBpitLUhAg5nCgN7g8uuMOC5TtmA41rS4Yv5ikGCCiiEO9obS/oQ+jUL72iOJC9C22hHHuwF7esbQqMvj27YHPPpxYOuN2X5CsuNUJuWzV5tOOP/vUi+7sGKw6jQBtUJe3BIzgMCs+cOGAu2GuxiE6zloa4Bw4e2amBu3psdSMHzP2geFFNBCI4ifaG0dTE02PVqtW4Yfyo7CvBmColjXuohvt+henZLUxlRfxi3JBduTIBdmRIxcwLJUM3fQMM25JGcXRTexsBr68sbN5OJ8mw9Tre6FkdIE6ktEFmhyR4rZajPO+gdNydV8tN12e+QRdj0EOQQ/fcEsASLrWvPb4VEGjzDdQw3IlK6FvLrlCMtHB4hE0dpPwXcQ6CNhg57oVmKQGbxPY4Ja18AM30FCpHBgr1djbp1o3djoekMr9PpxzZis9tX2UNb9tzNN1fh3YqoLGdegY+cGL2MGD1xLO9I7xKs2cvKd6R+is6WD+axmQBJyDjf3vmBXl1JOQcU2rOpx8g5CrwyyxgtbhEaYVNHANOJI5eIqSB4LqTHJaM2THv4a2vdHzDmUiwGzKrABALGRWx9uPgTzPZZbMST8gOC8d1gPr8DIs6SDvVycd0FAJt7JKpMYwrEPqK2X9U88yk6lGmTI1HZLXXDOZqgkpU40EZEITxTJZX2ZdmxeAINDkAuTw01bUJBL42opevYb5lE14nwVSIhcvaYFsjFtAqt4Yt8A4NRqnGj3lBub9Gtuy4x+8NPYNbLJ0bhoDrKSlz5EMYvXGQAeMwY05hhBf3iS9Ex8PWlnb0LxqYwIGlBuNQU5Y2mhILCVkl63jwiFN1xgTyXtsjIgyJBF4cW4c1C1XpQJXg3p7SxKxDVMLOlAmDWnJDpRJkyCkZ/oHackOFGtDnb8DS8qTzib1OJJrut+Ki4iT1qk1uIjPMW8PIt6mrcq9RxFv00GXPUb1YSBbtvwZhNMDsqImPySchtIwHC/pLj00xOXUQoeILegA2jS0w/eEi7GJSuigB2uAZ3TUrZtKzaCUkhbqqNM3kCMNcWEbkAcjdJsbEA9D3WYZhdxRKSDIrmf9GahwHn/VsCaSrGool6zqj5IL5GroyxFWO1Z/dKkduegN70SWoGOvpxA5tcRdgzHUvzroZTrqXz1rEm24z6hDEVLmStZvnEmmwvfaU+277HYBUha/pQ5XAm8JQ470/R4r3pOJVlzI5PBQDAnrKHP1hLCZELZBmCxGCQ8GMsi2j3A+YFeq1pF1kiALMphzQhZksLsC47dHkv7U7uyB+MA5IPaEy4cZWasEcmwDs6WZ3RvEUwLjNzKQEKpxdxXzkKwPANM8O4pdIyl5O5KpasA4MMjnubX2OTJzAmT+zZD8d6i0T8mTmG3Ak2ac0FHqxVnSI5L3OtnKBejnPQng+KHyXmcy9okXcvIBYszM5AOk5Jo+BbF8ExVBEkJMkPR0jNaZCZsiL+TkI8SFnIQWAy83Mzg1aD/uISqvkXqT4HS0iszsEaJVZCKg7RiyNcn0J8jHKcx0CcXmyiBQmOi5SIQI13MRJwHXc2VgWLEHi8SPaHlfnCSKluSV1D4GXN6F6WeE4a43qC5XVnjknrljsbyL9HlFH8HK6PNQ/lukz0Pj+ULMz8LjG5L1rCnZHMn6CNCru2pS8oSbvyq+Moi+FmbcEdq34mI6YG6LxWUwoS2WtZFfWZacdcdX5r0GC81CRulARdwv6itgtGvs3avlTZfH+wKCbBKkqR4F5/6iK2XuWIEfwJeXCvxYY9caYtfUaMX6acJkYfAFZ7Aca24vUV7rzIBKMJWQqm4JufbplmQzFSiX4AT6jIRm0TnIgC90DqgjaKKhIyYY92fIFXr7u/+4lgfO7THl5FoeuABTSTdmNrgXPRqHn2tYc/vCcuGmHkIsFUPMJxh0J0OUEcscSS6Eex0gCeM8mwECOs6zGQmyfqIHZ6Dla8LhGeiEmXB4RjJYgpN0BocAwsUb6J84dnCbiqD2hIs4WnJEGjti2gdHjg1QrnPY2UjgURyzxtzEBDBrQAPN4uREAss5tXl4xGrDRA+MpNIzAbFjrocj8wY4PDisb4Q17lk1KVVC/aawkREPJq8S62uGDMegmTkU+jmWfADqdAyWdDOROmpdy107qmBNZY+OayMTrh4zuhOQog4aOQ6Q7wl31jH3/E4oUrKWD+GcTM2vzuSJojm5o1WXU707eMo4yDQu/k2ntBipPCVN7knTNafRd7UJrAlwVwhSrjWv5Racp1pfLT47cr8otaor70hF35Mjl1WfXDLvDyVr3ceTrPcnkwyMG74w5gR0sD5PcCBrSdyRq2eNnNsEW/+xpuJ73BWo+E5X3OmGtwrwYach560OycCn8pv2zO6zMKbWEfFyxyy3iRJVT/oOJjoe7qLkocwoWQ8INZgexjsTEW3HDIGJGkxH+80xI/vGnEQfZuqHkYhEli/xc3oJde5SnRuyzU1Fh/ekg22BMKCBPHERo4hqygTnT4aJmohPG5pxJ2ivGoMVtkslbLGTsEM18sTygZpzIhfQsqGfxKXTvQDUpIHJarJpKdsxAXocL41J6Q3VuonsWUuI2zkpvWEaF/UQoYGclN5C9BFc1JawsE29jJ0eAwCz9KLRQ5L4X9LLkdR7J3u6GEXqWcI5Rc9nOKJ0ouWth+GRTtdrI9GeXZfHOQ62vtJX5iMCa8FEsf0NyXr4lIwkonOVUf5tCcn0RG2zMceBJKIrWZV0Jpk7VrlgyGmgEJqoL7bgVaxnyptMwyzljgMFyyJ3HEqgC6MhcrlAZnuSFdXrSdaPkksmipmStdXOk6z9TTOK41dRnRov1wxZZh8Xkqa0UguVvIbAf4ELtoXMUXeV6POH7kghessDhbhMsx8JncFCB2dH0XqBLaSDVmCBzP4NyZr/8CQrbvGhZZKFlFpPeqUW40ggzJa67pTL+DXbMSNnEDg4crfKFaklvD9KIN2TFJ/zI01/IkJdVPSPNXdcExq8Be7DG5B6SNaLiCb75QXZlkjWiwgK4GPNHd5zzxq9JpCahWF8HdyIixDaodnyY82dSgkTCwtjPjoQdashfgV5zSKENtO7TNMhLlnsmkB0sCg3vteA+6vLvZjmnXj0TPMm6dbjXxT5NqdkJur0pLs6ctriIA8fjR+J9+X+0I4fmubXFpM4ycyOhUCjo+1sdVgCZLkWAkZtpIFk5sIBqlle+kiC5MX0UTizck2p0/QEkbImUpBApCwgGToKywuAQzUfkExTqZ8GeZOOtuK1v+weIGPjuAfgh3YcE+SKMskbWSpK3g/oCoHbb/q7SW/71jICivgbPcM86Q1iyR7qpw1u6A7+go2ebHbPbcwI6BY57FvHKKuDgOWS+AybbrdpJrNGynLDS2rhX3eWR79dq7KZQtz0hUDSvzHgsoPFdzvFnS/KHeoVbPpgCP03Rnr2JN2xMdLz7q44JOvtRzF00+9MwCSb/i5a8ja9PzQTbTA8ZO1Tm8UdtOUda+xaQ8lfKKfvKg9pZOoQlcaBQUIb8M+BuGVjjPiInpjgMxIrteHPDjQhbJR/B0Z576ZaTPEZkNwhV19qw+EUrSs4ch+RA7G1Oj4ScPpmczagnxtg2g6U2Ga3Xsi7L99RG+ySu9lXaEJ01HwPI48Ncq6OTJbz0vna1M6N9AExylPLziIuHOvNIm4yKPm48UX+xfnRVcMArsbb2RO6X30VhJhstkliQuL2oq2nay4XAhCThKJho6/SuRKMeWh2GHkk4ehGd2UHNHkPmFoEpJv9lQlhPiWzv3IjFB5oJNgYMD7CIhle60iyI7SPA7MM+G4GYBdbFFaGndwA9NwUw4HBA//KRiZqhLwOG2i8pAuN7toA6JpO09AbREiixSmcbfgwAD9sDwzZIFlRsBY+b6I2v7I4aWbayIQ7ptxwmjTlhK5mARj9K7XMYEYfaBvboKgaYaPnLlIqSDwOZ3kSzjoumT4jDB1yXDLQfY04sNRhtSM2AaBpH8g7b1BYErG8QZymr925cAqnRbfGBm0nUdobtJ0j6RNxHjASbs4DxugDR3UI8CGJm0dY3d8AP2cGpurySEE4y2Nnc+jyaKtNF2fKRx7LRBZmYSTEZPIV7sBM+swXEHQT4wIW0Dpsrl1Aesws9apNKwvFMG2gBi5qgUhjZvUHwK4n6w/ACE3MC2IlYCaZhgWo+aRcbZ/G4JgFlqq50sS+3i1A3JdomYnd4lYFQd/S6HTGRWtlZc76GBcIYBaz0mhEWJq0R9VsJQyLC57hQgPEglQUC7TzN5MKP9iRiqzcYg4eubH1iDTe0gl7WQM8sQRsL13gIL1RpEdFX1kR4oeFZ+WUb1WBgVNrIVma8RIctfVbsn4Y7hcQy4UZL3Fb68JzFplI1zvqC61dqfqCPzcx72SVVC6Yr5O9otfPOWMAn9g6vEBrmqrNB76uQklBajrB9DRR+FLWCQeqDLmAli9HskLaSfyy43iSyL+JhPQEwY8rmeYikQy5ivyTG031NuH6xN3zUykDVQ/rcl38RfDswnz5Axx7v1y2RJC8INTCEzmtxVZFAA5uPXVIVnORQHgmcsw30up1D9YCHw+7VZbFuondUKSomCiYkRCE7ZkrmQ0yTVOsS88aOYPlNdoq9UpL5GKM/cL0ugla60WULolIsv5BFIwXcqYTcf0CdGgirl8zfK9FvcQVhXdT0wBrRfEa/3pSvWOn86KyhCFeTts9uG8SnAAlb1C9TyBXNwpyE+w3u0T+4PFRr+Ux/Ya8jI0uB46i3ejS54DvnWS4G5gJNsBeFemNuxDyKdkAudrhACdTetsdjh4zrVashBnRSEuDUN2aeroLs+4MBWN9G5CscuH5GTDCCxBwQ2Y00zVG0iPAAgx0AguFJKN+zSXr8/YkU8sZJFdIDm+vkWIKt9dA3uBKVis6IwfHHhK0rxGlj00B9yspCRo8+QWwq2F+7RJ1aWidWEkZyaRlYwFKY2jZWCDjMRDTrGQUd8FYhAVYcUEEcedCPiUXzOxZLT5pV7LeoIfKhVTVEWHxqmwxDuny50yw7kmX6+JQXZV3Dl4vGrLbBaHbCrPbRbtns5u5VLlNqhiwaYBDEnWHnswN4rQwEItq1wtCPB1JEPawaBr/mrLx4gciraIds7DdDXkGtKNkfU7w41tVG4dSKqc4idA6o1v9XCK4Zri+8mr0VDh4HLaf84SR88zGCQNCUjfFigGuuC/sVQ0gapo91pGs6eqgjInVISGfYuhbiW8uIPQcyQkcewNJEAD0zWKFz0ZdTLbhWBt5MEPtagsZlDR5kk4KRBchh4biZKDrtHcxwdGCoLtpHg2d9+i7YOdu4r9xWCiAPRyWy+Z3p1syjgpJM6CxASf3IAk+oTZXJlb7UpG6Q5ey0x4AEFOYutNBudrTpqu7ro5xR2y1eN5Qgb/IBrjCyRVJi0dBo23HFM8Cv7+D7rQgoaC9KJAMCERH9uxYY9caMX7F1Lj0JHtWUPZW2pgCAERvcNSAI+qZg6gw96YZ9kJ4fVOVWdhq2GPXqxDyDUhbIeS746S9VsPI3RYUbghdKFVsZNbiViQfSCRjgWfChr7izAGJdqSvOqFbK+w7XDh69h1CQxbSvEU/U0k3lLwOP5OIVOR4ChGpejPJzRZq8UI0qrgtBRAQR6Z9UaaChLnTwZ3iFWLY3AhHa5YpnyRrgCic84HegoKBcwNNgsWbuBG6kwVGnTitAqs+kLxwJCehaUG/4UCypnDWB8oLRdz+DAdVMNR+MCaW1MVgohHGdySoICanBqIrAzPVABuEkVI21A9Hsu/b8jCSNmWDGEkx2cS8DgAyDOWpm4P52hVyDDN5M4zhJxA6BoTORI3CUIScSeHVoEAnCq8MwiaCMJMXMxMnyohngxNloNWccKJs6N2dCQeekdUd+a4jFELx+ZIM539mSfI3+NUZ7BAUYlPTAwq9kWcgrNxJjGJLvcwDvmjXGuIa9NOA0WhmFRuk+BZGYhq4lBbSSoa27RViuw2pyKR/zjBWZsHGGUAnn0Ck62cSqhAkbmwrACP65FuLZUloYRg/uJjQQxJcQ4vKtH+LfOeqfPQrXtxkcZIYxXDDm/Lg3hOKUnjpFfTjK+lhq17xZkKyXuQJuSzDhRmcqnhLTNCtLIVJubMS4hC2FVZCAeKfiIsG7VL1JwI+XRE7r8S0V8TOC8a9wrhvGHdK1rK1I1ni510gV+v66JOp4E/aSattRb/TDZu/JIPzeAPZVFH/3iFbR9WAeAeKqt4Z9s/FseqtDbtCA0pFZ+4GdqmiSXPXUFV1Ub+7Rialai58J25JRVZ6S7hdEVNuNNHVoTmWndA5VbhDG+17ldgPCZkqaE93UnWtoAT25AKW40muX5bc3pDc3pDcYslyJQTtkv1MjOvb6Heq4MLdYIk+/s590WPrhSz11uNBomHr4cAv35ZIRUSwVVkBALoxFrEqBCmke6s6kDtGLHnL478uRf7E/60oiBEkV5HNWiB8rmjzWWFYXTXttqTkjOWmy+OrrLsCmXRFUXQB918xB0MRkI6tSPFQle6fWgrRqCvhv68cxNaxW8XWAk5R2W4TsuZU5aDPYC+1IYbRqwaug4U+zsPU3sCX8E08/8ikDlq90XJ6mkhPcGRiRZF4JUXiqg48StO0x8cgyVuuBnmPdMd6e8A3UNH4tsC3WbveH+0qcySzn0GRLuBYmIDo0geJ29+qkljH7UsVfOnshKR9muCmryCh05Ye+ZlTPNWZBWMc4zdwnppYY/DJ8YHhIJiqc7lniMJyln9xT5iw4Rw+EPzHms9dRSGm8pbPkM2Me4rjFWd5ZP2mxLvTkgOeujzSj5KrC5fqhQyHXdWlPyTE8lQ58UxtiS2ZwNhXNmEJB2DlvPGkG7ty3rgqaU4bRxWiqtTYSVOJyOFyp0O9VG+me7ZTrbigwlQBHRnoeD/W3LUtSyQr0Qf3S9gl5ZJ1IXajkAzmbDznpCsMIela4kSRfl+D+QWDJ2k4KifYJ2C4ygn2BW4ykt+Dhh/oICU7g14QHp1H+DNxHTq9BETPHdUB2rWYGQ02IF2uSIJgsXaiJIuFNWuFbsPXBuwxZFFoAZNbCi1g6JBxK1aORwNslanCvnDryaAZB55gBl1JhMzZYgv+BzFQVPnoIe9hv1s1/ZnRYq1S63KnXECwjSodlNM76D0quraV0Q1VInlTiRVilYiMp4ahI2TI08pXNqzQMBWqo33TYIUIBDPkwrJhdqbXDQA0W5Cq+ArUa1OpqBQ7cjEBnByIB0i4yprX1fH8pEnx7UlWkGEumSy+KtkjVNfTxjSqnng4hkxI16o8sBeEN5o3NDBGm5Dpko1HZLpEDsaodWsqWQFsmANo5kjWrwzqkWwCIRtHSCFveq9Bpmhohu5J2chAx3H81RuxxB0TK8Udx7oLk3MUtGvkC2fbEsHCif9sul9MIzOClNFOx1ZQJe929qsaBCkCA0FfZzsxJgW9IZlAZUpWMDol8xu3yMWzh3jQ10CUV8tNl0dt0o9wsQMJVJPV1HQUDgLAhSsbSiXro1x42qirEQR5DI/5lEystr0+nqLpmB53HWqyJ3M9Ch0eURuFhnhgT4x2MpQ4YLTHOBnDmtvTJYxWJYfFnaJpzpiDmst3lJo7EMpv/RhEcRlsnQNuUWsqnNaN5PCxpr4tWb+XIzmVy2kwmVwi4CmX02A8yWpSc8lqYrRtGFU9klYX9DpmQUiha6x9PxwQxHZlkmUn5qVwAj31G4ciwWkqqMxk7lphUgDtgIWDr+AoFswU6AlTEHpVwFxcOPbKYEs49irS6Mpv2EtieHg8QE8X8qcDNopelaQz3JOLw8HEHRyNRith+q1wEhlkYp/65NgOFWYIS1UtHKJpiyQ/Er7GwvGC4GssjEXAE1kYi+SSVXV6kvULUq5+wUyqPirK1CdFmWqeMplqnJydpicMQpr0hEFI48gFIY0rWfMYuWQ9ZeoEtofyrYAWpiUgnsJJqQDxFGVGAISniIlocd8cpr8mQ8cLwuGGgYYFfGiNvbPadp3ZblyIRn8aF6JhVBOvYkvA4HwCnCJeyJSBTlKRmgxHKMDgNpKroIO1ISQtDXJjXwX0Fw2hMLtMPbm4/rlkJXXgjsFqiHMGrKhlvcIwxq3TO8O9ggugijWbTU//u4ExqXQ1X9gv4JItlkqCCJWJqLR5jY7cbdbcqWw49L454b1rsvRo1bw1R+zkocXyIJ8wrLFrDSWTKsK+KBkMjmXiC7NjG2WAFqn05zi5hT0YZUlWIx6qXZZ42Olfx/IsE6S3BPWssvCtMK2noI8rmk1/rJYL8vpn8krph+XPRDXL+ZlZUkkJaGiKwLjlKGeQjrUWZlO03NeSXKKB07khl0gOuoa2MEMDVQsHRoIsT5fnmV/SUZH4sLGSgix7i0n60FTUQEJiqoYRHhuK0S1p7TG0FDX2HyJyaZhCelCD3ZKjXLTOCW3JVBsTJ7wBy2oIzCucYTb51rhNXLEiyXKlOFCSr7CdtubttGQi07uJWcQV2AoDcusNyUpG5kmeb0hesWTACkyPKDp+bWxNjl9bWzNKtooBxTfk6W6LxCEoYhWDgpWBTkEgzz8y4dOrIOGtCMiOflDDmhsCMvEzY5jyQyNlV7IeEIb6GYg3azLUj9RRlf3w29kzJXPPcW0UWLtK3gyQjVa1FlvNWk0Y1gxTuiuCFIPlr0heG4pzNcM46O2Cx+FoAmIrFhRxEh6RTKBipqYiaCrRJHDaa4YmQaBSiSYBF8zx2yrWVDmVL0jO9otT1q+bpBkMDnclpwU82cpq/1ZPpGYu4sb3Jc4AiLBjzesbnUiuj0wuO+wrUDvsdq8xsu8ZQ68fRlGDkpbLvmNFbpjfkVTsPE02i9esGwwTxSuwSBVYpEoGCD3NhHeikqeV7dyYHlrV6mGaeE34Z9gcX4nz1lsL/7mCSq+W5Nai5lCJ8gaNcS2Qq1rpEce6Fbir2+4HN0s7NBAv2I5cu6ozsSwGbZu4dpa5diBnNrDUkVzB+BXlNC0hF66ggDSPaQNyc6fSVuInorrg7BgYJ09yLBfUK89BjyXYABKgGGYgkHrFkDOroCaz3JGmZIWywzAYiGzpSFuSoSSK20a6Y1Q2iOG2xMWqyNIYnLsjBrokq1yRGkPeNGbT5bnHbeDmI2OSARxGUilrsaanb2Seb6QfxpOsVzGXLL6RwRPES+UoBfF8s+twoM0LLtn90MSimsdvxgfwRdS6oeHV+PD0nNGXa9kIEH12mFAKqcxxIMVkCfXoQQF+33Hi1VUyCDkNQKSaDI40teQauYKXtTLnSGb7pCFeU3n0l0y9FkfqF2VWxDVkJ0T5tJIXEcAnS5rhDR1RBqZuQ0eUkQQPU0T1Xoli1ekPFjNcmhrmSGk77lVCh4kHDWeDMzcMGFQSYlrC3MHEugH9SipOw9Q0zlBS/wGMoc+ZY4sbqJRg1OKZQQrTsJFkMejtDdxCoFhuzXQcg97C+MM/cPuZtXGcmVRqQkZlQO2YXjf0LNwv9bhuqstrYjMZRwBgeTy1W7JedMTdlgAsDXHoLefQMxpJgKTN0XAJgT4npBgGX7LvyUCtYoBqWML0ZIBquJL1O1MygLSpZECWHcmA8LqS9YZllgwwEQORjYHWxdR+gtjJsr6njrNGfsUATzF00Su/77XitXek95py0UfovCgQhVjGLIzGCaOnAv5xo69CyckkDE73uOvSr7tUDaRBTowj2R3Q1z5nWUrm3CAkKpiZfKy5IQlJG2/J/AkkiwtwISy7lDRCLnGq76GfpYiCrcAwODLbl2TCcEMmzHbx0kPYaZhuUyrWspM0DeCYBTHM0Sp/W37kI3Ffs+NRbQhccAX89O4aDPJnGSkq6qzUDk56yJBhfyBnmPCKsNppxIqgRuNYemqHjNsZLDnwqlBzNPBIstppWSJObS35K3nSpIp6wLMJ2yuPhyUG/dXyrcuzTDrTbZroA4LfSfQx69yTV8NwDJkdJ9vtSdYblFRTK3o0NJNV0cOMBCNQTpbVpBgEkqiVJ02iVsYDuWTVT5RMuZq8Rl++JeBpVuGM9GrMOniS8VYz0kqRS/Z33S+5IKvjFcfsL1IdionXnkFaFj3qpjrgy6zSdFfJ2mno7SMdpmW8zwyGKj65fnAePQZ/ZA46uWYNAzgOqiMEwYdkVSYxH55y6GrklC5PdqWBfNEAD6eJdqOKnlR1wJ2vqHJJgMdgmuRdaAfMfPmKfouCRCUpo+7u/tc3t2RyNYYgZxFSs4U0nGCXLwlsrGIqXOG8ekAVCgoNFW2QJSPhQzq6gP5I1eSxQqEJp9z4ViM9VTjIAsX7gu4WwhVKRv4HQMrdvXxILipZ5KJPrMQgm2flHS5+aOybQWzglhaShIAfo3hQKQk9Sgi+N22iyH4o0bs8emYTilM/RBDZwxS49pKU0H/2lodXivXJ4nFb6QfwMIHiP5fo+O/V15v7IoCwECKKMmrhcDUMk4szB5xM6+RIUDZm7kDLxpo5cORqKoBgcX4W2BGOxSo79kSYsCtglDyKwrftFEti4J22R3hzh97c/XwlZLl6IiUbJgdfpGBiIwvEhaVpMHOkeTYkmws4QQwcGZrzcuRmgG4kmwug5DpauwDCztnaZSSqEqX4gkYuJtdpmTlKvCTJAM4SLwR0gye+ENAN+EFJ+l1J1Fe0nAB2oMOAvH6tMe4HajSmulLy6xLOMDh00LX8i1iXwgY1tGYWsqvpZ5c6ZdgAVLL0GzU6IjxC0QvLmujWLRn13HjrePRdIAVnmO6jnz2D5BSCvcASr14jyStLfBmoBVhg41VQqSjtpZcQRcVCCDzKmY5Hifkm6lE6hVSes9ZxMMTDlayaPpesNRV+YcC2Hb3H6C/TuIzBEAuRNLNwx7Qx0ZO/4/JrefwA+GkGfiYvBdFwqHGXWNl0OFMIjo81r91W9a0TRLRi0grnATsOh2OAk4LXG4+Pp6xyPZSWljIz5w7crU4JlQ8Aw1KMSYhcsobklAysiuOoIx+fVQsNlY/CwbDA5xQMbySnaCoZ9UJXMoMTSkaS66uIJFey5ZIhN3bvACbHvUY36E27cDTe6zvOQgeAyQum65A+tEjIUpgcifkQwMSguyVx6P1vDh4GvdFJ/0ih/wg6eU6MdyTTQUrOWWlFC1qSCx0zStVTjghFhvri4bijMjRfNSNPH7yqZUb2tGjLfQlxlgVhRxKJkrOlABRemDwjeyovcsashUYHmsKCASKuZF6pkDMj/LjOO1cHjqh5IDwLGnQMbTKpp0DNht4pR7d5ktWKZJIJyuGePVhObkUSQhzHfhFIjQq6k9Sj5Uz6xRyb/QaE2/HMWDpYocOskz1UfeRA2AKWJVKaFPA7EfyrVR2A4uHZR8/sxht8W97DfImp4opz7/gxGaGAU5/Bmekj5ugCnllGtW4i1SNaZ9xJgLi6+1msrZeZkTYgRY5cukUt/CwP/egZ9z51HF+76hlOV6CeqeHP1G6EkoF00cZaCNKlQ09wsFqqTC7oixy5rGdyGIMhbEtGGx/tNQV/9Q7bmIvTHTNvUROHnhkTQs8pmdBzgIpKOFDwWH8tj38oI9uCx82YmihmZi4ysihAUgpzCHop2OulbyZhinXShujId1L4wKI6KfwMLz64X6fwpSaPLF5Aql9r3k8MUzLLB5TMlHQy5Y49ogXIX0fyg5Jxt2K53DGpyJiSfqPIWB6hv6ATDHS5c0Bi0dl3iFiYNUOAdTM/cWtadeFCbBXrNAToG9ih76Vd5OnhsIHggduDiZ8FeHUHvJFJZoaCktkyIfwZDhYjZHtnB3l5QCZ2qzK/uFOGzmAKUQaj6/VFUr/IkufoBcw3PTT16xNOGFmcM6Yu5ClTF2K2XLFErrru7FNiosCwYyYKkqHqzitiJ4InWXfsSY7tDvjPCrsdwfhGyQeI6809k5yDeyaG/VjzKZlyM76f1O0jZp+3ywENZvNkVS560Q689i1XobDVsXcR5ZViuks2OFofwUOdL+JmwaFwgKgvuxNxM3axOwlCqQJPo+BLFJY5cRQThcL8SdX0awwiB4SKdERTLzdqfhX582RGVQVEETVOZ2IxnhTHfic3m5OSgXhGQ9PAbsEaOaIUdNMcQJgmahgJFz2apiDWbPWW1eELaxx9qMfV0GsH6scGorwE59mKXg4gBBqSIIAmNHR/JRmihgY/pIgassvIEDWktXOxSnnuiG252PpVsZaLxSFTrH1JbMUcYJIvwoFgZx86GfOR8DhktaUo6nhicciJ2GyvnHiABh2OWkiUHFQ6oD0VoFjuFRiqbK8jP2KkJDyxIxQLeyy04onPkCmWivwUCTLFYQiHTB5e0Fu6jxcV+c2mvUCaP2uwT9Io9d8//+34if25/heHlagaSFT5kN+GLKSQxcUzy4SodXpMPuqIPiSK7SLxc8ELkZPo/YfOSXvILifYg+4lb+3zXo5z/jtk/OP5qF/t80ngx//x59/9+uNv/+MPP/3xj3/59Zef/+uH8///h59/+eE/f/n5r3/6/fWf/vLj7/78w8f/+l8=);whiteSpace=wrap;fontSize=11;strokeColor=#a5a5a5;fillOpacity=100;fillColor=#ffffff;whiteSpace=wrap;spacing=0;" parent="zyCjnop6QbWn4T4vvVL7-62" vertex="1">
          <mxGeometry width="60" height="60" relative="1" as="geometry" />
        </mxCell>
        <mxCell id="zyCjnop6QbWn4T4vvVL7-66" value="" style="shape=stencil(UzV2Ls5ILEhVNTIoLinKz04tz0wpyVA1dlE1MsrMy0gtyiwBslSNXVWNndPyi1LTi/JL81Ig/IJEkEoQKze/DGRCBUQfUD0IGVRCuBZmepZgATeI4pzMPBTFeuaoys31TPAqN0ZXbohPOV6nABkIT6Rl5uRAwgBZHt3TQCFIgBm7AgA=);whiteSpace=wrap;fontSize=11;strokeColor=#a5a5a5;fillOpacity=100;fillColor=#ffffff;whiteSpace=wrap;spacing=0;" parent="zyCjnop6QbWn4T4vvVL7-62" vertex="1">
          <mxGeometry width="60" height="60" relative="1" as="geometry" />
        </mxCell>
        <mxCell id="zyCjnop6QbWn4T4vvVL7-67" value="" style="shape=stencil(lVXRdoIwDP0aXjk0KUWfnf6HZ+LkzIkHccO/n6xtWhLomW813nBvctskw83ttL/WGRS3vms/65/m0J8yfMsAmsup7pr+ecpwm+Hm2Hb1R9feLwf7+7ofkePpq/0evzDYvErnekyC4mEDZp2v/gI7Cz83lykcX4MrDl/H8Pd7Z9UokeAjhWccwEUwrxwGCGMcBgnjIg8kTEoo5uVEaKWSMpHa4CNKymQilacgkUCFIGFMQiSwblaQAjNoDsmKFGlRlGFYRcqZF2pCryjUxCrCadtneFeMVzulMa9mvFoYTv0n5tJlLTNzD0uvZRCeEbMhddyzwGxc1rwxodMEf7VFFbUdxNUAwnChQG1Ehllihhlmbg6/5saXF71Fbo1Jsoa3GIwpOauYAZrM41cv8Prptcy8Zsxa8MonwOvlXcbpdfjHzEMxTOhRRLzcXy36DNNpK4bzdPTTBVkWaphQmgiDeJmJuaepieENpeetFtOpoLaD+CqwZRMzM3P4/noewqo8Nuez3bTx/3y1PkN2LeP2Fw==);whiteSpace=wrap;fontSize=11;strokeColor=#a5a5a5;fillOpacity=100;fillColor=#ffffff;whiteSpace=wrap;spacing=0;" parent="zyCjnop6QbWn4T4vvVL7-62" vertex="1">
          <mxGeometry width="60" height="60" relative="1" as="geometry" />
        </mxCell>
        <mxCell id="zyCjnop6QbWn4T4vvVL7-68" value="" style="shape=stencil(lVnZctw4DPyaeVWJAMXjOcd/pDbOemodOzVxssnfR85IkNTNAe23OVoEiLMBnfTd9/tP3+5OMn5/vjz9d/f/+fPz/Unfn0TOj/d3l/Pz/OmkH0767svT5e7fy9OPx8/X798+vSBfPn19+vlywq/rc3F6eUTG39evEv5+/XiFPpwfD9BBj+BxyC48Ilz28H9+XK6aBHtgVWb5JdShXn/5JYbJC0YMkxaMGqYsGDWMOoqmRa9V0VBdNROpWUjNZCrI4cxNyTwEULIsz7SVzOs1fxs8OvCCd/LOLmbUBZyXK7bhFc9e73ILDpp7QWMeX8FpcL0xjaZMsCfK0RszZvWYwKnmjxmDQZM8f0wB1UyumsFyZ1NzAjVDQ00FNYO5ytR05aJxLH9MqpgBxTATSN0wahgno2Y8mCcebclqkhcjmUfIPHGtMDtFEygaO3IzyNWGgbDk6KrtTi66RY61sSG5gGSx22ySK0g2w5pkBbmhY2kMw9CwM9auQGHI9w2d21aQO1rZXuWqBY0YBuUqBmJ1k1Sh9NRjByJ0BrRT1mZ0OaBLp1DFowEK3d+ieb1/ofC2pFivXwbf7tEMsPySqThGTKtM6U9i3YJPlslurUAfZa+v7QLgNWjxz+6XA6wFCqai8ISmno6NtF8FjIvs0jEdhSaqATJAFXhTT5iQvUwBK8DWNbY+BIV28rjgrv29Bj1CIk4dK45DxCtBUdvxCrsS0saKUT75PT1W83bAM1exBZ3HYgs6ryc2Yy2dMKdjxpwmIsH8M7l8MkFOp2NO90kyBfaOdt9UMqGKHi2dIGpc/kbDTPZaA80yPkHms/2JAkxFNTpShUZDRWSvuTNrRfSPxYMJjQNWO6Q9Mb5NqFJ5paBQbIIslDiA218i9wDPdUL9xUNvjP3ouTZ6hNnGxx5PLu4dRwi44mo9AjbdxmqFpCo+vdSKcUWzsVbM+4LDmFYsTtWPLKVSXLEDaMVSXDGLlDpA9Um8VprqRoxoRQo/YvvWgmJDZ1OihcaljSqvcjPR+BGJnWYal0YvcjRDGQxjJxwyKRrIQBlTfofZFOU5x+UEuyc2yYUk48SxYZQw22Tncu7GnaXhHKitQRrOwbAQ1zm08hG/R+/i7raipTGCctqgc3qSa2P4BclxJOcItYKN+N2QTHUyook80oM8NIhXK+duAFsPdfdiDbinTED3aqc1KcK9vVsD7nOWgJw7RHJhoNVSxPzaYbbVks8iAs609sReMobtRMEjlNlTh9QK3XnCnc0OI4TZJGPZ7Uw4kfdUTPppUAypcWeU7LNkpEPBp8mBF8l+SONm2O+3jaArRFsDOaAQXQ5UN8rbssN/oYC00N5jvM5qMnasVhDuuvAI9iqS4Bub4FpFUBFx652CVRDeGBegSwh3CUWWI4K7inmQgRIj0hmxaW0mQhsF2psJLWdnDKxJJbi+ijAhSPCnUse184ftnd+X88PD9ZXh/n98Rzj/dH2/qB/+AA==);whiteSpace=wrap;fontSize=11;strokeColor=#a5a5a5;fillOpacity=100;fillColor=#ffffff;whiteSpace=wrap;spacing=0;" parent="zyCjnop6QbWn4T4vvVL7-62" vertex="1">
          <mxGeometry width="60" height="60" relative="1" as="geometry" />
        </mxCell>
        <mxCell id="zyCjnop6QbWn4T4vvVL7-69" value="" style="shape=stencil(hZNNEoIwDIVP020Hkhbs2p97OILSEcEpqHB7wULppA7swuO9foQmDPdNcX7mDKKmNfU9/+isLRgeGICuitzodqgYHhnur7XJb6Z+VZl9fp5H51g96vd4QmdzkHAcQxD1VoiBw084WXupK98u+Y7aY99+eRl7fOwCcgrEJBF14DyT0gP5iKjDySMcGJ1HrpKXxEJWhCxmxZHxD1kRMm6QJReEjLPi9SwCsiJkyVNCFhtcRbgi+NfJ3J/jCkJNeBL0q1a5adAtEmoadDvfns8Nb3htFLcmdyiWqb/qsrRL47+nWzJIdsPw+AU=);whiteSpace=wrap;fontSize=11;strokeColor=#a5a5a5;fillOpacity=100;fillColor=#ffffff;whiteSpace=wrap;spacing=0;" parent="zyCjnop6QbWn4T4vvVL7-62" vertex="1">
          <mxGeometry width="60" height="60" relative="1" as="geometry" />
        </mxCell>
        <mxCell id="zyCjnop6QbWn4T4vvVL7-70" value="" style="shape=stencil(lZNLEoIwDIZP0y1DE8Cy9nEPR1A6IjgFFW9vsRhLnKm6S9PvT9I0Ebjsqu25FBB3vWmP5U0XfSVwJQB0U5VG99YSuBa43LemPJj20hTufN6O5Gid2usYYXC6JI/SUQTx3TlARfB0bBxe62aOJxxPg7jkePYPngeLUZHi+Cz67mLcWyUJFpNAkiJ3ngGIySZm8mD8qmrAjzhIDH7JrOaZUVJUoNd/Zl6wzFSvlznwAWnMOmrxQEctnvCOqiAOHJehNngCSQPBPsCrAYhR8zZ4DP44h7lgcyiDeHgprPFeqL2ua7eP/j1fQOtyy4vrBw==);whiteSpace=wrap;fontSize=11;strokeColor=#a5a5a5;fillOpacity=100;fillColor=#ffffff;whiteSpace=wrap;spacing=0;" parent="zyCjnop6QbWn4T4vvVL7-62" vertex="1">
          <mxGeometry width="60" height="60" relative="1" as="geometry" />
        </mxCell>
        <mxCell id="zyCjnop6QbWn4T4vvVL7-71" value="" style="shape=stencil(lZTRkoIwDEW/pq8dSYDCs6v/4ay4dGTBqaj49wvbNjjJCLtvbbjJSW9DFW6v9eFSKdhce9edq4c99rXCDwVg27pyth9XCncKt6fOVV+uu7VHv78cJuW0+u7uU4XB52Gq8ykJNs8QMBp/A3sv/7w5r08oIQ0JMWL8fgChiJE8QgYkTRI0SJoVLqPmgpowaqYNo6IuGDULnQVqY9tXczBWeJI8W2wShTlzE0AaFI2WotH/2gN0tESYDqSRF1MwMgiy0bBCBj4QVHUml4xsxEjM3iGr897tkpGL2P3CMBbC7ZTqIGmW7zn7A1eemHudinE0i+O49q+Oi/k/P9mm8c/E63f+Lowh/6bg7gc=);whiteSpace=wrap;fontSize=11;strokeColor=#a5a5a5;fillOpacity=100;fillColor=#ffffff;whiteSpace=wrap;spacing=0;" parent="zyCjnop6QbWn4T4vvVL7-62" vertex="1">
          <mxGeometry width="60" height="60" relative="1" as="geometry" />
        </mxCell>
        <mxCell id="zyCjnop6QbWn4T4vvVL7-72" value="" style="shape=stencil(jZTbcoMgEIafhlsGFlS4TpP3yDSmOrUxY0xr375YkMMyxd5x+H8+WHaXiMOjO99bAuwxT+N7+9Vf5o6IFwLQ37p26mczIuJIxOE6Tu3bND5vFzu/n1flOvoYP9cTFuurONWrCdi3XeCa8t+Fk5W/Pier594gnYFvDjtfwCkYbZwC/JnOswiv4U4jvAZKXKmpwlwqUnKkCWSVkqV3ReRmh8wzssrIsPfm6ByBNI489Lfoa6TycfxniJR/Gs8usV10P0AqvSQwd+qf1JRp9BozaZVSgW/hClSfh8JrZJGrcSJ6RyEhjKbJUlFm5LpYAsztx+Q6KwKdkXER+ChE5OIPVzwnIy5KQ/Mb6H8rwGkIrFwAxoEjzXCkjabOyCIj15i8w0WvNdmK4xxeEzIa5VbU40LhJU3ODEKDvPbDYPtrvI8bqlmyzVgcfwA=);whiteSpace=wrap;fontSize=11;strokeColor=#a5a5a5;fillOpacity=100;fillColor=#ffffff;whiteSpace=wrap;spacing=0;" parent="zyCjnop6QbWn4T4vvVL7-62" vertex="1">
          <mxGeometry width="60" height="60" relative="1" as="geometry" />
        </mxCell>
        <mxCell id="zyCjnop6QbWn4T4vvVL7-73" value="" style="shape=stencil(lZTRkoIwDEW/pq9Mk4K1z67+h6MoHVlwKir+vWBLkHSU3bdSbjg3N6VCrS7F9pwLlJfG1af8bvdNIdSPQLRVkTvbdCuh1kKtDrXLj66+Vnv/fN72yn71W9/6L7S+Dkyy7ItQPvxGBgm+NjZeXtpqKs+mcpmYr3LF5fqrHLg8fZfvrs6bh1CwDHT5AKoIxBZJkwYNkiZgWkWaARx2UjPtKyJrTk4pSSJrCovIjKvJm2L+P3M16xiifheMyrs1jAkzKY9TJObggqgmShmGhEYu5TGQceawsbOJobUPRpEGS0aRG0UZGUVuFCWFPBrNZsh8LJhARMY/RBQPJ/tPROz37Rbjr3+wZelvjvf3/Krotvw1o9ZP);whiteSpace=wrap;fontSize=11;strokeColor=#a5a5a5;fillOpacity=100;fillColor=#ffffff;whiteSpace=wrap;spacing=0;" parent="zyCjnop6QbWn4T4vvVL7-62" vertex="1">
          <mxGeometry width="60" height="60" relative="1" as="geometry" />
        </mxCell>
        <mxCell id="zyCjnop6QbWn4T4vvVL7-74" value="" style="shape=stencil(hZXRdsIgDIafhltOSdoC1869h2fW2TNnPVU39/ZrBwQaJr1D/OFL/qRB4OZ63F06AdX1Ng4f3Xe/vx0FvgiA/nzsxv42rQRuBW4Ow9i9j8P9vHe/L7tZOa8+h6/5hoc716K08yGoftyGAqn/Nl6d/NSfU3kt66UcU/HbfXSXKy9vvFgFtXT66gFBIcFrgDQe8UDShHuQNKrMlYaRIewkZMPIIFtGbhkXZDnf1seVcoFxW0ZVFBlRg0vEVb5Kz7maccOJhCs5GYKvCdlmGesiWVNDKHYiknOfecYmo8IKlddXZfXV5GJ0WjOuFtznZsXnNuPyjm6zjlahKxKfFSNX/uanGTNuRbWDzJPnXEPVilxT5Jqssyr6SgLZUjZAGmRkS674HbvS0oaX2GQVzjraMmj8xAla7quG19fSMIpjo2HQbGo0ea7lmbocwXbZCisT2K4UsOYjyWY+ItUYlvHGlJCPYIZlQeIixKkd6mKMKHiL8eGF/3zMkMXIx7UqB7ny9E2L+Gwe+tPJvbrp//yZnbbcE43bXw==);whiteSpace=wrap;fontSize=11;strokeColor=#a5a5a5;fillOpacity=100;fillColor=#ffffff;whiteSpace=wrap;spacing=0;" parent="zyCjnop6QbWn4T4vvVL7-62" vertex="1">
          <mxGeometry width="60" height="60" relative="1" as="geometry" />
        </mxCell>
        <mxCell id="zyCjnop6QbWn4T4vvVL7-75" value="" style="group;html=1;" parent="zyCjnop6QbWn4T4vvVL7-1" vertex="1">
          <mxGeometry x="669" y="596.5" width="49" height="49" as="geometry" />
        </mxCell>
        <mxCell id="zyCjnop6QbWn4T4vvVL7-76" value="" style="shape=stencil(lZTdkoIwDIWfprdM2gCzXrvueziKS0cEp+IPb7+wLQ0NCHhXwil8OT2NwO0t318zoeBWm+qcPfWxzgV+C6V0mWdG1+1K4E7g9lSZ7NdU9/Jon6/7TtmtLtWj+8LL7tvIaNNtUtDYAkbp//OPVR/uxsql08dR7PQy3AAv5SSpl7hK4iU4krjKVySHvy10OYQkOaN+R5lySuL2mDHHpF2ek9zh5JOgfReek6k5pzemGYH3mN7eZsTdU5KEY09CknzSes6InDHhB55wROTnTb7gZMrYcS9kMkww9xw+agbCVmChEQjbmE0tBFhLkQXxaRAkgJh3uVesc5mpl+8UAXCi9zeKJKuySvJVWSX5+uHETBxf+RkPZ7PXLmjqnnRR2KE9fM+ndFuyEx53fw==);whiteSpace=wrap;fontSize=11;strokeColor=#ffffff;fillOpacity=100;fillColor=#434445;whiteSpace=wrap;spacing=0;" parent="zyCjnop6QbWn4T4vvVL7-75" vertex="1">
          <mxGeometry width="49" height="49" relative="1" as="geometry" />
        </mxCell>
        <mxCell id="zyCjnop6QbWn4T4vvVL7-77" value="" style="shape=stencil(lZLRDoMgDEW/hleiLS767Nx/mImTzKlB3fTvJwHUoG7xrZRze0spwbgt0oYT8NpO1k/+EVlXELwSAFEVXIpuiggmBOO8lvwh677K9LlJFamiV/1WFQat8wMaKRF4o04wm7hpvBTVCg+Qsp/4vZe6vG8EbBb4jsIbwDABBcPAzPiGwQ1jMowZ5sh5UVhnnKvCpjvrDBQd5+XJ6DC7I9pO9ByOEQ2O8dA+Ydyfwr9eQno5gzu/OwXLIuWiLPUeru/dxZtSemkx+QI=);whiteSpace=wrap;fontSize=11;strokeColor=#ffffff;fillOpacity=100;fillColor=#434445;whiteSpace=wrap;spacing=0;" parent="zyCjnop6QbWn4T4vvVL7-75" vertex="1">
          <mxGeometry width="49" height="49" relative="1" as="geometry" />
        </mxCell>
        <mxCell id="zyCjnop6QbWn4T4vvVL7-78" value="" style="shape=stencil(pZLREoIgEEW/hldGWNF8NvsPJzGZTB3Usr9PgsTAmmZ6Wy7n7i7LIkj7Ku84okE/yPbMb6IYKgR7RKloKi7FMEcIMgRp2Up+ku3YFPrc5YpU0aW9qgyT9jHAoTLR4K6FmOLoKRw0XotmhROGk3/wKDHCJr7D5D15aJr7sZcvqX04wvAZ98fi4MdR6jESYwgXA3EcwUQNwzA1jFFihplhwGNgewheZet4VV6aXyrb7qjzb7ayfTJs/+0c2DUqRV3rLVzfu2s3S3plIXsA);whiteSpace=wrap;fontSize=11;strokeColor=#ffffff;fillOpacity=100;fillColor=#434445;whiteSpace=wrap;spacing=0;" parent="zyCjnop6QbWn4T4vvVL7-75" vertex="1">
          <mxGeometry width="49" height="49" relative="1" as="geometry" />
        </mxCell>
        <mxCell id="zyCjnop6QbWn4T4vvVL7-79" value="" style="shape=stencil(lZLZDoMgEEW/hlfC6vJs2/8wFSupFYPa6t9XAi5BbePbMJw7dxgG0KQp0loAgppWq6f4yKwtAL0AQmRVCC3bMQL0CmiSKy0eWnVVZs91akgTvdTbVOitLmIQGxFBg03wKXGzeCmrFc4CGPzE75225bET8FmAPQXqiWMYjBxDZiZ2DN0wLsO5Y46cF8XkHMxVyaa7yTmEoee8PJl6zO6IthM9hwcI8mM8xtMbhv0x/GsGQ3YG9753DJZNymVZ2kVc3/ubN6bs1tLrFw==);whiteSpace=wrap;fontSize=11;strokeColor=#ffffff;fillOpacity=100;fillColor=#434445;whiteSpace=wrap;spacing=0;" parent="zyCjnop6QbWn4T4vvVL7-75" vertex="1">
          <mxGeometry width="49" height="49" relative="1" as="geometry" />
        </mxCell>
        <mxCell id="zyCjnop6QbWn4T4vvVL7-80" value="" style="shape=stencil(lZLdEoIgEIWfhltGWPy7NnsPJzWZTB3UsrdPAsXQdLpbD9/Zs+4sgqgtkiZD1Gk7Ud+yJ0+7AsEJUcqrIhO8GysEMYIor0V2FXVfpeq7SSQpq3v9kB0G5QsYJtJEnZcSKGD/I5wVXvJqgTMPe7v4pReqPdEGdzYQy+EMVDMMB5rRCmXY1QysGK3QqfOvZOOYkufh52Qz3ZTsY2Ylm18Gi9lc0Xqj/+HgaGETDwkOv7tbazgaZqf34S2MhbmjnJelOsPlu313o6RuFuI3);whiteSpace=wrap;fontSize=11;strokeColor=#ffffff;fillOpacity=100;fillColor=#434445;whiteSpace=wrap;spacing=0;" parent="zyCjnop6QbWn4T4vvVL7-75" vertex="1">
          <mxGeometry width="49" height="49" relative="1" as="geometry" />
        </mxCell>
        <mxCell id="zyCjnop6QbWn4T4vvVL7-81" value="" style="group;html=1;" parent="zyCjnop6QbWn4T4vvVL7-1" vertex="1">
          <mxGeometry x="752" y="693.5" width="112" height="106" as="geometry" />
        </mxCell>
        <mxCell id="zyCjnop6QbWn4T4vvVL7-82" value="" style="shape=stencil(pZLdDsIgDIWfpreEH6NyPed7LBkTIsLC8O/tBRujLNky9e709GtTwgFRDbrpFXA6xOCP6mraqEHsgHPjtAomJgWiBlF1PqhD8GfXYt03mczq5C95ww3n5Jas8hCndzQY2TzrPdLWuDk6GWIaZ2T9B/3dJSO6fCUtUDq9tgQZnUFfzZ9gKQlfTi8+uACTeP96Z6zF0Hz2xylJFiZM1A8=);whiteSpace=wrap;fontSize=11;strokeColor=#a5a5a5;fillOpacity=100;fillColor=#ffffff;whiteSpace=wrap;spacing=0;" parent="zyCjnop6QbWn4T4vvVL7-81" vertex="1">
          <mxGeometry width="112" height="106" relative="1" as="geometry" />
        </mxCell>
        <mxCell id="zyCjnop6QbWn4T4vvVL7-83" value="" style="shape=stencil(nZHLDoMgEEW/ZrZEGdB0be1/mIiF1IJB+vr7QmdRS1MTu7sczsxiLmAz625SwIs5eHdSN9MHDbgHzo3VypsQE2AL2AzOq6N3F9vTe+qSmdLZXdOGO81Jyeo0xIsHAVEz/gIH0kdjl3rJyg89ArGi59sjqLboyORvvRL/y2K3Jn9fZaOeHTGGdwGDGUfqb/mfFxYRlY3tEw==);whiteSpace=wrap;fontSize=11;strokeColor=#a5a5a5;fillOpacity=100;fillColor=#ffffff;whiteSpace=wrap;spacing=0;" parent="zyCjnop6QbWn4T4vvVL7-81" vertex="1">
          <mxGeometry width="112" height="106" relative="1" as="geometry" />
        </mxCell>
        <mxCell id="zyCjnop6QbWn4T4vvVL7-84" value="" style="shape=stencil(pZHbDsIgEES/Zl9J3QWbPtf6H01KhYjQULz9vSAm1nsa32aHMxuyA1SPqh0kYDEG77byqLuggFaAqK2SXoeogBqgundebrzb2y7PQ5vIpHbukDacco6XbJlCWJyzIRaMX411xo22UxxZ9YDHPM7BK0afceKs/AcX9A1/+cxcXNxO9R7/dcgo7iX02pjc4fT9ubRo5cKpuQA=);whiteSpace=wrap;fontSize=11;strokeColor=#a5a5a5;fillOpacity=100;fillColor=#ffffff;whiteSpace=wrap;spacing=0;" parent="zyCjnop6QbWn4T4vvVL7-81" vertex="1">
          <mxGeometry width="112" height="106" relative="1" as="geometry" />
        </mxCell>
        <mxCell id="zyCjnop6QbWn4T4vvVL7-85" value="" style="shape=stencil(pZHdDsIgDIWfprdkoyLues73WDImRISFMX/eXhATJ0bN4t3p6dem6QGsR9kOAmgxemcP4qw6LwG3QKkyUjjlgwJsAOveOrF3djJdqoc2klEd7SluuKQ5VpJNHKLF9WEgYXdjl3CtzAxfcVL9g68poV9wlh3zA68If8U5KT/j4dQl298+sxDPPxPEM4ReaZ0ynPfz0IKVAsfmBg==);whiteSpace=wrap;fontSize=11;strokeColor=#a5a5a5;fillOpacity=100;fillColor=#ffffff;whiteSpace=wrap;spacing=0;" parent="zyCjnop6QbWn4T4vvVL7-81" vertex="1">
          <mxGeometry width="112" height="106" relative="1" as="geometry" />
        </mxCell>
        <mxCell id="zyCjnop6QbWn4T4vvVL7-86" value="" style="shape=stencil(pZHLDsIgEEW/ZrYEGfGxrvU/mpQKEaGhVO3fF6SJFU2Txt3lcuaRuYBFJ6tWAKOdd/YqHqr2EvAEjCkjhVM+KMASsGisExdne1Ond1tFMqqbvccOz1S33ZNDLGJ0mIwjYS/jnHCtzAznG7L7C6eEL+CYL7OIh9mfOPJp3G+cr+v+dZmVeHaZIN4hNErrlOH8Pw8tWClwLEc=);whiteSpace=wrap;fontSize=11;strokeColor=#a5a5a5;fillOpacity=100;fillColor=#ffffff;whiteSpace=wrap;spacing=0;" parent="zyCjnop6QbWn4T4vvVL7-81" vertex="1">
          <mxGeometry width="112" height="106" relative="1" as="geometry" />
        </mxCell>
        <mxCell id="zyCjnop6QbWn4T4vvVL7-87" value="" style="shape=stencil(pVvLctw2EPwaXbeIATAAzo7zH65YjlRRJJcsJ87fh8qSANhNDpbOTaYbxGAePQ9w7/yHbw+fvt7fyfTt7fXlj/u/Hz+/Pdz5X+5EHp8f7l8f3+a/7vzHO//hy8vr/e+vL9+fP1///fXTO/L9rz9f/np/w4/ruiAX975Ipn+uD9x0Cf89+PUK/+376xXv6oK0LHCwYvohC8Zf/IKRiikLxhNmeeLcRfudnx6fe0EbfoGnSzyGS/mfcFADCDPS2lbJkgdwEIbgpuzOL3r7Wbi7ZMvi3YL1idva24WLkL1Xn/AVU8DeJ5Vgq3hCA+btqeDtCJe4iHebzk7CTwqD8O1RfayavOXtBLdlF7c4z0/CTwpjH5WD3nw7wW3ZfQIXOwk/KYx9VPJ3Scv628LDByuayCNPwk8Kg/CBVe23E9yWnaj8JPykMIOjrtxahYlL+jxKr9OWar2ulljJ1ucacVIdE5Jr56rrk2KdilwbxQQljE414Gb77QSfs60RZ3NiiSac8lnYqrjiWz5r7i8Vg/msYXzVypmccFIJtoqJV+23EzxMW9lRZ/OCCFqrxF8dM1YnaloTcMxQq0d/i3EpvZyEn1SDreQMmc4vpzvQWY41ShysqDrLisE8YyCYO0yrpQwldPhqKjUFVTKuYEnfHaYV+Q4EBTErYldMjUAiCEcxtfmXIxEWoXTl+k7MrZDq67YHHkj7uhqKazQAX0StXr3GQqi0vewSHfY73tsxN68Q2NcjU3UYIYwnTNvZTELR0b7gDnFCd/DkDh1m3VesaOzwSzSL3Yp2C1yNf1YQkJJUQ3QKAs8Vy29rbKw8YAqpHq04Rzgw5+y1IGTHFKvfIgcA+wAH2FQFRQpVTNE6UfRIFx7OExNG4VzGAKvpRF5ZBnEIUdgmEZ0eIQ6DYjQoZaAamUf7Bpx4xEgW9GjBWLBimE8MNpxdySjKYobspCPCUCQqVSTIKPWlq+ipHsaTP3jAHFWt4BDdO1dDEFFprOZbHSBXt2kKMolqztcwmogFGaDSbDMN7+xxODFyim6FI1cTkq4VRMMzj8IgcFpowSVgjyrJyMLbkN/yQ5cAqyMafqsKPK5muTL7gWzhas0Bk0Adncz2LmGrkqIpe8CjJuvt2oahy4NiljwOj+rtDMelR1V9o56GEcJ4wvh9E5LFo6lkElRQ0LqiCSpYM3SYJhY0rinY1KOUjVLAlrmr+drOlBdg32hX952nuLqC8zrkwaS4K4Z/0sF524p1X86C4BApkUMEzL4zxmwSlHZF0lEi2pSxJlTqmmeMnX09nTfvZF+hnVHTghRfMcc+rbQz6lp2dgaKVyovK2afJSYglZPw7CzKiljsnYTbdDskDuioFWppnezk1y2oFLm1CHfU6qhRpY5anZUVqKPO5WxHXSbk7Qy1QZmQkuaeG8ihTFYmjRnERDgVjBk5rBNCKsaRoODhMZOYdgbfZsFkDmmSoAdGSwkJ2zMbnqcNOHvz3RnenaN10AzgZHZsgj7mTPgEzUE2/Dd5GO+m0QDJjkqYPQYgoDiIDk/RoTQY8wVr566XObxC1nTqCnkOY3sY73fiA++6qaopfNctmG3LZM6KUaMIH420OxHaQCGSmDzSBlpEBdFIe+uyI/Z2VKvNK+gueStmdab+Jhk7+GKZfeifW3fuLqoXRdljST5UoTMJ1oFuwoqsw7TvIaxrDxpDmb7PcPPykuBy5t32FRrBB3eRBDdJl+B4LUP2EywpeKzs6IOWEJCNunsoD5gjt9ySMsJ3Rg4CgioWFV5oAkb1aIe5ddhB3/xEmkR7qsGj7tz+QHcXs+kpFLmDZsFRs9BKnC4YwZY8quswbXhnhwtlFpsJqV8ubsfpgDUK3acxF1bMfgrE2gvhOykQ2U0wV4dAuYVK7kDRgSoCQfFWV+2hGHRqSj1iSFRQZCy4dwafeVBBO4yM7q2re9F0f8aAHVusdKWMYccOX7Vp1lzdgsMaISYM4YJiZrRiMYTs+pc98E7TBFas268tU0J241qrw/h91YCQCUd4AzLsFtQiBsRUdLU2yj/u7SrmaDC5NTjCd25LgWEifUqikUbjOI+LZwfj3Yo1NikiNCKzBUUK1r10OrqnwZ15Bhl3EjmfGW+IzQIF7toQfMNtO4nJjr5z206Ojvf8A0fHrwjGjn7T9wtAGfhRgDMIQ7ea3EJ3BoNgbgfCKRVDLe12w7mMAppx6FCLJjxim+7K4A5vwo8cZKJURr2xOHTiDrPeaYvlxB0ear6jjFuQrT2VzaGgAbovCZqg+JWAt/1yd+dMO+MVGH0XsXMJNto53bAzmMbjeYnXPNxwDAohu1si+OBzRoKbl2878BPgwfeyO3CDKxhuz34IPvgoqlvQfucABBO4Qqe6V7DlMW8IR8OH+Y/2S44vj09P1x+C9P+Pv/yYH11/NeI//gs=);whiteSpace=wrap;fontSize=11;strokeColor=#a5a5a5;fillOpacity=100;fillColor=#ffffff;whiteSpace=wrap;spacing=0;" parent="zyCjnop6QbWn4T4vvVL7-81" vertex="1">
          <mxGeometry width="112" height="106" relative="1" as="geometry" />
        </mxCell>
        <mxCell id="zyCjnop6QbWn4T4vvVL7-88" value="" style="shape=stencil(pZLRDoIwDEW/Zq8La3HwjvgfRIYsIiMDFP9e5iaQQUiIb1132pu2l2DSllkjCARtp9VdvGTelQTPBEDWpdCyGyOCKcGkUFrctOrr3L6bzJAmeqin6TDYuggomiII3jaBnPJv4mLxStYLPGYU/sKjXRxp7HU/0juk4RH8tIev9+Lh117bPbJfgcOZxwcDOILRyDEwMdwxuGJwawUr1Zln00HQ0wVPla9U52Fx+6xjMDuokFVlDbj89x03pqxbMf0A);whiteSpace=wrap;fontSize=11;strokeColor=#a5a5a5;fillOpacity=100;fillColor=#ffffff;whiteSpace=wrap;spacing=0;" parent="zyCjnop6QbWn4T4vvVL7-81" vertex="1">
          <mxGeometry width="112" height="106" relative="1" as="geometry" />
        </mxCell>
        <mxCell id="zyCjnop6QbWn4T4vvVL7-89" value="" style="shape=stencil(jVfbdtsgEPwaveoIECA9p8l/5CROrVPXzlGcNvn74goWNGsubzIemF3YnYFOPXwcn98PnRw+ruvl1+Hv8no9dupHJ+VyPh7W5eq+OvXYqYe3y3r4uV4+z6/b7/fnG/L29fvy57bC1zbPTL24TZLD9zYgh/8/nzbwy+e6oQXBtYeLHX74koSYPEIGRK88RjGMIoyt8E7AK3rJmDUwizCSMAtgDpgcs/WRpcwamG3IMGGWwBwxrTnHGYLtpGTRSTiPfMa7E96Xgzb7YrC9KYWoTT9CiGEGhegwGKLt532QCSYEOfmV88x4LFQiCfMIzHPYjMgMvAGR49UhP+KNa0rCSOCNsSmGac04zhBsHyWLTrLzyGUMZ1zRBxXCaFYImlHQCKUxTK4RqliKXCEUHX9eIRxmYrwCeT2mWSGSVbMKkUSXVYhKxkwfkl3M6kNyGvmM4YwrJSGmmpDtwyR8DNPQkn5EzKwgDBeyCm+cEQUUD4YxO8zcwDynzKflvBNRKkUPN2WPcRNQVFjtOgx6jEFfZa0dEDneMaSa8ILDaJRQi/VDiFYhQ8uY0U+TuELVDtgtmCsh8nuM3TLc2WPsFnZ30Zbx7gxjXwqudIJoQ9vnaxbDtHdMH2pW1UWsLGEzdoqCPrEDMFp0UkI0iRehA9+IXpbEFDhRMHmW5b3lgokGwQtgZDIdbxUklwUtsKgFtQuGZT05MZu32B8OgzYfMa19eYeZ8eLdnvwl4cWrnO0LG2Si9nm4LG8QuonD8+s4PgRk3eYJ09wjyaqZLnHPAPAS7JKah2GfJL6Y7ZPEX7PZome7j/hEfFtOp+2Fmf6PT0o3tD1H1eM/);whiteSpace=wrap;fontSize=11;strokeColor=#a5a5a5;fillOpacity=100;fillColor=#ffffff;whiteSpace=wrap;spacing=0;" parent="zyCjnop6QbWn4T4vvVL7-81" vertex="1">
          <mxGeometry width="112" height="106" relative="1" as="geometry" />
        </mxCell>
        <mxCell id="zyCjnop6QbWn4T4vvVL7-90" value="" style="shape=stencil(pZLdDoIwDIWfZrcLa43ANeJ7EBmyiIyMH+HtZW4IDjQa79ruOz1pV4JRnScVJ+DVjZIXfhNpkxM8EABR5lyJZowIxgSjTCp+VrItU5NXiSZ1dJWd7tAbnQ8UtQi8wRQgfKRHAxeiXMABo/APTD/hSINXPKC7X7rvrf5L3Kf+e3y9FQc/tcpskU0CizOH93qwBJsqA0wDWgJXBG6vYOU6K9hT4fqC4xo6rvOouPWpYzDfTiaKwpze8t29tbFk7hTjOw==);whiteSpace=wrap;fontSize=11;strokeColor=#a5a5a5;fillOpacity=100;fillColor=#ffffff;whiteSpace=wrap;spacing=0;" parent="zyCjnop6QbWn4T4vvVL7-81" vertex="1">
          <mxGeometry width="112" height="106" relative="1" as="geometry" />
        </mxCell>
        <mxCell id="zyCjnop6QbWn4T4vvVL7-91" value="" style="shape=stencil(jZTdkoIwDIWfprdMmywFrl19D2fFhVlXnIo/+/aCLSkm08W7Er7knCSdKlydm+2pVqDPvet+6lu76xuFnwqgPTa1a/vhpHCtcLXvXP3tustx579P25EcT7/ddaxw93m2zMyYBPrPB6DI7DOw8fjXxXneUEIeEgzL0HcgpgwMEFMFBgUTIlBmHwvKJVOmyEw5Z8rV1OBM2TDliUkpF1nBlGNVIAaZcnSHgnm355hhxCRBuAOxkXTPbM9L18IGI0mjzObER5uWSkabwGxaYXNpQDEjribnA3rVRR1q/jMeYlK6FdedVQ06hRZXMX/VJeLNbok3YoIgfIHYRPoysO0Oh/hg7NvDwb838//8gRlC/nHC9QM=);whiteSpace=wrap;fontSize=11;strokeColor=#a5a5a5;fillOpacity=100;fillColor=#ffffff;whiteSpace=wrap;spacing=0;" parent="zyCjnop6QbWn4T4vvVL7-81" vertex="1">
          <mxGeometry width="112" height="106" relative="1" as="geometry" />
        </mxCell>
        <mxCell id="zyCjnop6QbWn4T4vvVL7-92" value="" style="shape=stencil(pZLRDoIwDEW/Zq8La6PAM+J/EBmyiIxMUPx7mZsMBiEa37rutDdtL8HkVmYNJxDcWiUv/CHytiR4IACiLrkS7RARTAkmhVT8rGRX5+bdZJrU0VXedYfe1IVAURdB8DQJCOjunTgavBL1BI8Yhb9wtokjjWY4i2n8Q3cW2WG+xOMtfLEZHz91ymySfQoszjw+6MESjIaWgZHZWwYXDK4vYaHrKth4FF8Z5rrj2ZyuGxfXTzsEzkWFqCpjwum/77ohZRyL6Qs=);whiteSpace=wrap;fontSize=11;strokeColor=#a5a5a5;fillOpacity=100;fillColor=#ffffff;whiteSpace=wrap;spacing=0;" parent="zyCjnop6QbWn4T4vvVL7-81" vertex="1">
          <mxGeometry width="112" height="106" relative="1" as="geometry" />
        </mxCell>
        <mxCell id="zyCjnop6QbWn4T4vvVL7-93" value="" style="shape=stencil(pZbbcoIwEIafhtsM2YUErq19D6diZWrVQW3t2zeUkJBdmsh4x+FbdvffA8lwddlvzk0G+eXanT6a73Z73Wf4kgG0x33TtVdzleE6w9Xu1DXv3el23A73501P9lefp6/+C/fBDipR9EaQ/wwPFIjy78HrgL/duoGXw3vMhbQGkljkd7DMSNh7haOTOxLC3qvSftV6PbTHSZDGZx0GWf0PQ/kUTAKh6U8MJEvOpgtKaCKAlwiZ7jgvfFgnRFGFgdYCI4oVrkoOL6I4ULxcgGudwCXFVQRHUpM4DrAU10/ikVQZHhdyDo+UCXBJC6Q6JrUI4nOgXAvIgPdTUIw9P5mCmkyBZx5aBBP+gdmmjZGAqwjM0ncD7dKvBBUAnETgGCACSBcjOia6f42FYp418SyZ9LWLDhmDD7WqJNLTQZgJlEhkLGoWqAoD1ZVt0ohEOiUR0N40FhUrTsk80+6EGc/1ksVFcPYvLcZkJ4ESiQzDJarCQA2zUCIsZyRC4rl0GwFYAZExON8WRKKSbpk6GWgRBjppZWDJ+EHTKYlSg2YsNPHsx9cXp2CeJfVM/UbkAUFW/CI4cXaZGPijG223nLaboouDn1wCr+bCHzZ37eEwnFWn7+nh1DwaDra4/gU=);whiteSpace=wrap;fontSize=11;strokeColor=#a5a5a5;fillOpacity=100;fillColor=#ffffff;whiteSpace=wrap;spacing=0;" parent="zyCjnop6QbWn4T4vvVL7-81" vertex="1">
          <mxGeometry width="112" height="106" relative="1" as="geometry" />
        </mxCell>
        <mxCell id="zyCjnop6QbWn4T4vvVL7-94" value="" style="shape=stencil(jVTLEoIwDPyaXjs04eUZ9T8cBemI4FR8/b1gS4upgLeQ7ma3aQLD7FruLjmD4Nqq5pQ/5KEtGa4ZgKzLXMm2ixhuGGZFo/Kjam71QX9fdj2yj87Nva/w1DxIeNSTIHjpRBLz9JPYangl6zF8xXEWvr8pXV5YQmIIgjCCJ1iMybzAYkKDQQ+DFgNzRr9tovE9bTMiNpGLRZvA40WbYOpMK6dEWQw9HikDUQ485XRomVUeMFPKifc0ripYjCDKzh16mH/v7BjC66RTDomyr0t7TV6ZjMRw29/z45v05jZcbI6bbWcyIibJxnSBW85CVpXe7fE5XeYupX8EuHkD);whiteSpace=wrap;fontSize=11;strokeColor=#a5a5a5;fillOpacity=100;fillColor=#ffffff;whiteSpace=wrap;spacing=0;" parent="zyCjnop6QbWn4T4vvVL7-81" vertex="1">
          <mxGeometry width="112" height="106" relative="1" as="geometry" />
        </mxCell>
        <mxCell id="zyCjnop6QbWn4T4vvVL7-95" value="" style="shape=stencil(pZLdDoIwDIWfprcNW5nMa8T3IGG4RWRkzL+3lzkSEQ3RcHd29rXp1gOU97rsFPCk984e1dVUXgPtgHPTauWMHxRQAZTX1qmDs+e2iueuDGRQJ3sJHW6xjgRuQxFP7tGQG0yfxj7ijWmnOCF7xxmKBZxhtgqXKJeGWQGn40O+w2Js9WPvDPkqfPlXPlb0Jz7b6CBeaahN08QwTe/n6RmsmDwqHg==);whiteSpace=wrap;fontSize=11;strokeColor=#a5a5a5;fillOpacity=100;fillColor=#ffffff;whiteSpace=wrap;spacing=0;" parent="zyCjnop6QbWn4T4vvVL7-81" vertex="1">
          <mxGeometry width="112" height="106" relative="1" as="geometry" />
        </mxCell>
        <mxCell id="zyCjnop6QbWn4T4vvVL7-96" value="" style="shape=stencil(nZbRdoMgDIafxluOJIhy3XXv0bPa6VlXe6zdurefDgSbWKy7Q/zjJyH5IcHNpdqdywTSS9c2H+V3ve+qBF8SgPpUlW3d9aMEtwluDk1bvrfN9bS3z+fdoBxGn83X8IWbjYNcqCEI0h87UYAo/iZerfzt2lq99AHGBUgSkd7AaQoBTgNMg14zgvFJciE0IxtGLggZGdcQLgoZ5Rr3PnBRIOEGjeeKjJCDJpDjK+ZktchVY+4Dl1CVy/zjPNMdVn4tIc854+Ys0xkj5wtkxcisthiXVlbOKkvd5/lYn6YtoP1a/ieHqHypwUg/ZmNpjXLpsjj/dSYv1v37Srm+bxW2VB2Vz+z36BOSRMQqTS/Ut17oKSTMjLmI8ZULXkOrzHinQa+JkjFlXNJVmDLfzGg39xokXOX+/yHXryZ0lWZkTcjMRyaaJ/1rEhGcExhZETJQJ5nkJZwVcQ8z/JRie0xXLGf2mHJlfI9nvFPSXE9cLpDpWZEz71zpA0TeD8IV4FAfj/YGMX1Prwz9lL1u4PYX);whiteSpace=wrap;fontSize=11;strokeColor=#a5a5a5;fillOpacity=100;fillColor=#ffffff;whiteSpace=wrap;spacing=0;" parent="zyCjnop6QbWn4T4vvVL7-81" vertex="1">
          <mxGeometry width="112" height="106" relative="1" as="geometry" />
        </mxCell>
        <mxCell id="zyCjnop6QbWn4T4vvVL7-97" value="" style="shape=stencil(lZHNDoMgEISfZq8EFmvwbO17mIiFlIJB+/f2hXKo5UDDbRi+nWx2gPerGhcJSNfNu4t86GlTwI+AqK2SXm9BAR+A97Pz8uzdzU7pvYyRjOrq7jHhmeaQkSYOIX0lQ7Sk+xinhBttdzjrSPuLM3Io4IKwChxpni6IKOCYp5fxpmp35HW7/ztkEN8SZm1M6nD/n5cWrFQ4H94=);whiteSpace=wrap;fontSize=11;strokeColor=#a5a5a5;fillOpacity=100;fillColor=#ffffff;whiteSpace=wrap;spacing=0;" parent="zyCjnop6QbWn4T4vvVL7-81" vertex="1">
          <mxGeometry width="112" height="106" relative="1" as="geometry" />
        </mxCell>
        <mxCell id="zyCjnop6QbWn4T4vvVL7-98" value="" style="shape=stencil(lZHdDoIwDIWfprfN1hEH14jvQcKQxbmRMfx5e5kjEYwhcnfafqdpekCUQ1f3CogNwbuLuusmdCCOQKRtp7wOkwJRgShb59XZu9E2qe7rSEZ1dbe44ZF8kiOPJmLP1Mjzd3lKsNF2AR8KzNYw4RYusdiBS4ZijRez/zfO52V/4hnSnmMI5R58+42T+ATQamNSfsv5d2BTK4Utqhc=);whiteSpace=wrap;fontSize=11;strokeColor=#a5a5a5;fillOpacity=100;fillColor=#ffffff;whiteSpace=wrap;spacing=0;" parent="zyCjnop6QbWn4T4vvVL7-81" vertex="1">
          <mxGeometry width="112" height="106" relative="1" as="geometry" />
        </mxCell>
        <mxCell id="zyCjnop6QbWn4T4vvVL7-99" value="" style="shape=stencil(nZTLssIgDEC/hq1TEgHv2sd/OFotY20drK+/txWITBjtHXcUTjiEkAqcn6v1qRRQnDvXHsqb3XaVwIUAsE1VOtv1I4FLgfNd68q9ay/N1n+f1gM5jI7tddjh7uM0TNQQBMXDTxgzmb4mVh7fXJznJQXoECBZRHEHYmaBAWIwMEjMX2CQGPnVjMyr4w7kRWbV8RxkRebUIZv/O3HUKbNMZ8yqwsk/37FhXkWZQFY4IMZkZp6vGskX4ukTs2ZmmVX3zSAxI+baNukzLCjj33DzFZfxhX7As2uQ9Dgli0gLwEtvYkmSAih2Day9+sG7NXe2rn1np+u8lfsp/xvA5RM=);whiteSpace=wrap;fontSize=11;strokeColor=#a5a5a5;fillOpacity=100;fillColor=#ffffff;whiteSpace=wrap;spacing=0;" parent="zyCjnop6QbWn4T4vvVL7-81" vertex="1">
          <mxGeometry width="112" height="106" relative="1" as="geometry" />
        </mxCell>
        <mxCell id="zyCjnop6QbWn4T4vvVL7-100" value="" style="group;html=1;" parent="zyCjnop6QbWn4T4vvVL7-1" vertex="1">
          <mxGeometry x="970" y="693.5" width="112" height="106" as="geometry" />
        </mxCell>
        <mxCell id="zyCjnop6QbWn4T4vvVL7-101" value="" style="shape=stencil(pZLdDsIgDIWfpreEH6NyPed7LBkTIsLC8O/tBRujLNky9e709GtTwgFRDbrpFXA6xOCP6mraqEHsgHPjtAomJgWiBlF1PqhD8GfXYt03mczq5C95ww3n5Jas8hCndzQY2TzrPdLWuDk6GWIaZ2T9B/3dJSO6fCUtUDq9tgQZnUFfzZ9gKQlfTi8+uACTeP96Z6zF0Hz2xylJFiZM1A8=);whiteSpace=wrap;overflow=block;html=1;fontSize=11;strokeColor=#a5a5a5;fillOpacity=100;fillColor=#ffffff;whiteSpace=wrap;fontSize=11;spacing=0;" parent="zyCjnop6QbWn4T4vvVL7-100" vertex="1">
          <mxGeometry width="112" height="106" relative="1" as="geometry" />
        </mxCell>
        <mxCell id="zyCjnop6QbWn4T4vvVL7-102" value="" style="shape=stencil(nZHLDoMgEEW/ZrZEGdB0be1/mIiF1IJB+vr7QmdRS1MTu7sczsxiLmAz625SwIs5eHdSN9MHDbgHzo3VypsQE2AL2AzOq6N3F9vTe+qSmdLZXdOGO81Jyeo0xIsHAVEz/gIH0kdjl3rJyg89ArGi59sjqLboyORvvRL/y2K3Jn9fZaOeHTGGdwGDGUfqb/mfFxYRlY3tEw==);whiteSpace=wrap;overflow=block;html=1;fontSize=11;strokeColor=#a5a5a5;fillOpacity=100;fillColor=#ffffff;whiteSpace=wrap;fontSize=11;spacing=0;" parent="zyCjnop6QbWn4T4vvVL7-100" vertex="1">
          <mxGeometry width="112" height="106" relative="1" as="geometry" />
        </mxCell>
        <mxCell id="zyCjnop6QbWn4T4vvVL7-103" value="" style="shape=stencil(pZHbDsIgEES/Zl9J3QWbPtf6H01KhYjQULz9vSAm1nsa32aHMxuyA1SPqh0kYDEG77byqLuggFaAqK2SXoeogBqgundebrzb2y7PQ5vIpHbukDacco6XbJlCWJyzIRaMX411xo22UxxZ9YDHPM7BK0afceKs/AcX9A1/+cxcXNxO9R7/dcgo7iX02pjc4fT9ubRo5cKpuQA=);whiteSpace=wrap;overflow=block;html=1;fontSize=11;strokeColor=#a5a5a5;fillOpacity=100;fillColor=#ffffff;whiteSpace=wrap;fontSize=11;spacing=0;" parent="zyCjnop6QbWn4T4vvVL7-100" vertex="1">
          <mxGeometry width="112" height="106" relative="1" as="geometry" />
        </mxCell>
        <mxCell id="zyCjnop6QbWn4T4vvVL7-104" value="" style="shape=stencil(pZHdDsIgDIWfprdkoyLues73WDImRISFMX/eXhATJ0bN4t3p6dem6QGsR9kOAmgxemcP4qw6LwG3QKkyUjjlgwJsAOveOrF3djJdqoc2klEd7SluuKQ5VpJNHKLF9WEgYXdjl3CtzAxfcVL9g68poV9wlh3zA68If8U5KT/j4dQl298+sxDPPxPEM4ReaZ0ynPfz0IKVAsfmBg==);whiteSpace=wrap;overflow=block;html=1;fontSize=11;strokeColor=#a5a5a5;fillOpacity=100;fillColor=#ffffff;whiteSpace=wrap;fontSize=11;spacing=0;" parent="zyCjnop6QbWn4T4vvVL7-100" vertex="1">
          <mxGeometry width="112" height="106" relative="1" as="geometry" />
        </mxCell>
        <mxCell id="zyCjnop6QbWn4T4vvVL7-105" value="" style="shape=stencil(pZHLDsIgEEW/ZrYEGfGxrvU/mpQKEaGhVO3fF6SJFU2Txt3lcuaRuYBFJ6tWAKOdd/YqHqr2EvAEjCkjhVM+KMASsGisExdne1Ond1tFMqqbvccOz1S33ZNDLGJ0mIwjYS/jnHCtzAznG7L7C6eEL+CYL7OIh9mfOPJp3G+cr+v+dZmVeHaZIN4hNErrlOH8Pw8tWClwLEc=);whiteSpace=wrap;overflow=block;html=1;fontSize=11;strokeColor=#a5a5a5;fillOpacity=100;fillColor=#ffffff;whiteSpace=wrap;fontSize=11;spacing=0;" parent="zyCjnop6QbWn4T4vvVL7-100" vertex="1">
          <mxGeometry width="112" height="106" relative="1" as="geometry" />
        </mxCell>
        <mxCell id="zyCjnop6QbWn4T4vvVL7-106" value="" style="shape=stencil(pVvLctw2EPwaXbeIATAAzo7zH65YjlRRJJcsJ87fh8qSANhNDpbOTaYbxGAePQ9w7/yHbw+fvt7fyfTt7fXlj/u/Hz+/Pdz5X+5EHp8f7l8f3+a/7vzHO//hy8vr/e+vL9+fP1///fXTO/L9rz9f/np/w4/ruiAX975Ipn+uD9x0Cf89+PUK/+376xXv6oK0LHCwYvohC8Zf/IKRiikLxhNmeeLcRfudnx6fe0EbfoGnSzyGS/mfcFADCDPS2lbJkgdwEIbgpuzOL3r7Wbi7ZMvi3YL1idva24WLkL1Xn/AVU8DeJ5Vgq3hCA+btqeDtCJe4iHebzk7CTwqD8O1RfayavOXtBLdlF7c4z0/CTwpjH5WD3nw7wW3ZfQIXOwk/KYx9VPJ3Scv628LDByuayCNPwk8Kg/CBVe23E9yWnaj8JPykMIOjrtxahYlL+jxKr9OWar2ulljJ1ucacVIdE5Jr56rrk2KdilwbxQQljE414Gb77QSfs60RZ3NiiSac8lnYqrjiWz5r7i8Vg/msYXzVypmccFIJtoqJV+23EzxMW9lRZ/OCCFqrxF8dM1YnaloTcMxQq0d/i3EpvZyEn1SDreQMmc4vpzvQWY41ShysqDrLisE8YyCYO0yrpQwldPhqKjUFVTKuYEnfHaYV+Q4EBTErYldMjUAiCEcxtfmXIxEWoXTl+k7MrZDq67YHHkj7uhqKazQAX0StXr3GQqi0vewSHfY73tsxN68Q2NcjU3UYIYwnTNvZTELR0b7gDnFCd/DkDh1m3VesaOzwSzSL3Yp2C1yNf1YQkJJUQ3QKAs8Vy29rbKw8YAqpHq04Rzgw5+y1IGTHFKvfIgcA+wAH2FQFRQpVTNE6UfRIFx7OExNG4VzGAKvpRF5ZBnEIUdgmEZ0eIQ6DYjQoZaAamUf7Bpx4xEgW9GjBWLBimE8MNpxdySjKYobspCPCUCQqVSTIKPWlq+ipHsaTP3jAHFWt4BDdO1dDEFFprOZbHSBXt2kKMolqztcwmogFGaDSbDMN7+xxODFyim6FI1cTkq4VRMMzj8IgcFpowSVgjyrJyMLbkN/yQ5cAqyMafqsKPK5muTL7gWzhas0Bk0Adncz2LmGrkqIpe8CjJuvt2oahy4NiljwOj+rtDMelR1V9o56GEcJ4wvh9E5LFo6lkElRQ0LqiCSpYM3SYJhY0rinY1KOUjVLAlrmr+drOlBdg32hX952nuLqC8zrkwaS4K4Z/0sF524p1X86C4BApkUMEzL4zxmwSlHZF0lEi2pSxJlTqmmeMnX09nTfvZF+hnVHTghRfMcc+rbQz6lp2dgaKVyovK2afJSYglZPw7CzKiljsnYTbdDskDuioFWppnezk1y2oFLm1CHfU6qhRpY5anZUVqKPO5WxHXSbk7Qy1QZmQkuaeG8ihTFYmjRnERDgVjBk5rBNCKsaRoODhMZOYdgbfZsFkDmmSoAdGSwkJ2zMbnqcNOHvz3RnenaN10AzgZHZsgj7mTPgEzUE2/Dd5GO+m0QDJjkqYPQYgoDiIDk/RoTQY8wVr566XObxC1nTqCnkOY3sY73fiA++6qaopfNctmG3LZM6KUaMIH420OxHaQCGSmDzSBlpEBdFIe+uyI/Z2VKvNK+gueStmdab+Jhk7+GKZfeifW3fuLqoXRdljST5UoTMJ1oFuwoqsw7TvIaxrDxpDmb7PcPPykuBy5t32FRrBB3eRBDdJl+B4LUP2EywpeKzs6IOWEJCNunsoD5gjt9ySMsJ3Rg4CgioWFV5oAkb1aIe5ddhB3/xEmkR7qsGj7tz+QHcXs+kpFLmDZsFRs9BKnC4YwZY8quswbXhnhwtlFpsJqV8ubsfpgDUK3acxF1bMfgrE2gvhOykQ2U0wV4dAuYVK7kDRgSoCQfFWV+2hGHRqSj1iSFRQZCy4dwafeVBBO4yM7q2re9F0f8aAHVusdKWMYccOX7Vp1lzdgsMaISYM4YJiZrRiMYTs+pc98E7TBFas268tU0J241qrw/h91YCQCUd4AzLsFtQiBsRUdLU2yj/u7SrmaDC5NTjCd25LgWEifUqikUbjOI+LZwfj3Yo1NikiNCKzBUUK1r10OrqnwZ15Bhl3EjmfGW+IzQIF7toQfMNtO4nJjr5z206Ojvf8A0fHrwjGjn7T9wtAGfhRgDMIQ7ea3EJ3BoNgbgfCKRVDLe12w7mMAppx6FCLJjxim+7K4A5vwo8cZKJURr2xOHTiDrPeaYvlxB0ear6jjFuQrT2VzaGgAbovCZqg+JWAt/1yd+dMO+MVGH0XsXMJNto53bAzmMbjeYnXPNxwDAohu1si+OBzRoKbl2878BPgwfeyO3CDKxhuz34IPvgoqlvQfucABBO4Qqe6V7DlMW8IR8OH+Y/2S44vj09P1x+C9P+Pv/yYH11/NeI//gs=);whiteSpace=wrap;overflow=block;html=1;fontSize=11;strokeColor=#a5a5a5;fillOpacity=100;fillColor=#ffffff;whiteSpace=wrap;fontSize=11;spacing=0;" parent="zyCjnop6QbWn4T4vvVL7-100" vertex="1">
          <mxGeometry width="112" height="106" relative="1" as="geometry" />
        </mxCell>
        <mxCell id="zyCjnop6QbWn4T4vvVL7-107" value="" style="shape=stencil(pZLRDoIwDEW/Zq8La3HwjvgfRIYsIiMDFP9e5iaQQUiIb1132pu2l2DSllkjCARtp9VdvGTelQTPBEDWpdCyGyOCKcGkUFrctOrr3L6bzJAmeqin6TDYuggomiII3jaBnPJv4mLxStYLPGYU/sKjXRxp7HU/0juk4RH8tIev9+Lh117bPbJfgcOZxwcDOILRyDEwMdwxuGJwawUr1Zln00HQ0wVPla9U52Fx+6xjMDuokFVlDbj89x03pqxbMf0A);whiteSpace=wrap;overflow=block;html=1;fontSize=11;strokeColor=#a5a5a5;fillOpacity=100;fillColor=#ffffff;whiteSpace=wrap;fontSize=11;spacing=0;" parent="zyCjnop6QbWn4T4vvVL7-100" vertex="1">
          <mxGeometry width="112" height="106" relative="1" as="geometry" />
        </mxCell>
        <mxCell id="zyCjnop6QbWn4T4vvVL7-108" value="" style="shape=stencil(jVfbdtsgEPwaveoIECA9p8l/5CROrVPXzlGcNvn74goWNGsubzIemF3YnYFOPXwcn98PnRw+ruvl1+Hv8no9dupHJ+VyPh7W5eq+OvXYqYe3y3r4uV4+z6/b7/fnG/L29fvy57bC1zbPTL24TZLD9zYgh/8/nzbwy+e6oQXBtYeLHX74koSYPEIGRK88RjGMIoyt8E7AK3rJmDUwizCSMAtgDpgcs/WRpcwamG3IMGGWwBwxrTnHGYLtpGTRSTiPfMa7E96Xgzb7YrC9KYWoTT9CiGEGhegwGKLt532QCSYEOfmV88x4LFQiCfMIzHPYjMgMvAGR49UhP+KNa0rCSOCNsSmGac04zhBsHyWLTrLzyGUMZ1zRBxXCaFYImlHQCKUxTK4RqliKXCEUHX9eIRxmYrwCeT2mWSGSVbMKkUSXVYhKxkwfkl3M6kNyGvmM4YwrJSGmmpDtwyR8DNPQkn5EzKwgDBeyCm+cEQUUD4YxO8zcwDynzKflvBNRKkUPN2WPcRNQVFjtOgx6jEFfZa0dEDneMaSa8ILDaJRQi/VDiFYhQ8uY0U+TuELVDtgtmCsh8nuM3TLc2WPsFnZ30Zbx7gxjXwqudIJoQ9vnaxbDtHdMH2pW1UWsLGEzdoqCPrEDMFp0UkI0iRehA9+IXpbEFDhRMHmW5b3lgokGwQtgZDIdbxUklwUtsKgFtQuGZT05MZu32B8OgzYfMa19eYeZ8eLdnvwl4cWrnO0LG2Si9nm4LG8QuonD8+s4PgRk3eYJ09wjyaqZLnHPAPAS7JKah2GfJL6Y7ZPEX7PZome7j/hEfFtOp+2Fmf6PT0o3tD1H1eM/);whiteSpace=wrap;overflow=block;html=1;fontSize=11;strokeColor=#a5a5a5;fillOpacity=100;fillColor=#ffffff;whiteSpace=wrap;fontSize=11;spacing=0;" parent="zyCjnop6QbWn4T4vvVL7-100" vertex="1">
          <mxGeometry width="112" height="106" relative="1" as="geometry" />
        </mxCell>
        <mxCell id="zyCjnop6QbWn4T4vvVL7-109" value="" style="shape=stencil(pZLdDoIwDIWfZrcLa43ANeJ7EBmyiIyMH+HtZW4IDjQa79ruOz1pV4JRnScVJ+DVjZIXfhNpkxM8EABR5lyJZowIxgSjTCp+VrItU5NXiSZ1dJWd7tAbnQ8UtQi8wRQgfKRHAxeiXMABo/APTD/hSINXPKC7X7rvrf5L3Kf+e3y9FQc/tcpskU0CizOH93qwBJsqA0wDWgJXBG6vYOU6K9hT4fqC4xo6rvOouPWpYzDfTiaKwpze8t29tbFk7hTjOw==);whiteSpace=wrap;overflow=block;html=1;fontSize=11;strokeColor=#a5a5a5;fillOpacity=100;fillColor=#ffffff;whiteSpace=wrap;fontSize=11;spacing=0;" parent="zyCjnop6QbWn4T4vvVL7-100" vertex="1">
          <mxGeometry width="112" height="106" relative="1" as="geometry" />
        </mxCell>
        <mxCell id="zyCjnop6QbWn4T4vvVL7-110" value="" style="shape=stencil(jZTdkoIwDIWfprdMmywFrl19D2fFhVlXnIo/+/aCLSkm08W7Er7knCSdKlydm+2pVqDPvet+6lu76xuFnwqgPTa1a/vhpHCtcLXvXP3tustx579P25EcT7/ddaxw93m2zMyYBPrPB6DI7DOw8fjXxXneUEIeEgzL0HcgpgwMEFMFBgUTIlBmHwvKJVOmyEw5Z8rV1OBM2TDliUkpF1nBlGNVIAaZcnSHgnm355hhxCRBuAOxkXTPbM9L18IGI0mjzObER5uWSkabwGxaYXNpQDEjribnA3rVRR1q/jMeYlK6FdedVQ06hRZXMX/VJeLNbok3YoIgfIHYRPoysO0Oh/hg7NvDwb838//8gRlC/nHC9QM=);whiteSpace=wrap;overflow=block;html=1;fontSize=11;strokeColor=#a5a5a5;fillOpacity=100;fillColor=#ffffff;whiteSpace=wrap;fontSize=11;spacing=0;" parent="zyCjnop6QbWn4T4vvVL7-100" vertex="1">
          <mxGeometry width="112" height="106" relative="1" as="geometry" />
        </mxCell>
        <mxCell id="zyCjnop6QbWn4T4vvVL7-111" value="" style="shape=stencil(pZLRDoIwDEW/Zq8La6PAM+J/EBmyiIxMUPx7mZsMBiEa37rutDdtL8HkVmYNJxDcWiUv/CHytiR4IACiLrkS7RARTAkmhVT8rGRX5+bdZJrU0VXedYfe1IVAURdB8DQJCOjunTgavBL1BI8Yhb9wtokjjWY4i2n8Q3cW2WG+xOMtfLEZHz91ymySfQoszjw+6MESjIaWgZHZWwYXDK4vYaHrKth4FF8Z5rrj2ZyuGxfXTzsEzkWFqCpjwum/77ohZRyL6Qs=);whiteSpace=wrap;overflow=block;html=1;fontSize=11;strokeColor=#a5a5a5;fillOpacity=100;fillColor=#ffffff;whiteSpace=wrap;fontSize=11;spacing=0;" parent="zyCjnop6QbWn4T4vvVL7-100" vertex="1">
          <mxGeometry width="112" height="106" relative="1" as="geometry" />
        </mxCell>
        <mxCell id="zyCjnop6QbWn4T4vvVL7-112" value="" style="shape=stencil(pZbbcoIwEIafhtsM2YUErq19D6diZWrVQW3t2zeUkJBdmsh4x+FbdvffA8lwddlvzk0G+eXanT6a73Z73Wf4kgG0x33TtVdzleE6w9Xu1DXv3el23A73501P9lefp6/+C/fBDipR9EaQ/wwPFIjy78HrgL/duoGXw3vMhbQGkljkd7DMSNh7haOTOxLC3qvSftV6PbTHSZDGZx0GWf0PQ/kUTAKh6U8MJEvOpgtKaCKAlwiZ7jgvfFgnRFGFgdYCI4oVrkoOL6I4ULxcgGudwCXFVQRHUpM4DrAU10/ikVQZHhdyDo+UCXBJC6Q6JrUI4nOgXAvIgPdTUIw9P5mCmkyBZx5aBBP+gdmmjZGAqwjM0ncD7dKvBBUAnETgGCACSBcjOia6f42FYp418SyZ9LWLDhmDD7WqJNLTQZgJlEhkLGoWqAoD1ZVt0ohEOiUR0N40FhUrTsk80+6EGc/1ksVFcPYvLcZkJ4ESiQzDJarCQA2zUCIsZyRC4rl0GwFYAZExON8WRKKSbpk6GWgRBjppZWDJ+EHTKYlSg2YsNPHsx9cXp2CeJfVM/UbkAUFW/CI4cXaZGPijG223nLaboouDn1wCr+bCHzZ37eEwnFWn7+nh1DwaDra4/gU=);whiteSpace=wrap;overflow=block;html=1;fontSize=11;strokeColor=#a5a5a5;fillOpacity=100;fillColor=#ffffff;whiteSpace=wrap;fontSize=11;spacing=0;" parent="zyCjnop6QbWn4T4vvVL7-100" vertex="1">
          <mxGeometry width="112" height="106" relative="1" as="geometry" />
        </mxCell>
        <mxCell id="zyCjnop6QbWn4T4vvVL7-113" value="" style="shape=stencil(jVTLEoIwDPyaXjs04eUZ9T8cBemI4FR8/b1gS4upgLeQ7ma3aQLD7FruLjmD4Nqq5pQ/5KEtGa4ZgKzLXMm2ixhuGGZFo/Kjam71QX9fdj2yj87Nva/w1DxIeNSTIHjpRBLz9JPYangl6zF8xXEWvr8pXV5YQmIIgjCCJ1iMybzAYkKDQQ+DFgNzRr9tovE9bTMiNpGLRZvA40WbYOpMK6dEWQw9HikDUQ485XRomVUeMFPKifc0ripYjCDKzh16mH/v7BjC66RTDomyr0t7TV6ZjMRw29/z45v05jZcbI6bbWcyIibJxnSBW85CVpXe7fE5XeYupX8EuHkD);whiteSpace=wrap;overflow=block;html=1;fontSize=11;strokeColor=#a5a5a5;fillOpacity=100;fillColor=#ffffff;whiteSpace=wrap;fontSize=11;spacing=0;" parent="zyCjnop6QbWn4T4vvVL7-100" vertex="1">
          <mxGeometry width="112" height="106" relative="1" as="geometry" />
        </mxCell>
        <mxCell id="zyCjnop6QbWn4T4vvVL7-114" value="" style="shape=stencil(pZLdDoIwDIWfprcNW5nMa8T3IGG4RWRkzL+3lzkSEQ3RcHd29rXp1gOU97rsFPCk984e1dVUXgPtgHPTauWMHxRQAZTX1qmDs+e2iueuDGRQJ3sJHW6xjgRuQxFP7tGQG0yfxj7ijWmnOCF7xxmKBZxhtgqXKJeGWQGn40O+w2Js9WPvDPkqfPlXPlb0Jz7b6CBeaahN08QwTe/n6RmsmDwqHg==);whiteSpace=wrap;overflow=block;html=1;fontSize=11;strokeColor=#a5a5a5;fillOpacity=100;fillColor=#ffffff;whiteSpace=wrap;fontSize=11;spacing=0;" parent="zyCjnop6QbWn4T4vvVL7-100" vertex="1">
          <mxGeometry width="112" height="106" relative="1" as="geometry" />
        </mxCell>
        <mxCell id="zyCjnop6QbWn4T4vvVL7-115" value="" style="shape=stencil(nZbRdoMgDIafxluOJIhy3XXv0bPa6VlXe6zdurefDgSbWKy7Q/zjJyH5IcHNpdqdywTSS9c2H+V3ve+qBF8SgPpUlW3d9aMEtwluDk1bvrfN9bS3z+fdoBxGn83X8IWbjYNcqCEI0h87UYAo/iZerfzt2lq99AHGBUgSkd7AaQoBTgNMg14zgvFJciE0IxtGLggZGdcQLgoZ5Rr3PnBRIOEGjeeKjJCDJpDjK+ZktchVY+4Dl1CVy/zjPNMdVn4tIc854+Ys0xkj5wtkxcisthiXVlbOKkvd5/lYn6YtoP1a/ieHqHypwUg/ZmNpjXLpsjj/dSYv1v37Srm+bxW2VB2Vz+z36BOSRMQqTS/Ut17oKSTMjLmI8ZULXkOrzHinQa+JkjFlXNJVmDLfzGg39xokXOX+/yHXryZ0lWZkTcjMRyaaJ/1rEhGcExhZETJQJ5nkJZwVcQ8z/JRie0xXLGf2mHJlfI9nvFPSXE9cLpDpWZEz71zpA0TeD8IV4FAfj/YGMX1Prwz9lL1u4PYX);whiteSpace=wrap;overflow=block;html=1;fontSize=11;strokeColor=#a5a5a5;fillOpacity=100;fillColor=#ffffff;whiteSpace=wrap;fontSize=11;spacing=0;" parent="zyCjnop6QbWn4T4vvVL7-100" vertex="1">
          <mxGeometry width="112" height="106" relative="1" as="geometry" />
        </mxCell>
        <mxCell id="zyCjnop6QbWn4T4vvVL7-116" value="" style="shape=stencil(lZHNDoMgEISfZq8EFmvwbO17mIiFlIJB+/f2hXKo5UDDbRi+nWx2gPerGhcJSNfNu4t86GlTwI+AqK2SXm9BAR+A97Pz8uzdzU7pvYyRjOrq7jHhmeaQkSYOIX0lQ7Sk+xinhBttdzjrSPuLM3Io4IKwChxpni6IKOCYp5fxpmp35HW7/ztkEN8SZm1M6nD/n5cWrFQ4H94=);whiteSpace=wrap;overflow=block;html=1;fontSize=11;strokeColor=#a5a5a5;fillOpacity=100;fillColor=#ffffff;whiteSpace=wrap;fontSize=11;spacing=0;" parent="zyCjnop6QbWn4T4vvVL7-100" vertex="1">
          <mxGeometry width="112" height="106" relative="1" as="geometry" />
        </mxCell>
        <mxCell id="zyCjnop6QbWn4T4vvVL7-117" value="" style="shape=stencil(lZHdDoIwDIWfprfN1hEH14jvQcKQxbmRMfx5e5kjEYwhcnfafqdpekCUQ1f3CogNwbuLuusmdCCOQKRtp7wOkwJRgShb59XZu9E2qe7rSEZ1dbe44ZF8kiOPJmLP1Mjzd3lKsNF2AR8KzNYw4RYusdiBS4ZijRez/zfO52V/4hnSnmMI5R58+42T+ATQamNSfsv5d2BTK4Utqhc=);whiteSpace=wrap;overflow=block;html=1;fontSize=11;strokeColor=#a5a5a5;fillOpacity=100;fillColor=#ffffff;whiteSpace=wrap;fontSize=11;spacing=0;" parent="zyCjnop6QbWn4T4vvVL7-100" vertex="1">
          <mxGeometry width="112" height="106" relative="1" as="geometry" />
        </mxCell>
        <mxCell id="zyCjnop6QbWn4T4vvVL7-118" value="" style="shape=stencil(nZTLssIgDEC/hq1TEgHv2sd/OFotY20drK+/txWITBjtHXcUTjiEkAqcn6v1qRRQnDvXHsqb3XaVwIUAsE1VOtv1I4FLgfNd68q9ay/N1n+f1gM5jI7tddjh7uM0TNQQBMXDTxgzmb4mVh7fXJznJQXoECBZRHEHYmaBAWIwMEjMX2CQGPnVjMyr4w7kRWbV8RxkRebUIZv/O3HUKbNMZ8yqwsk/37FhXkWZQFY4IMZkZp6vGskX4ukTs2ZmmVX3zSAxI+baNukzLCjj33DzFZfxhX7As2uQ9Dgli0gLwEtvYkmSAih2Day9+sG7NXe2rn1np+u8lfsp/xvA5RM=);whiteSpace=wrap;overflow=block;html=1;fontSize=11;strokeColor=#a5a5a5;fillOpacity=100;fillColor=#ffffff;whiteSpace=wrap;fontSize=11;spacing=0;" parent="zyCjnop6QbWn4T4vvVL7-100" vertex="1">
          <mxGeometry width="112" height="106" relative="1" as="geometry" />
        </mxCell>
      </root>
    </mxGraphModel>
  </diagram>
  <diagram id="ybUfuFw8ea-CHFbWOAjj" name="Logical Routing">
    <mxGraphModel dx="1422" dy="762" grid="1" gridSize="10" guides="1" tooltips="1" connect="1" arrows="1" fold="1" page="1" pageScale="1" pageWidth="1700" pageHeight="1100" math="0" shadow="0">
      <root>
        <mxCell id="7eDJe8UgWT6jdxHGijZa-0" />
        <mxCell id="7eDJe8UgWT6jdxHGijZa-1" parent="7eDJe8UgWT6jdxHGijZa-0" />
      </root>
    </mxGraphModel>
  </diagram>
  <diagram id="ZFJGx5IEj6D5jUuM39_Z" name="Tier-1 Services">
    <mxGraphModel dx="1422" dy="762" grid="1" gridSize="10" guides="1" tooltips="1" connect="1" arrows="1" fold="1" page="1" pageScale="1" pageWidth="1700" pageHeight="1100" math="0" shadow="0">
      <root>
        <mxCell id="0" />
        <mxCell id="1" parent="0" />
        <mxCell id="-IOmw9dpuARAz1iLvbC0-1" value="" style="group;html=1;" parent="1" vertex="1">
          <mxGeometry x="667" y="199" width="803" height="581" as="geometry" />
        </mxCell>
        <mxCell id="-IOmw9dpuARAz1iLvbC0-2" value="" style="shape=stencil(nZBLDoAgDERP0z3SIyjew0SURgSD+Lu9kMZoXLhwN9O+tukAlrNpJg1SzDH4QW/URgNYgZTkjA4UkwJUgGXng+6DX1zLfmoymdXo17xh5zmRJ6Q42BWCfc2oJfdAr+Yv+AP9Cb7OJ3H/2JG1HNGz/84klThPVCc=);whiteSpace=wrap;fontSize=11;strokeOpacity=0;fillOpacity=100;fillColor=#66b245;whiteSpace=wrap;spacing=0;rounded=1;absoluteArcSize=1;arcSize=1;" parent="-IOmw9dpuARAz1iLvbC0-1" vertex="1">
          <mxGeometry width="803" height="581" relative="1" as="geometry" />
        </mxCell>
        <mxCell id="-IOmw9dpuARAz1iLvbC0-3" value="" style="shape=stencil(UzV2Ls5ILEhVNTIoLinKz04tz0wpyVA1dlE1MsrMy0gtyiwBslSNXVWNndPyi1LTi/JL81Ig/IJEkEoQKze/DGRCBUSfoZ4pSI+RQSWEb2wO5rpB1OZk5iGpNaVIsQGUj1U1RYpRnQFkIDyblpmTAwkrZHn0wAEKQQLW2BUA);whiteSpace=wrap;fontSize=11;strokeOpacity=0;fillOpacity=0;fillColor=#000000;whiteSpace=wrap;spacing=0;rounded=1;absoluteArcSize=1;arcSize=1;" parent="-IOmw9dpuARAz1iLvbC0-1" vertex="1">
          <mxGeometry width="803" height="581" relative="1" as="geometry" />
        </mxCell>
        <mxCell id="-IOmw9dpuARAz1iLvbC0-4" value="Global Routing Table" style="strokeColor=none;fillColor=none;overflow=visible;whiteSpace=wrap;fontSize=16;fontFamily=Carlito;fontColor=#FFFFFF;align=left;whiteSpace=wrap;spacing=0;strokeOpacity=0;fillOpacity=0;rounded=1;absoluteArcSize=1;arcSize=1;whiteSpace=wrap;" parent="-IOmw9dpuARAz1iLvbC0-1" vertex="1">
          <mxGeometry x="0.015" y="0.01" width="401.5" height="209.16" relative="1" as="geometry" />
        </mxCell>
        <mxCell id="-IOmw9dpuARAz1iLvbC0-5" value="" style="group;dropTarget=0;" parent="1" vertex="1">
          <mxGeometry x="274" y="12" width="393" height="271" as="geometry" />
        </mxCell>
        <mxCell id="-IOmw9dpuARAz1iLvbC0-6" value="" style="group;html=1;" parent="-IOmw9dpuARAz1iLvbC0-5" vertex="1">
          <mxGeometry width="393" height="271" as="geometry" />
        </mxCell>
        <mxCell id="-IOmw9dpuARAz1iLvbC0-7" value="" style="shape=stencil(nZBLDoAgDERP0z3SIyjew0SURgSD+Lu9kMZoXLhwN9O+tukAlrNpJg1SzDH4QW/URgNYgZTkjA4UkwJUgGXng+6DX1zLfmoymdXo17xh5zmRJ6Q42BWCfc2oJfdAr+Yv+AP9Cb7OJ3H/2JG1HNGz/84klThPVCc=);whiteSpace=wrap;overflow=block;html=1;fontSize=11;strokeOpacity=0;fillOpacity=100;fillColor=#cbdfd3;whiteSpace=wrap;fontSize=11;spacing=0;rounded=1;absoluteArcSize=1;arcSize=1;" parent="-IOmw9dpuARAz1iLvbC0-6" vertex="1">
          <mxGeometry width="393" height="271" relative="1" as="geometry" />
        </mxCell>
        <mxCell id="-IOmw9dpuARAz1iLvbC0-8" value="" style="shape=stencil(UzV2Ls5ILEhVNTIoLinKz04tz0wpyVA1dlE1MsrMy0gtyiwBslSNXVWNndPyi1LTi/JL81Ig/IJEkEoQKze/DGRCBUSfsZ4RSI+RQSWEb26hZwwWcIOozsnMQ1JtYgiVJVO5kZ45btXoTiFJMbpDgAyEl9Myc3IgIYYsjx5EQCFI8Bq7AgA=);whiteSpace=wrap;overflow=block;html=1;fontSize=11;strokeOpacity=0;fillOpacity=0;fillColor=#000000;whiteSpace=wrap;fontSize=11;spacing=0;rounded=1;absoluteArcSize=1;arcSize=1;" parent="-IOmw9dpuARAz1iLvbC0-6" vertex="1">
          <mxGeometry width="393" height="271" relative="1" as="geometry" />
        </mxCell>
        <mxCell id="-IOmw9dpuARAz1iLvbC0-9" value="&lt;div style=&quot;display: flex; justify-content: flex-start; text-align: left; align-items: baseline; font-size: 0; line-height: 1;&quot;&gt;&lt;span style=&quot;font-size:11px;&quot;&gt;&lt;span style=&quot;font-size:10px;color:#231f20;font-family: Carlito;&quot;&gt;Hypervisor Clusters&#xa;&lt;/span&gt;&lt;/span&gt;&lt;/div&gt;&lt;div style=&quot;display: flex; justify-content: flex-start; text-align: left; align-items: baseline; font-size: 0; line-height: 1;&quot;&gt;&lt;span style=&quot;font-size:11px;&quot;&gt;&lt;span style=&quot;font-size:10px;color:#231f20;font-family: Carlito;&quot;&gt;&#xa;&lt;/span&gt;&lt;/span&gt;&lt;/div&gt;&lt;div style=&quot;display: flex; justify-content: flex-start; text-align: left; align-items: baseline; font-size: 0; line-height: 1;&quot;&gt;&lt;span style=&quot;font-size:11px;&quot;&gt;&lt;span style=&quot;font-size:10px;color:#231f20;font-family: Carlito;&quot;&gt;Host-prepared compute&#xa;&lt;/span&gt;&lt;/span&gt;&lt;/div&gt;&lt;div style=&quot;display: flex; justify-content: flex-start; text-align: left; align-items: baseline; font-size: 0; line-height: 1;&quot;&gt;&lt;span style=&quot;font-size:11px;&quot;&gt;&lt;span style=&quot;font-size:10px;color:#231f20;font-family: Carlito;&quot;&gt;&#xa;&lt;/span&gt;&lt;/span&gt;&lt;/div&gt;&lt;div style=&quot;display: flex; justify-content: flex-start; text-align: left; align-items: baseline; font-size: 0; line-height: 1;&quot;&gt;&lt;span style=&quot;font-size:11px;&quot;&gt;&lt;span style=&quot;font-size:10px;color:#231f20;font-family: Carlito;&quot;&gt;Running Services:&#xa;&lt;/span&gt;&lt;/span&gt;&lt;/div&gt;&lt;div style=&quot;display: flex; justify-content: flex-start; text-align: left; align-items: baseline; font-size: 0; line-height: 1;&quot;&gt;&lt;span style=&quot;font-size:11px;&quot;&gt;&lt;span style=&quot;font-size:10px;color:#231f20;font-family: Carlito;&quot;&gt;VTEP to Tier-1&#xa;&lt;/span&gt;&lt;/span&gt;&lt;/div&gt;&lt;div style=&quot;display: flex; justify-content: flex-start; text-align: left; align-items: baseline; font-size: 0; line-height: 1;&quot;&gt;&lt;span style=&quot;font-size:11px;&quot;&gt;&lt;span style=&quot;font-size:10px;color:#231f20;font-family: Carlito;&quot;&gt;GENEVE tagging for CNI&#xa;&lt;/span&gt;&lt;/span&gt;&lt;/div&gt;&lt;div style=&quot;display: flex; justify-content: flex-start; text-align: left; align-items: baseline; font-size: 0; line-height: 1;&quot;&gt;&lt;span style=&quot;font-size:11px;&quot;&gt;&lt;span style=&quot;font-size:10px;color:#231f20;font-family: Carlito;&quot;&gt;Distributed Router for Next-Hop Forwarding&#xa;&lt;/span&gt;&lt;/span&gt;&lt;/div&gt;&lt;div style=&quot;display: flex; justify-content: center; text-align: center; align-items: baseline; font-size: 0; line-height: 1;&quot;&gt;&lt;span style=&quot;font-size:11px;&quot;&gt;&lt;/span&gt;&lt;/div&gt;" style="strokeColor=none;fillColor=none;overflow=visible;whiteSpace=wrap;html=1;fontSize=11;whiteSpace=wrap;fontSize=11;spacing=0;strokeOpacity=0;fillOpacity=0;rounded=1;absoluteArcSize=1;arcSize=1;whiteSpace=wrap;fontSize=11;" parent="-IOmw9dpuARAz1iLvbC0-6" vertex="1">
          <mxGeometry x="0.032" y="0.034" width="149.733" height="202.708" relative="1" as="geometry" />
        </mxCell>
        <mxCell id="-IOmw9dpuARAz1iLvbC0-10" value="" style="group;html=1;" parent="-IOmw9dpuARAz1iLvbC0-5" vertex="1">
          <mxGeometry x="237" y="35" width="30" height="30" as="geometry" />
        </mxCell>
        <mxCell id="-IOmw9dpuARAz1iLvbC0-11" value="" style="shape=stencil(pZTdcoMgEIWfhltGdsGf6zR9j0xjKlOrGWLa9O2rw7IiNXbS3uHhg7PLritwd2kO51pAdhlc/1Z/2uPQCHwSALZrameHcSVwL3B36l396vprd/Tf58NETqv3/mO64ebPaSPNdAiyLy+UFQnPHm9tF+OlhP/gKpN6A0+D+QWvaDfgKIuYfrk6n6qi7VyWxAclCDfwAswRkFIRgBRRwRmlyh3Xig8o9oClq2YEOFK19A2psS0/7erTYMGp/g03m2U1Ml/gJnvgbqO37v6JKxLWcX6XdTqthk6rkaMMJYa0YCQUmtvkbheUsO0bNVboC7W0jbozBJJzo4Sizx2PzOADP1T6u46LeTKcbNv6wRLvp5NklPwUwv03);whiteSpace=wrap;overflow=block;html=1;fontSize=11;strokeOpacity=0;fillOpacity=0;fillColor=#000000;whiteSpace=wrap;fontSize=11;spacing=0;" parent="-IOmw9dpuARAz1iLvbC0-10" vertex="1">
          <mxGeometry width="30" height="30" relative="1" as="geometry" />
        </mxCell>
        <mxCell id="-IOmw9dpuARAz1iLvbC0-12" value="" style="shape=stencil(nZTdcoMgEIWfhlsGWEG8TpP3yCSmMrWaMaY1bx8sPwKNpOkdHj84cnZdBJtLsz/XiJHLOPQf9bc6jg2CN8SY6pp6UKNeIdgi2Jz6oX4f+mt3NM/n/UzOq8/+az5hMvsEw2zexMjNCJxi+SPsDN6qLosXmK/j+m0R4+SFswueO/s3Lq3wEK8Ehix+uA4mGGo3cBsEuVkFBKZGmZhliGeswrj7qgmMIplnrELLvHPpMvXOVWwrwF/dKuA8nCsnWMSugMtsoXiUDiW2co9x6u/0L1xWT7qGv4IvV01KvZJvEB/1O1gccVADV2uKntTVK2sdRdKO0i4y9g26bil2FTsHrQxJwH/8aRNcL5b5cFJta8ZL+D6dJ1oyswi2dw==);whiteSpace=wrap;overflow=block;html=1;fontSize=11;strokeOpacity=0;fillOpacity=0;fillColor=#000000;whiteSpace=wrap;fontSize=11;spacing=0;" parent="-IOmw9dpuARAz1iLvbC0-10" vertex="1">
          <mxGeometry width="30" height="30" relative="1" as="geometry" />
        </mxCell>
        <mxCell id="-IOmw9dpuARAz1iLvbC0-13" value="" style="shape=stencil(pVbLcsIwDPyaXD2OnZfPFP6DKaFkSgkTQhv+vkltybacF/QWxNoraVdKIrm5nfbXMhL81jb1Z/lTHdpTJN8iIarLqWyqtn+K5DaSm2PdlB9Nfb8c9O/rfkAOT1/193BDp88liiXDIcEfOiBZ/vd7p9Hn6uKiU5Z66Jib4+Pwgon/wAtl6NYlswCnlaqMSRf+fm90Z2LTiYwV5kCMJ0yCndARYXMwERUbhDQl51iUiRTC3DvBq/CACeQJJAK0CUJMIJNM+bygI9KmsU/rd0fmWOxr8GRBqsyH8yfuRqFXwsFG43DsyziaqpFQNXpbgMSCCmZdAT6ZdAFGJngdZ4EvfFbHnhBBm8jA8sQVu7FdkHKiEkHTFHvT0d5Qo+ZJMB9+ijgMqxujOB1Lp91Akga9sapJMv7IPG+cTJDt9Cx81sX9/PjbaW5Cgrvnpy+Ez86205hxeKBIShVx1pEIVLPWIHYNvbC0Kh17QS5kNh2PCiyPDKfje+qNKa2eefFg+16Ez780g2QW4AszTjeCh/UsGSwsgQ6OXThKAXcJigcdACA98gk67nPlOdTVBfcDY8x5RIQnq4fPUloOYLU3Ugp0uc1LUsiqOi086HMXcDz8Vk/V6RH2D/bj8Fidz/rb0v2ffkz2If0hKre/);whiteSpace=wrap;overflow=block;html=1;fontSize=11;strokeOpacity=0;fillOpacity=100;fillColor=#434445;whiteSpace=wrap;fontSize=11;spacing=0;" parent="-IOmw9dpuARAz1iLvbC0-10" vertex="1">
          <mxGeometry width="30" height="30" relative="1" as="geometry" />
        </mxCell>
        <mxCell id="-IOmw9dpuARAz1iLvbC0-14" value="" style="group;html=1;" parent="-IOmw9dpuARAz1iLvbC0-5" vertex="1">
          <mxGeometry x="267" y="34" width="65" height="35" as="geometry" />
        </mxCell>
        <mxCell id="-IOmw9dpuARAz1iLvbC0-15" value="" style="shape=stencil(lVXbdoIwEPyavObkIk14tvY/PBUrp1Y8iK3+faG5LJkI2DdYJszu7OyG6fXlsD1XTIlL1zaf1U+96w5MvzKl6tOhauuuf2J6w/R637TVR9tcTzv3ft4OyOHpq/ke/nBz56zhejikxN0FCq7+3t8c+v3aOrh0n0vh0TKFi5vyAMULD/GRyHDTHrKKnD4iBTezrC9cprxyFSKRmCrxEWm5BWaDzErzcsx8rE8jdUpUx4REphKlAz5iZaYQFeMjtvBJzEhkSx+ZYibdKWKAWaS8PQvw2kygiHkokIwc98dwTFOCf0YpRLuAf0Z16GA68z9xQpOpKwXSUiEqNg58q5AW3ZBqg9Kg1TBJwgetyL8K6wgWpzGY0mZptgz6huZVQc8UzrzOXKBTyENhlnZOuqEyi4m5agoUUaS1QClRnFiLSAuZ3w8iSWxpOYD1o2ljcgV6UArBFpQOkOeUBnS2RFa4vigDTCnOSYlzQpCn5oTgz80J4WXWRJXVkfZ9es/NqDjvwP6BLtd9fTy6u3n8HS/jPuQucr35BQ==);whiteSpace=wrap;overflow=block;html=1;fontSize=11;strokeOpacity=0;fillOpacity=100;fillColor=#434445;whiteSpace=wrap;fontSize=11;spacing=0;" parent="-IOmw9dpuARAz1iLvbC0-14" vertex="1">
          <mxGeometry width="65" height="35" relative="1" as="geometry" />
        </mxCell>
        <mxCell id="-IOmw9dpuARAz1iLvbC0-16" value="" style="shape=stencil(jVXLcsIwDPyaXD22lJfPtP0PpoSSKSVMgJb+fZNash05gdzMsoqk1VrOcHM5bM9NBvpy7bvP5qfdXQ8ZvmQA7enQ9O11OGX4muFm3/XNR9/dTjv3+7wdmePpq/sev3B3cXWpzBgE+tcBJlf4D7w5+vutd3xDAZWyFGBEhL4DcawqiEOIKVRJHHSI1aoiDiGGv7yQ2RqZGTQXz5ktcB7ODOg5mHAIgVLlceZje4okivgOqJCApUJDACFVyaX7QkMzhFTWcxYlqkHBw+EE4RnJqbUwnEpmrgvOw5kjV6DgzEpk0H9zni4LNeATmKQI9oyWLoqaYYnYeqsVknkj2XkQnMRPppSTCRSct8RUnkCf95ssMvDZ6CiNHvpgn+vE51KbZxcsEpyRcG0hGRwj4fpj4gYUnFl5nu6g6cpKzGYpfHHk9bQrK8XM/T3jnpKJ5/IqPt4Zgb5uZQQ+Fz0z8Xpa5LAeRJGp8J6zTnhJn1nBILTUyWYrvO8g6QUTzqoLFPHX3aAowCQjhaQZkMZY3IPCa0/WoGAPh/AO79vj0T3j8f/y3R4g9+bj6x8=);whiteSpace=wrap;overflow=block;html=1;fontSize=11;strokeOpacity=0;fillOpacity=100;fillColor=#434445;whiteSpace=wrap;fontSize=11;spacing=0;" parent="-IOmw9dpuARAz1iLvbC0-14" vertex="1">
          <mxGeometry width="65" height="35" relative="1" as="geometry" />
        </mxCell>
        <mxCell id="-IOmw9dpuARAz1iLvbC0-17" value="" style="shape=stencil(pdTdDoIgFADgp+GW6eGnujZ7DzcxWSYO7e/tk9BVuM6G3R0OHwwOegjL+rroFIGkH6w5qZsuh5qwPQHQba2sHsaIsJywrDJWHa25tKUfd4WTLjqbq9vh7teBoDu3CJKHT/CEslfi4HmjW4wLoBLhsB7LhMJvnMrgIJFciBiMnjuF/3hkxUP+/Z7pPDtzJih21ZCLDeUI59PsSi7xyiw4cnLg01brMP4lhhy/JmyjqrLgkU8U8jF4/92VbhrfHD7nw24wpnwnYfkT);whiteSpace=wrap;overflow=block;html=1;fontSize=11;strokeOpacity=0;fillOpacity=100;fillColor=#434445;whiteSpace=wrap;fontSize=11;spacing=0;" parent="-IOmw9dpuARAz1iLvbC0-14" vertex="1">
          <mxGeometry width="65" height="35" relative="1" as="geometry" />
        </mxCell>
        <mxCell id="-IOmw9dpuARAz1iLvbC0-18" value="" style="shape=stencil(pdTNDoMgDADgp+HaEErRnZ17DxN1kjkx6P7efhpcNnUjYd5q+TC0aBkmXZW1BRO86605FTed9xXDPRNCN1VhdT9EDFOGSWlscbTm0uTuuc1GOUZncx3fcHf7pAIcNwn+mBJ8Shwcr3Xj4yRAebgA2sIVB/GbYwRyCycKwd6TIwb1ZcUDu77k8ztFDtGMI4Gv1CWnV+3fuYR4C1f+zqy45+SS/qb+75ACCpQx7LbwwMtZ8iF4/9ulrms3Gj7Xl7NgSLk5gukT);whiteSpace=wrap;overflow=block;html=1;fontSize=11;strokeOpacity=0;fillOpacity=100;fillColor=#434445;whiteSpace=wrap;fontSize=11;spacing=0;" parent="-IOmw9dpuARAz1iLvbC0-14" vertex="1">
          <mxGeometry width="65" height="35" relative="1" as="geometry" />
        </mxCell>
        <mxCell id="-IOmw9dpuARAz1iLvbC0-19" value="" style="shape=stencil(pdRfD0MwEADwT9PXS7Wu5tnse0jUNDME+/ftp6tkU9kleKvzK707jsmkL7NWM8H7oWsu+mHyoWTyyIQwdak7M4wrJlMmk6Lp9LlrbnXurtvMSru6Nnf7hKfbpxREdpPgLxcIOchP4OR4ZWqKowBFcAHxHq44iP8cIzjs4YhrMHlylKvqsuArq+7zeU8xgGDGJQKVqs/H3EOC41TkjVzRlVlw4uQKpzdvw/S36HM6TRVPHdnIV7bI5+Pi+4cXpqrcgPi970+EMeSmiUzf);whiteSpace=wrap;overflow=block;html=1;fontSize=11;strokeOpacity=0;fillOpacity=100;fillColor=#434445;whiteSpace=wrap;fontSize=11;spacing=0;" parent="-IOmw9dpuARAz1iLvbC0-14" vertex="1">
          <mxGeometry width="65" height="35" relative="1" as="geometry" />
        </mxCell>
        <mxCell id="-IOmw9dpuARAz1iLvbC0-20" value="" style="shape=stencil(pdTdDoIgFADgp+GWIYjgtdV7uInJMnFof2+fhK3CdTb07nj4QDjoQawYmrJXiJJhtOakbroaG8R2iFLdNcrqcYoQ2yNW1MaqozWXrvLPfemki87m6la4+3lS4MRNouThEynB7JU4eN7qDuKc4gzgbF5sJc8Ipv+5kPPoSs55DAZ3LtKouix4ZNVD/nunIpnf/eaMY+ioIecCpwDnWGzhGVyZBQd2LjnON2D4Www5fEyZR1VlwSOvKORT8PnDa922vkF8j4cdYUr5bsL2Tw==);whiteSpace=wrap;overflow=block;html=1;fontSize=11;strokeOpacity=0;fillOpacity=100;fillColor=#434445;whiteSpace=wrap;fontSize=11;spacing=0;" parent="-IOmw9dpuARAz1iLvbC0-14" vertex="1">
          <mxGeometry width="65" height="35" relative="1" as="geometry" />
        </mxCell>
        <mxCell id="-IOmw9dpuARAz1iLvbC0-21" value="" style="group;html=1;" parent="1" vertex="1">
          <mxGeometry x="1404" y="207" width="57" height="57" as="geometry" />
        </mxCell>
        <mxCell id="-IOmw9dpuARAz1iLvbC0-22" value="" style="shape=stencil(pZTdcoMgEIWfhltGdsGf6zR9j0xjKlOrGWLa9O2rw7IiNXbS3uHhg7PLritwd2kO51pAdhlc/1Z/2uPQCHwSALZrameHcSVwL3B36l396vprd/Tf58NETqv3/mO64ebPaSPNdAiyLy+UFQnPHm9tF+OlhP/gKpN6A0+D+QWvaDfgKIuYfrk6n6qi7VyWxAclCDfwAswRkFIRgBRRwRmlyh3Xig8o9oClq2YEOFK19A2psS0/7erTYMGp/g03m2U1Ml/gJnvgbqO37v6JKxLWcX6XdTqthk6rkaMMJYa0YCQUmtvkbheUsO0bNVboC7W0jbozBJJzo4Sizx2PzOADP1T6u46LeTKcbNv6wRLvp5NklPwUwv03);whiteSpace=wrap;fontSize=11;fillOpacity=100;fillColor=#ffffff;whiteSpace=wrap;spacing=0;" parent="-IOmw9dpuARAz1iLvbC0-21" vertex="1">
          <mxGeometry width="57" height="57" relative="1" as="geometry" />
        </mxCell>
        <mxCell id="-IOmw9dpuARAz1iLvbC0-23" value="" style="shape=stencil(nZTdcoMgEIWfhlsGWEG8TpP3yCSmMrWaMaY1bx8sPwKNpOkdHj84cnZdBJtLsz/XiJHLOPQf9bc6jg2CN8SY6pp6UKNeIdgi2Jz6oX4f+mt3NM/n/UzOq8/+az5hMvsEw2zexMjNCJxi+SPsDN6qLosXmK/j+m0R4+SFswueO/s3Lq3wEK8Ehix+uA4mGGo3cBsEuVkFBKZGmZhliGeswrj7qgmMIplnrELLvHPpMvXOVWwrwF/dKuA8nCsnWMSugMtsoXiUDiW2co9x6u/0L1xWT7qGv4IvV01KvZJvEB/1O1gccVADV2uKntTVK2sdRdKO0i4y9g26bil2FTsHrQxJwH/8aRNcL5b5cFJta8ZL+D6dJ1oyswi2dw==);whiteSpace=wrap;fontSize=11;fillOpacity=100;fillColor=#ffffff;whiteSpace=wrap;spacing=0;" parent="-IOmw9dpuARAz1iLvbC0-21" vertex="1">
          <mxGeometry width="57" height="57" relative="1" as="geometry" />
        </mxCell>
        <mxCell id="-IOmw9dpuARAz1iLvbC0-24" value="" style="shape=stencil(pVbLcsIwDPyaXD2OnZfPFP6DKaFkSgkTQhv+vkltybacF/QWxNoraVdKIrm5nfbXMhL81jb1Z/lTHdpTJN8iIarLqWyqtn+K5DaSm2PdlB9Nfb8c9O/rfkAOT1/193BDp88liiXDIcEfOiBZ/vd7p9Hn6uKiU5Z66Jib4+Pwgon/wAtl6NYlswCnlaqMSRf+fm90Z2LTiYwV5kCMJ0yCndARYXMwERUbhDQl51iUiRTC3DvBq/CACeQJJAK0CUJMIJNM+bygI9KmsU/rd0fmWOxr8GRBqsyH8yfuRqFXwsFG43DsyziaqpFQNXpbgMSCCmZdAT6ZdAFGJngdZ4EvfFbHnhBBm8jA8sQVu7FdkHKiEkHTFHvT0d5Qo+ZJMB9+ijgMqxujOB1Lp91Akga9sapJMv7IPG+cTJDt9Cx81sX9/PjbaW5Cgrvnpy+Ez86205hxeKBIShVx1pEIVLPWIHYNvbC0Kh17QS5kNh2PCiyPDKfje+qNKa2eefFg+16Ez780g2QW4AszTjeCh/UsGSwsgQ6OXThKAXcJigcdACA98gk67nPlOdTVBfcDY8x5RIQnq4fPUloOYLU3Ugp0uc1LUsiqOi086HMXcDz8Vk/V6RH2D/bj8Fidz/rb0v2ffkz2If0hKre/);whiteSpace=wrap;fontSize=11;fillOpacity=100;fillColor=#ffffff;whiteSpace=wrap;spacing=0;" parent="-IOmw9dpuARAz1iLvbC0-21" vertex="1">
          <mxGeometry width="57" height="57" relative="1" as="geometry" />
        </mxCell>
        <mxCell id="-IOmw9dpuARAz1iLvbC0-25" value="" style="group;dropTarget=0;" parent="1" vertex="1">
          <mxGeometry x="457" y="79" width="150" height="164" as="geometry" />
        </mxCell>
        <mxCell id="-IOmw9dpuARAz1iLvbC0-26" value="" style="group;html=1;" parent="-IOmw9dpuARAz1iLvbC0-25" vertex="1">
          <mxGeometry width="150" height="39" as="geometry" />
        </mxCell>
        <mxCell id="-IOmw9dpuARAz1iLvbC0-27" value="" style="shape=stencil(jZLREoIgEEW/hldGd0Xt2eo/nMR0MnFQS/8+CZQGcupt93LYuwtLMOurvOMEgn6Q4safdTFUBI8EoG4rLuthiQieCGalkPwqxdgWOu9yRaroLh6qwqTvRQcaq0sQzFpgwTs9a/gySk2HHr4qjCZamcAo6arMqwIUDINGSbY66DB7zjFljrOtClsvseNsu0OPwb8mZu7ELKLo+NrejMISmv6aeGP2nO07hl5V8P4DvO7QY75OvAR2O8q6afRyfZ6727RIehPx9AI=);whiteSpace=wrap;overflow=block;html=1;fontSize=11;strokeOpacity=0;fillOpacity=0;fillColor=#000000;whiteSpace=wrap;fontSize=11;spacing=0;" parent="-IOmw9dpuARAz1iLvbC0-26" vertex="1">
          <mxGeometry width="150" height="39" relative="1" as="geometry" />
        </mxCell>
        <mxCell id="-IOmw9dpuARAz1iLvbC0-28" value="" style="shape=stencil(UzV2Ls5ILEhVNTIoLinKz04tz0wpyVA1dlE1MsrMy0gtyiwBslSNXVWNndPyi1LTi/JL81Ig/IJEkEoQKze/DGRCBUSfqZmeKUiTkUElRMDcUM8ELOAGUZ6TmYek3MJQz4wS5aam+JRjOIZE5eiOATIQ/k7LzMmBBBuyPHo4AYUgYWzsCgA=);whiteSpace=wrap;overflow=block;html=1;fontSize=11;strokeOpacity=0;fillOpacity=0;fillColor=#000000;whiteSpace=wrap;fontSize=11;spacing=0;" parent="-IOmw9dpuARAz1iLvbC0-26" vertex="1">
          <mxGeometry width="150" height="39" relative="1" as="geometry" />
        </mxCell>
        <mxCell id="-IOmw9dpuARAz1iLvbC0-29" value="" style="shape=stencil(UzV2Ls5ILEhVNTIoLinKz04tz0wpyVA1dlE1MsrMy0gtyiwBslSNXVWNndPyi1LTi/JL81Ig/IJEkEoQKze/DGRCBUSfhYWeKUiTkUElRMDUTM8ELOAGUZ6TmYek3NJYz5wS5SaWUOuwKsdwDInK0R0DZCD8nZaZkwMJNmR59HACCkHC2NgVAA==);whiteSpace=wrap;overflow=block;html=1;fontSize=11;strokeOpacity=0;fillOpacity=0;fillColor=#000000;whiteSpace=wrap;fontSize=11;spacing=0;" parent="-IOmw9dpuARAz1iLvbC0-26" vertex="1">
          <mxGeometry width="150" height="39" relative="1" as="geometry" />
        </mxCell>
        <mxCell id="-IOmw9dpuARAz1iLvbC0-30" value="" style="shape=stencil(UzV2Ls5ILEhVNTIoLinKz04tz0wpyVA1dlE1MsrMy0gtyiwBslSNXVWNndPyi1LTi/JL81Ig/IJEkEoQKze/DGRCBUSfqZmeKUiTkUElRMDERM8MLOAGUZ6TmYek3MIQKkumciMLfMoxHEOicnTHABkIf6dl5uRAgg1ZHj2cgEKQMDZ2BQA=);whiteSpace=wrap;overflow=block;html=1;fontSize=11;strokeOpacity=0;fillOpacity=0;fillColor=#000000;whiteSpace=wrap;fontSize=11;spacing=0;" parent="-IOmw9dpuARAz1iLvbC0-26" vertex="1">
          <mxGeometry width="150" height="39" relative="1" as="geometry" />
        </mxCell>
        <mxCell id="-IOmw9dpuARAz1iLvbC0-31" value="" style="shape=stencil(UzV2Ls5ILEhVNTIoLinKz04tz0wpyVA1dlE1MsrMy0gtyiwBslSNXVWNndPyi1LTi/JL81Ig/IJEkEoQKze/DGRCBUSfobGeGUiTkUElRMDEBCrgBlGek5mHpNzYQs+cEuVGFviUYziGROXojgEyEP5Oy8zJgQQbsjx6OAGFIGFs7AoA);whiteSpace=wrap;overflow=block;html=1;fontSize=11;strokeOpacity=0;fillOpacity=0;fillColor=#000000;whiteSpace=wrap;fontSize=11;spacing=0;" parent="-IOmw9dpuARAz1iLvbC0-26" vertex="1">
          <mxGeometry width="150" height="39" relative="1" as="geometry" />
        </mxCell>
        <mxCell id="-IOmw9dpuARAz1iLvbC0-32" value="" style="shape=stencil(UzV2Ls5ILEhVNTIoLinKz04tz0wpyVA1dlE1MsrMy0gtyiwBslSNXVWNndPyi1LTi/JL81Ig/IJEkEoQKze/DGRCBUSfobGeGUiTkUElRMDcUM8ELOAGUZ6TmYek3NhCz5wS5aam+JRjOIZE5eiOATIQ/k7LzMmBBBuyPHo4AYUgYWzsCgA=);whiteSpace=wrap;overflow=block;html=1;fontSize=11;strokeOpacity=0;fillOpacity=0;fillColor=#000000;whiteSpace=wrap;fontSize=11;spacing=0;" parent="-IOmw9dpuARAz1iLvbC0-26" vertex="1">
          <mxGeometry width="150" height="39" relative="1" as="geometry" />
        </mxCell>
        <mxCell id="-IOmw9dpuARAz1iLvbC0-33" value="" style="shape=stencil(nZZLcoMwDIZPw9ZjWwbMOm3vkWlIwzQNGZK06e0LY2NjqSiQHYhP1q/X4Aw2l8P2XGdaXq5d+1n/NLvrIYOXTOvmdKi75to/ZfCawWbfdvVH195OO/d+3g7k8PTVfg8n3J1fIYrBR8tf926UN7w5+v3WOVy571ZozyvkIO/aWSqRe8QbTAhyB4x4Q65FyYWNDt6QW2HTsFGZNxQQEMDJAkJmwqKgkxN9DPCyQ9CJLsDIwlyjgyL106kuTXowlynuazoFVRHq6zVUU/jYnDi4UGlCj/BCMKfbPKT/FL5KeQqnNTElWg1QD4ZF4t0IHrFxWpi0d1D59ELvJsxokWzcyI9zKoVCcSXZjrAvY9xJwoCYmcgG70c8c5xMPWYX4kZtQJhF+U54RWqokTJNOjGbLe4vGgeFZkdZn8i/o0ZwY9IFfICHhi3Ecz8Dy/CyWCXGKm4FlQz9eArntROcLyTBV7YJ4+kQWCNgxekE57UTnB8CirOFJDg/BATnu5qHX+NzOK+d4HwhCb6yTfwQaPTH6Ucunz8c07bi6KrEVV+Hr9OC6f4h3hP3zfHorpnT7/he2ZvcnRRe/wA=);whiteSpace=wrap;overflow=block;html=1;fontSize=11;strokeOpacity=0;fillOpacity=0;fillColor=#000000;whiteSpace=wrap;fontSize=11;spacing=0;" parent="-IOmw9dpuARAz1iLvbC0-26" vertex="1">
          <mxGeometry width="150" height="39" relative="1" as="geometry" />
        </mxCell>
        <mxCell id="-IOmw9dpuARAz1iLvbC0-34" value="" style="shape=stencil(pZLRDsIgDEW/hldSaMzc85z/sWRMiBMWhlP/XrAPOhKJZm+X9rS5JZdhM+tuUkzCHLw7q5vpg2Z4YFIaq5U3ISqGLcNmcF6dvLvant5Tl8ikLm5JG+40V1cc05CEBxUE8N2rcCR8NLaE7+sSLnm1gf7TSo6vDxUZDd83Cy5/RWENlvxCZrZkADbAxcMKfxDFOySDGUfK2Gc/D1UsUSCxfQI=);whiteSpace=wrap;overflow=block;html=1;fontSize=11;strokeOpacity=0;fillOpacity=100;fillColor=#434445;whiteSpace=wrap;fontSize=11;spacing=0;" parent="-IOmw9dpuARAz1iLvbC0-26" vertex="1">
          <mxGeometry width="150" height="39" relative="1" as="geometry" />
        </mxCell>
        <mxCell id="-IOmw9dpuARAz1iLvbC0-35" value="" style="shape=stencil(jVTLcoMwDPwaXz22hDGc8/iPTEMK0yRkDGnp3xfqF7EGwk2sV9qVxIjhrqtPj4qB6HrTflU/zbmvGe4ZQHOvK9P0Y8TwwHB3aU31adrn/Wy/H6eJOUW39nuqMNi8TPN8SgLx6wDg8A8cLf3jaSxfuveCa5cgQwZaZACHlKGoR5TPGpBwHKLEqm7kO0RlRDd6c4jSRFcTXc2LVeWcq0TZZ0RllXY8c4eEs61jlXY8myIQb0C2sdhxuuM3vwTKNwNKxhP40Sbw8tUmlh4ZkHC2jSfyHZILLtO1vKrmhWt8ZTiBs6CrhK8RdGNVv3zgWaIcvSHhbOp3xpdkhkC8AdnFYsfpfscgnotLc73aazN/T8/LCNnThIc/);whiteSpace=wrap;overflow=block;html=1;fontSize=11;strokeOpacity=0;fillOpacity=100;fillColor=#434445;whiteSpace=wrap;fontSize=11;spacing=0;" parent="-IOmw9dpuARAz1iLvbC0-26" vertex="1">
          <mxGeometry width="150" height="39" relative="1" as="geometry" />
        </mxCell>
        <mxCell id="-IOmw9dpuARAz1iLvbC0-36" value="" style="shape=stencil(pdTdDoIgFAfwp+GW8aXStdl7uInJMnFoX2+fhlsJ7TjqDg8/2B+YB/F8aMpeIUaG0ZqTuulqbBDfI8Z01yirx2mEeIF4XhurjtZcusp99+Us59HZXOcd7m4dlzibFzHycAUmcfoqHBxvdQdxISBO+TL7I48M4/ONoyYJFhG7ZxTiQfZIHhnG5+ujUoJ3K04lpkAYn288k8/h7AGXdCl85YLi5B+epVD2gMPZQ04wi+DwRQY88pl8Pg3e/3mt29a1ic95vy9MJddTePEE);whiteSpace=wrap;overflow=block;html=1;fontSize=11;strokeOpacity=0;fillOpacity=100;fillColor=#434445;whiteSpace=wrap;fontSize=11;spacing=0;" parent="-IOmw9dpuARAz1iLvbC0-26" vertex="1">
          <mxGeometry width="150" height="39" relative="1" as="geometry" />
        </mxCell>
        <mxCell id="-IOmw9dpuARAz1iLvbC0-37" value="" style="shape=stencil(pdRLDoMgEADQ07Al8lO6tu09TMRKasWg/d2+EJq0QjKGuBvHB5kBHcTquW8mhWgxL9Zc1VO3S4/YEVGqx15ZvbgIsRNidWesulhzH9vwPDVe+uhmHn6HV1gnCS79Ilq8Q4LKb+Ic+KBHiHMOcVFisYdnFhPzjVaFwDxj94pAPKk9k2cWE/N1q4JhueJEYgIUE/ONa4o5XHvCXTMHoFWO2R5eleA3E/ONc094gWkGhw8y4ZnXFHMX/P7zTg9DGBP/7+O54FJhprDTBw==);whiteSpace=wrap;overflow=block;html=1;fontSize=11;strokeOpacity=0;fillOpacity=100;fillColor=#434445;whiteSpace=wrap;fontSize=11;spacing=0;" parent="-IOmw9dpuARAz1iLvbC0-26" vertex="1">
          <mxGeometry width="150" height="39" relative="1" as="geometry" />
        </mxCell>
        <mxCell id="-IOmw9dpuARAz1iLvbC0-38" value="" style="shape=stencil(jZLRDoIwDEW/Zq+La2HiM+J/EBmyiIwMUPh7wSKTERLf2rvT3XYrw7gp0loxODStNXf10llbMDwzAF0Vyup2jBgmDOPcWHWzpqsyyut0IqfoYZ7TDT3VnXg41cBhoDwEfvwIF6KvnSVc+PwsBJJLUnogJeIwI7MQiAVBUpaaAT1kx9Y3Fb4pzm07U+mbOgT/m9UVfLuIeLS2DdemEhdgb9IF2TF1ryc2d4L/B7DpC31kZ9YxcCuR67Kkjfo991dolGj9MHkD);whiteSpace=wrap;overflow=block;html=1;fontSize=11;strokeOpacity=0;fillOpacity=100;fillColor=#434445;whiteSpace=wrap;fontSize=11;spacing=0;" parent="-IOmw9dpuARAz1iLvbC0-26" vertex="1">
          <mxGeometry width="150" height="39" relative="1" as="geometry" />
        </mxCell>
        <mxCell id="-IOmw9dpuARAz1iLvbC0-39" value="" style="shape=stencil(nZLNDoMgEISfZq/EskLlbO17mIiF1IpB7M/bV4pJK0lJ7W0Yvl2GZADLUdWDBJqNzpqzvOnGKcADUKp7Ja12swKsAMvWWHmyZuqbcB5qT3p1MVe/4R7mBJK9H6LZIxi5IOxlHAPe6T6FM07y73hRLMv+xDeGifH1VwsW4SgSUWKYc5LABY+Sb8V3y3O/4ZuSr+FZvLvQ6q4LVfq8j7szW6F3WD0B);whiteSpace=wrap;overflow=block;html=1;fontSize=11;strokeOpacity=0;fillOpacity=100;fillColor=#434445;whiteSpace=wrap;fontSize=11;spacing=0;" parent="-IOmw9dpuARAz1iLvbC0-26" vertex="1">
          <mxGeometry width="150" height="39" relative="1" as="geometry" />
        </mxCell>
        <mxCell id="-IOmw9dpuARAz1iLvbC0-40" value="" style="group;html=1;" parent="-IOmw9dpuARAz1iLvbC0-25" vertex="1">
          <mxGeometry y="42" width="150" height="39" as="geometry" />
        </mxCell>
        <mxCell id="-IOmw9dpuARAz1iLvbC0-41" value="" style="shape=stencil(jZLREoIgEEW/hldGd0Xt2eo/nMR0MnFQS/8+CZQGcupt93LYuwtLMOurvOMEgn6Q4safdTFUBI8EoG4rLuthiQieCGalkPwqxdgWOu9yRaroLh6qwqTvRQcaq0sQzFpgwTs9a/gySk2HHr4qjCZamcAo6arMqwIUDINGSbY66DB7zjFljrOtClsvseNsu0OPwb8mZu7ELKLo+NrejMISmv6aeGP2nO07hl5V8P4DvO7QY75OvAR2O8q6afRyfZ6727RIehPx9AI=);whiteSpace=wrap;overflow=block;html=1;fontSize=11;strokeOpacity=0;fillOpacity=0;fillColor=#000000;whiteSpace=wrap;fontSize=11;spacing=0;" parent="-IOmw9dpuARAz1iLvbC0-40" vertex="1">
          <mxGeometry width="150" height="39" relative="1" as="geometry" />
        </mxCell>
        <mxCell id="-IOmw9dpuARAz1iLvbC0-42" value="" style="shape=stencil(UzV2Ls5ILEhVNTIoLinKz04tz0wpyVA1dlE1MsrMy0gtyiwBslSNXVWNndPyi1LTi/JL81Ig/IJEkEoQKze/DGRCBUSfqZmeKUiTkUElRMDcUM8ELOAGUZ6TmYek3MJQz4wS5aam+JRjOIZE5eiOATIQ/k7LzMmBBBuyPHo4AYUgYWzsCgA=);whiteSpace=wrap;overflow=block;html=1;fontSize=11;strokeOpacity=0;fillOpacity=0;fillColor=#000000;whiteSpace=wrap;fontSize=11;spacing=0;" parent="-IOmw9dpuARAz1iLvbC0-40" vertex="1">
          <mxGeometry width="150" height="39" relative="1" as="geometry" />
        </mxCell>
        <mxCell id="-IOmw9dpuARAz1iLvbC0-43" value="" style="shape=stencil(UzV2Ls5ILEhVNTIoLinKz04tz0wpyVA1dlE1MsrMy0gtyiwBslSNXVWNndPyi1LTi/JL81Ig/IJEkEoQKze/DGRCBUSfhYWeKUiTkUElRMDUTM8ELOAGUZ6TmYek3NJYz5wS5SaWUOuwKsdwDInK0R0DZCD8nZaZkwMJNmR59HACCkHC2NgVAA==);whiteSpace=wrap;overflow=block;html=1;fontSize=11;strokeOpacity=0;fillOpacity=0;fillColor=#000000;whiteSpace=wrap;fontSize=11;spacing=0;" parent="-IOmw9dpuARAz1iLvbC0-40" vertex="1">
          <mxGeometry width="150" height="39" relative="1" as="geometry" />
        </mxCell>
        <mxCell id="-IOmw9dpuARAz1iLvbC0-44" value="" style="shape=stencil(UzV2Ls5ILEhVNTIoLinKz04tz0wpyVA1dlE1MsrMy0gtyiwBslSNXVWNndPyi1LTi/JL81Ig/IJEkEoQKze/DGRCBUSfqZmeKUiTkUElRMDERM8MLOAGUZ6TmYek3MIQKkumciMLfMoxHEOicnTHABkIf6dl5uRAgg1ZHj2cgEKQMDZ2BQA=);whiteSpace=wrap;overflow=block;html=1;fontSize=11;strokeOpacity=0;fillOpacity=0;fillColor=#000000;whiteSpace=wrap;fontSize=11;spacing=0;" parent="-IOmw9dpuARAz1iLvbC0-40" vertex="1">
          <mxGeometry width="150" height="39" relative="1" as="geometry" />
        </mxCell>
        <mxCell id="-IOmw9dpuARAz1iLvbC0-45" value="" style="shape=stencil(UzV2Ls5ILEhVNTIoLinKz04tz0wpyVA1dlE1MsrMy0gtyiwBslSNXVWNndPyi1LTi/JL81Ig/IJEkEoQKze/DGRCBUSfobGeGUiTkUElRMDEBCrgBlGek5mHpNzYQs+cEuVGFviUYziGROXojgEyEP5Oy8zJgQQbsjx6OAGFIGFs7AoA);whiteSpace=wrap;overflow=block;html=1;fontSize=11;strokeOpacity=0;fillOpacity=0;fillColor=#000000;whiteSpace=wrap;fontSize=11;spacing=0;" parent="-IOmw9dpuARAz1iLvbC0-40" vertex="1">
          <mxGeometry width="150" height="39" relative="1" as="geometry" />
        </mxCell>
        <mxCell id="-IOmw9dpuARAz1iLvbC0-46" value="" style="shape=stencil(UzV2Ls5ILEhVNTIoLinKz04tz0wpyVA1dlE1MsrMy0gtyiwBslSNXVWNndPyi1LTi/JL81Ig/IJEkEoQKze/DGRCBUSfobGeGUiTkUElRMDcUM8ELOAGUZ6TmYek3NhCz5wS5aam+JRjOIZE5eiOATIQ/k7LzMmBBBuyPHo4AYUgYWzsCgA=);whiteSpace=wrap;overflow=block;html=1;fontSize=11;strokeOpacity=0;fillOpacity=0;fillColor=#000000;whiteSpace=wrap;fontSize=11;spacing=0;" parent="-IOmw9dpuARAz1iLvbC0-40" vertex="1">
          <mxGeometry width="150" height="39" relative="1" as="geometry" />
        </mxCell>
        <mxCell id="-IOmw9dpuARAz1iLvbC0-47" value="" style="shape=stencil(nZZLcoMwDIZPw9ZjWwbMOm3vkWlIwzQNGZK06e0LY2NjqSiQHYhP1q/X4Aw2l8P2XGdaXq5d+1n/NLvrIYOXTOvmdKi75to/ZfCawWbfdvVH195OO/d+3g7k8PTVfg8n3J1fIYrBR8tf926UN7w5+v3WOVy571ZozyvkIO/aWSqRe8QbTAhyB4x4Q65FyYWNDt6QW2HTsFGZNxQQEMDJAkJmwqKgkxN9DPCyQ9CJLsDIwlyjgyL106kuTXowlynuazoFVRHq6zVUU/jYnDi4UGlCj/BCMKfbPKT/FL5KeQqnNTElWg1QD4ZF4t0IHrFxWpi0d1D59ELvJsxokWzcyI9zKoVCcSXZjrAvY9xJwoCYmcgG70c8c5xMPWYX4kZtQJhF+U54RWqokTJNOjGbLe4vGgeFZkdZn8i/o0ZwY9IFfICHhi3Ecz8Dy/CyWCXGKm4FlQz9eArntROcLyTBV7YJ4+kQWCNgxekE57UTnB8CirOFJDg/BATnu5qHX+NzOK+d4HwhCb6yTfwQaPTH6Ucunz8c07bi6KrEVV+Hr9OC6f4h3hP3zfHorpnT7/he2ZvcnRRe/wA=);whiteSpace=wrap;overflow=block;html=1;fontSize=11;strokeOpacity=0;fillOpacity=0;fillColor=#000000;whiteSpace=wrap;fontSize=11;spacing=0;" parent="-IOmw9dpuARAz1iLvbC0-40" vertex="1">
          <mxGeometry width="150" height="39" relative="1" as="geometry" />
        </mxCell>
        <mxCell id="-IOmw9dpuARAz1iLvbC0-48" value="" style="shape=stencil(pZLRDsIgDEW/hldSaMzc85z/sWRMiBMWhlP/XrAPOhKJZm+X9rS5JZdhM+tuUkzCHLw7q5vpg2Z4YFIaq5U3ISqGLcNmcF6dvLvant5Tl8ikLm5JG+40V1cc05CEBxUE8N2rcCR8NLaE7+sSLnm1gf7TSo6vDxUZDd83Cy5/RWENlvxCZrZkADbAxcMKfxDFOySDGUfK2Gc/D1UsUSCxfQI=);whiteSpace=wrap;overflow=block;html=1;fontSize=11;strokeOpacity=0;fillOpacity=100;fillColor=#434445;whiteSpace=wrap;fontSize=11;spacing=0;" parent="-IOmw9dpuARAz1iLvbC0-40" vertex="1">
          <mxGeometry width="150" height="39" relative="1" as="geometry" />
        </mxCell>
        <mxCell id="-IOmw9dpuARAz1iLvbC0-49" value="" style="shape=stencil(jVTLcoMwDPwaXz22hDGc8/iPTEMK0yRkDGnp3xfqF7EGwk2sV9qVxIjhrqtPj4qB6HrTflU/zbmvGe4ZQHOvK9P0Y8TwwHB3aU31adrn/Wy/H6eJOUW39nuqMNi8TPN8SgLx6wDg8A8cLf3jaSxfuveCa5cgQwZaZACHlKGoR5TPGpBwHKLEqm7kO0RlRDd6c4jSRFcTXc2LVeWcq0TZZ0RllXY8c4eEs61jlXY8myIQb0C2sdhxuuM3vwTKNwNKxhP40Sbw8tUmlh4ZkHC2jSfyHZILLtO1vKrmhWt8ZTiBs6CrhK8RdGNVv3zgWaIcvSHhbOp3xpdkhkC8AdnFYsfpfscgnotLc73aazN/T8/LCNnThIc/);whiteSpace=wrap;overflow=block;html=1;fontSize=11;strokeOpacity=0;fillOpacity=100;fillColor=#434445;whiteSpace=wrap;fontSize=11;spacing=0;" parent="-IOmw9dpuARAz1iLvbC0-40" vertex="1">
          <mxGeometry width="150" height="39" relative="1" as="geometry" />
        </mxCell>
        <mxCell id="-IOmw9dpuARAz1iLvbC0-50" value="" style="shape=stencil(pdTdDoIgFAfwp+GW8aXStdl7uInJMnFoX2+fhlsJ7TjqDg8/2B+YB/F8aMpeIUaG0ZqTuulqbBDfI8Z01yirx2mEeIF4XhurjtZcusp99+Us59HZXOcd7m4dlzibFzHycAUmcfoqHBxvdQdxISBO+TL7I48M4/ONoyYJFhG7ZxTiQfZIHhnG5+ujUoJ3K04lpkAYn288k8/h7AGXdCl85YLi5B+epVD2gMPZQ04wi+DwRQY88pl8Pg3e/3mt29a1ic95vy9MJddTePEE);whiteSpace=wrap;overflow=block;html=1;fontSize=11;strokeOpacity=0;fillOpacity=100;fillColor=#434445;whiteSpace=wrap;fontSize=11;spacing=0;" parent="-IOmw9dpuARAz1iLvbC0-40" vertex="1">
          <mxGeometry width="150" height="39" relative="1" as="geometry" />
        </mxCell>
        <mxCell id="-IOmw9dpuARAz1iLvbC0-51" value="" style="shape=stencil(pdRLDoMgEADQ07Al8lO6tu09TMRKasWg/d2+EJq0QjKGuBvHB5kBHcTquW8mhWgxL9Zc1VO3S4/YEVGqx15ZvbgIsRNidWesulhzH9vwPDVe+uhmHn6HV1gnCS79Ilq8Q4LKb+Ic+KBHiHMOcVFisYdnFhPzjVaFwDxj94pAPKk9k2cWE/N1q4JhueJEYgIUE/ONa4o5XHvCXTMHoFWO2R5eleA3E/ONc094gWkGhw8y4ZnXFHMX/P7zTg9DGBP/7+O54FJhprDTBw==);whiteSpace=wrap;overflow=block;html=1;fontSize=11;strokeOpacity=0;fillOpacity=100;fillColor=#434445;whiteSpace=wrap;fontSize=11;spacing=0;" parent="-IOmw9dpuARAz1iLvbC0-40" vertex="1">
          <mxGeometry width="150" height="39" relative="1" as="geometry" />
        </mxCell>
        <mxCell id="-IOmw9dpuARAz1iLvbC0-52" value="" style="shape=stencil(jZLRDoIwDEW/Zq+La2HiM+J/EBmyiIwMUPh7wSKTERLf2rvT3XYrw7gp0loxODStNXf10llbMDwzAF0Vyup2jBgmDOPcWHWzpqsyyut0IqfoYZ7TDT3VnXg41cBhoDwEfvwIF6KvnSVc+PwsBJJLUnogJeIwI7MQiAVBUpaaAT1kx9Y3Fb4pzm07U+mbOgT/m9UVfLuIeLS2DdemEhdgb9IF2TF1ryc2d4L/B7DpC31kZ9YxcCuR67Kkjfo991dolGj9MHkD);whiteSpace=wrap;overflow=block;html=1;fontSize=11;strokeOpacity=0;fillOpacity=100;fillColor=#434445;whiteSpace=wrap;fontSize=11;spacing=0;" parent="-IOmw9dpuARAz1iLvbC0-40" vertex="1">
          <mxGeometry width="150" height="39" relative="1" as="geometry" />
        </mxCell>
        <mxCell id="-IOmw9dpuARAz1iLvbC0-53" value="" style="shape=stencil(nZLNDoMgEISfZq/EskLlbO17mIiF1IpB7M/bV4pJK0lJ7W0Yvl2GZADLUdWDBJqNzpqzvOnGKcADUKp7Ja12swKsAMvWWHmyZuqbcB5qT3p1MVe/4R7mBJK9H6LZIxi5IOxlHAPe6T6FM07y73hRLMv+xDeGifH1VwsW4SgSUWKYc5LABY+Sb8V3y3O/4ZuSr+FZvLvQ6q4LVfq8j7szW6F3WD0B);whiteSpace=wrap;overflow=block;html=1;fontSize=11;strokeOpacity=0;fillOpacity=100;fillColor=#434445;whiteSpace=wrap;fontSize=11;spacing=0;" parent="-IOmw9dpuARAz1iLvbC0-40" vertex="1">
          <mxGeometry width="150" height="39" relative="1" as="geometry" />
        </mxCell>
        <mxCell id="-IOmw9dpuARAz1iLvbC0-54" value="" style="group;html=1;" parent="-IOmw9dpuARAz1iLvbC0-25" vertex="1">
          <mxGeometry y="83" width="150" height="39" as="geometry" />
        </mxCell>
        <mxCell id="-IOmw9dpuARAz1iLvbC0-55" value="" style="shape=stencil(jZLREoIgEEW/hldGd0Xt2eo/nMR0MnFQS/8+CZQGcupt93LYuwtLMOurvOMEgn6Q4safdTFUBI8EoG4rLuthiQieCGalkPwqxdgWOu9yRaroLh6qwqTvRQcaq0sQzFpgwTs9a/gySk2HHr4qjCZamcAo6arMqwIUDINGSbY66DB7zjFljrOtClsvseNsu0OPwb8mZu7ELKLo+NrejMISmv6aeGP2nO07hl5V8P4DvO7QY75OvAR2O8q6afRyfZ6727RIehPx9AI=);whiteSpace=wrap;overflow=block;html=1;fontSize=11;strokeOpacity=0;fillOpacity=0;fillColor=#000000;whiteSpace=wrap;fontSize=11;spacing=0;" parent="-IOmw9dpuARAz1iLvbC0-54" vertex="1">
          <mxGeometry width="150" height="39" relative="1" as="geometry" />
        </mxCell>
        <mxCell id="-IOmw9dpuARAz1iLvbC0-56" value="" style="shape=stencil(UzV2Ls5ILEhVNTIoLinKz04tz0wpyVA1dlE1MsrMy0gtyiwBslSNXVWNndPyi1LTi/JL81Ig/IJEkEoQKze/DGRCBUSfqZmeKUiTkUElRMDcUM8ELOAGUZ6TmYek3MJQz4wS5aam+JRjOIZE5eiOATIQ/k7LzMmBBBuyPHo4AYUgYWzsCgA=);whiteSpace=wrap;overflow=block;html=1;fontSize=11;strokeOpacity=0;fillOpacity=0;fillColor=#000000;whiteSpace=wrap;fontSize=11;spacing=0;" parent="-IOmw9dpuARAz1iLvbC0-54" vertex="1">
          <mxGeometry width="150" height="39" relative="1" as="geometry" />
        </mxCell>
        <mxCell id="-IOmw9dpuARAz1iLvbC0-57" value="" style="shape=stencil(UzV2Ls5ILEhVNTIoLinKz04tz0wpyVA1dlE1MsrMy0gtyiwBslSNXVWNndPyi1LTi/JL81Ig/IJEkEoQKze/DGRCBUSfhYWeKUiTkUElRMDUTM8ELOAGUZ6TmYek3NJYz5wS5SaWUOuwKsdwDInK0R0DZCD8nZaZkwMJNmR59HACCkHC2NgVAA==);whiteSpace=wrap;overflow=block;html=1;fontSize=11;strokeOpacity=0;fillOpacity=0;fillColor=#000000;whiteSpace=wrap;fontSize=11;spacing=0;" parent="-IOmw9dpuARAz1iLvbC0-54" vertex="1">
          <mxGeometry width="150" height="39" relative="1" as="geometry" />
        </mxCell>
        <mxCell id="-IOmw9dpuARAz1iLvbC0-58" value="" style="shape=stencil(UzV2Ls5ILEhVNTIoLinKz04tz0wpyVA1dlE1MsrMy0gtyiwBslSNXVWNndPyi1LTi/JL81Ig/IJEkEoQKze/DGRCBUSfqZmeKUiTkUElRMDERM8MLOAGUZ6TmYek3MIQKkumciMLfMoxHEOicnTHABkIf6dl5uRAgg1ZHj2cgEKQMDZ2BQA=);whiteSpace=wrap;overflow=block;html=1;fontSize=11;strokeOpacity=0;fillOpacity=0;fillColor=#000000;whiteSpace=wrap;fontSize=11;spacing=0;" parent="-IOmw9dpuARAz1iLvbC0-54" vertex="1">
          <mxGeometry width="150" height="39" relative="1" as="geometry" />
        </mxCell>
        <mxCell id="-IOmw9dpuARAz1iLvbC0-59" value="" style="shape=stencil(UzV2Ls5ILEhVNTIoLinKz04tz0wpyVA1dlE1MsrMy0gtyiwBslSNXVWNndPyi1LTi/JL81Ig/IJEkEoQKze/DGRCBUSfobGeGUiTkUElRMDEBCrgBlGek5mHpNzYQs+cEuVGFviUYziGROXojgEyEP5Oy8zJgQQbsjx6OAGFIGFs7AoA);whiteSpace=wrap;overflow=block;html=1;fontSize=11;strokeOpacity=0;fillOpacity=0;fillColor=#000000;whiteSpace=wrap;fontSize=11;spacing=0;" parent="-IOmw9dpuARAz1iLvbC0-54" vertex="1">
          <mxGeometry width="150" height="39" relative="1" as="geometry" />
        </mxCell>
        <mxCell id="-IOmw9dpuARAz1iLvbC0-60" value="" style="shape=stencil(UzV2Ls5ILEhVNTIoLinKz04tz0wpyVA1dlE1MsrMy0gtyiwBslSNXVWNndPyi1LTi/JL81Ig/IJEkEoQKze/DGRCBUSfobGeGUiTkUElRMDcUM8ELOAGUZ6TmYek3NhCz5wS5aam+JRjOIZE5eiOATIQ/k7LzMmBBBuyPHo4AYUgYWzsCgA=);whiteSpace=wrap;overflow=block;html=1;fontSize=11;strokeOpacity=0;fillOpacity=0;fillColor=#000000;whiteSpace=wrap;fontSize=11;spacing=0;" parent="-IOmw9dpuARAz1iLvbC0-54" vertex="1">
          <mxGeometry width="150" height="39" relative="1" as="geometry" />
        </mxCell>
        <mxCell id="-IOmw9dpuARAz1iLvbC0-61" value="" style="shape=stencil(nZZLcoMwDIZPw9ZjWwbMOm3vkWlIwzQNGZK06e0LY2NjqSiQHYhP1q/X4Aw2l8P2XGdaXq5d+1n/NLvrIYOXTOvmdKi75to/ZfCawWbfdvVH195OO/d+3g7k8PTVfg8n3J1fIYrBR8tf926UN7w5+v3WOVy571ZozyvkIO/aWSqRe8QbTAhyB4x4Q65FyYWNDt6QW2HTsFGZNxQQEMDJAkJmwqKgkxN9DPCyQ9CJLsDIwlyjgyL106kuTXowlynuazoFVRHq6zVUU/jYnDi4UGlCj/BCMKfbPKT/FL5KeQqnNTElWg1QD4ZF4t0IHrFxWpi0d1D59ELvJsxokWzcyI9zKoVCcSXZjrAvY9xJwoCYmcgG70c8c5xMPWYX4kZtQJhF+U54RWqokTJNOjGbLe4vGgeFZkdZn8i/o0ZwY9IFfICHhi3Ecz8Dy/CyWCXGKm4FlQz9eArntROcLyTBV7YJ4+kQWCNgxekE57UTnB8CirOFJDg/BATnu5qHX+NzOK+d4HwhCb6yTfwQaPTH6Ucunz8c07bi6KrEVV+Hr9OC6f4h3hP3zfHorpnT7/he2ZvcnRRe/wA=);whiteSpace=wrap;overflow=block;html=1;fontSize=11;strokeOpacity=0;fillOpacity=0;fillColor=#000000;whiteSpace=wrap;fontSize=11;spacing=0;" parent="-IOmw9dpuARAz1iLvbC0-54" vertex="1">
          <mxGeometry width="150" height="39" relative="1" as="geometry" />
        </mxCell>
        <mxCell id="-IOmw9dpuARAz1iLvbC0-62" value="" style="shape=stencil(pZLRDsIgDEW/hldSaMzc85z/sWRMiBMWhlP/XrAPOhKJZm+X9rS5JZdhM+tuUkzCHLw7q5vpg2Z4YFIaq5U3ISqGLcNmcF6dvLvant5Tl8ikLm5JG+40V1cc05CEBxUE8N2rcCR8NLaE7+sSLnm1gf7TSo6vDxUZDd83Cy5/RWENlvxCZrZkADbAxcMKfxDFOySDGUfK2Gc/D1UsUSCxfQI=);whiteSpace=wrap;overflow=block;html=1;fontSize=11;strokeOpacity=0;fillOpacity=100;fillColor=#434445;whiteSpace=wrap;fontSize=11;spacing=0;" parent="-IOmw9dpuARAz1iLvbC0-54" vertex="1">
          <mxGeometry width="150" height="39" relative="1" as="geometry" />
        </mxCell>
        <mxCell id="-IOmw9dpuARAz1iLvbC0-63" value="" style="shape=stencil(jVTLcoMwDPwaXz22hDGc8/iPTEMK0yRkDGnp3xfqF7EGwk2sV9qVxIjhrqtPj4qB6HrTflU/zbmvGe4ZQHOvK9P0Y8TwwHB3aU31adrn/Wy/H6eJOUW39nuqMNi8TPN8SgLx6wDg8A8cLf3jaSxfuveCa5cgQwZaZACHlKGoR5TPGpBwHKLEqm7kO0RlRDd6c4jSRFcTXc2LVeWcq0TZZ0RllXY8c4eEs61jlXY8myIQb0C2sdhxuuM3vwTKNwNKxhP40Sbw8tUmlh4ZkHC2jSfyHZILLtO1vKrmhWt8ZTiBs6CrhK8RdGNVv3zgWaIcvSHhbOp3xpdkhkC8AdnFYsfpfscgnotLc73aazN/T8/LCNnThIc/);whiteSpace=wrap;overflow=block;html=1;fontSize=11;strokeOpacity=0;fillOpacity=100;fillColor=#434445;whiteSpace=wrap;fontSize=11;spacing=0;" parent="-IOmw9dpuARAz1iLvbC0-54" vertex="1">
          <mxGeometry width="150" height="39" relative="1" as="geometry" />
        </mxCell>
        <mxCell id="-IOmw9dpuARAz1iLvbC0-64" value="" style="shape=stencil(pdTdDoIgFAfwp+GW8aXStdl7uInJMnFoX2+fhlsJ7TjqDg8/2B+YB/F8aMpeIUaG0ZqTuulqbBDfI8Z01yirx2mEeIF4XhurjtZcusp99+Us59HZXOcd7m4dlzibFzHycAUmcfoqHBxvdQdxISBO+TL7I48M4/ONoyYJFhG7ZxTiQfZIHhnG5+ujUoJ3K04lpkAYn288k8/h7AGXdCl85YLi5B+epVD2gMPZQ04wi+DwRQY88pl8Pg3e/3mt29a1ic95vy9MJddTePEE);whiteSpace=wrap;overflow=block;html=1;fontSize=11;strokeOpacity=0;fillOpacity=100;fillColor=#434445;whiteSpace=wrap;fontSize=11;spacing=0;" parent="-IOmw9dpuARAz1iLvbC0-54" vertex="1">
          <mxGeometry width="150" height="39" relative="1" as="geometry" />
        </mxCell>
        <mxCell id="-IOmw9dpuARAz1iLvbC0-65" value="" style="shape=stencil(pdRLDoMgEADQ07Al8lO6tu09TMRKasWg/d2+EJq0QjKGuBvHB5kBHcTquW8mhWgxL9Zc1VO3S4/YEVGqx15ZvbgIsRNidWesulhzH9vwPDVe+uhmHn6HV1gnCS79Ilq8Q4LKb+Ic+KBHiHMOcVFisYdnFhPzjVaFwDxj94pAPKk9k2cWE/N1q4JhueJEYgIUE/ONa4o5XHvCXTMHoFWO2R5eleA3E/ONc094gWkGhw8y4ZnXFHMX/P7zTg9DGBP/7+O54FJhprDTBw==);whiteSpace=wrap;overflow=block;html=1;fontSize=11;strokeOpacity=0;fillOpacity=100;fillColor=#434445;whiteSpace=wrap;fontSize=11;spacing=0;" parent="-IOmw9dpuARAz1iLvbC0-54" vertex="1">
          <mxGeometry width="150" height="39" relative="1" as="geometry" />
        </mxCell>
        <mxCell id="-IOmw9dpuARAz1iLvbC0-66" value="" style="shape=stencil(jZLRDoIwDEW/Zq+La2HiM+J/EBmyiIwMUPh7wSKTERLf2rvT3XYrw7gp0loxODStNXf10llbMDwzAF0Vyup2jBgmDOPcWHWzpqsyyut0IqfoYZ7TDT3VnXg41cBhoDwEfvwIF6KvnSVc+PwsBJJLUnogJeIwI7MQiAVBUpaaAT1kx9Y3Fb4pzm07U+mbOgT/m9UVfLuIeLS2DdemEhdgb9IF2TF1ryc2d4L/B7DpC31kZ9YxcCuR67Kkjfo991dolGj9MHkD);whiteSpace=wrap;overflow=block;html=1;fontSize=11;strokeOpacity=0;fillOpacity=100;fillColor=#434445;whiteSpace=wrap;fontSize=11;spacing=0;" parent="-IOmw9dpuARAz1iLvbC0-54" vertex="1">
          <mxGeometry width="150" height="39" relative="1" as="geometry" />
        </mxCell>
        <mxCell id="-IOmw9dpuARAz1iLvbC0-67" value="" style="shape=stencil(nZLNDoMgEISfZq/EskLlbO17mIiF1IpB7M/bV4pJK0lJ7W0Yvl2GZADLUdWDBJqNzpqzvOnGKcADUKp7Ja12swKsAMvWWHmyZuqbcB5qT3p1MVe/4R7mBJK9H6LZIxi5IOxlHAPe6T6FM07y73hRLMv+xDeGifH1VwsW4SgSUWKYc5LABY+Sb8V3y3O/4ZuSr+FZvLvQ6q4LVfq8j7szW6F3WD0B);whiteSpace=wrap;overflow=block;html=1;fontSize=11;strokeOpacity=0;fillOpacity=100;fillColor=#434445;whiteSpace=wrap;fontSize=11;spacing=0;" parent="-IOmw9dpuARAz1iLvbC0-54" vertex="1">
          <mxGeometry width="150" height="39" relative="1" as="geometry" />
        </mxCell>
        <mxCell id="-IOmw9dpuARAz1iLvbC0-68" value="" style="group;html=1;" parent="-IOmw9dpuARAz1iLvbC0-25" vertex="1">
          <mxGeometry y="125" width="150" height="39" as="geometry" />
        </mxCell>
        <mxCell id="-IOmw9dpuARAz1iLvbC0-69" value="" style="shape=stencil(jZLREoIgEEW/hldGd0Xt2eo/nMR0MnFQS/8+CZQGcupt93LYuwtLMOurvOMEgn6Q4safdTFUBI8EoG4rLuthiQieCGalkPwqxdgWOu9yRaroLh6qwqTvRQcaq0sQzFpgwTs9a/gySk2HHr4qjCZamcAo6arMqwIUDINGSbY66DB7zjFljrOtClsvseNsu0OPwb8mZu7ELKLo+NrejMISmv6aeGP2nO07hl5V8P4DvO7QY75OvAR2O8q6afRyfZ6727RIehPx9AI=);whiteSpace=wrap;overflow=block;html=1;fontSize=11;strokeOpacity=0;fillOpacity=0;fillColor=#000000;whiteSpace=wrap;fontSize=11;spacing=0;" parent="-IOmw9dpuARAz1iLvbC0-68" vertex="1">
          <mxGeometry width="150" height="39" relative="1" as="geometry" />
        </mxCell>
        <mxCell id="-IOmw9dpuARAz1iLvbC0-70" value="" style="shape=stencil(UzV2Ls5ILEhVNTIoLinKz04tz0wpyVA1dlE1MsrMy0gtyiwBslSNXVWNndPyi1LTi/JL81Ig/IJEkEoQKze/DGRCBUSfqZmeKUiTkUElRMDcUM8ELOAGUZ6TmYek3MJQz4wS5aam+JRjOIZE5eiOATIQ/k7LzMmBBBuyPHo4AYUgYWzsCgA=);whiteSpace=wrap;overflow=block;html=1;fontSize=11;strokeOpacity=0;fillOpacity=0;fillColor=#000000;whiteSpace=wrap;fontSize=11;spacing=0;" parent="-IOmw9dpuARAz1iLvbC0-68" vertex="1">
          <mxGeometry width="150" height="39" relative="1" as="geometry" />
        </mxCell>
        <mxCell id="-IOmw9dpuARAz1iLvbC0-71" value="" style="shape=stencil(UzV2Ls5ILEhVNTIoLinKz04tz0wpyVA1dlE1MsrMy0gtyiwBslSNXVWNndPyi1LTi/JL81Ig/IJEkEoQKze/DGRCBUSfhYWeKUiTkUElRMDUTM8ELOAGUZ6TmYek3NJYz5wS5SaWUOuwKsdwDInK0R0DZCD8nZaZkwMJNmR59HACCkHC2NgVAA==);whiteSpace=wrap;overflow=block;html=1;fontSize=11;strokeOpacity=0;fillOpacity=0;fillColor=#000000;whiteSpace=wrap;fontSize=11;spacing=0;" parent="-IOmw9dpuARAz1iLvbC0-68" vertex="1">
          <mxGeometry width="150" height="39" relative="1" as="geometry" />
        </mxCell>
        <mxCell id="-IOmw9dpuARAz1iLvbC0-72" value="" style="shape=stencil(UzV2Ls5ILEhVNTIoLinKz04tz0wpyVA1dlE1MsrMy0gtyiwBslSNXVWNndPyi1LTi/JL81Ig/IJEkEoQKze/DGRCBUSfqZmeKUiTkUElRMDERM8MLOAGUZ6TmYek3MIQKkumciMLfMoxHEOicnTHABkIf6dl5uRAgg1ZHj2cgEKQMDZ2BQA=);whiteSpace=wrap;overflow=block;html=1;fontSize=11;strokeOpacity=0;fillOpacity=0;fillColor=#000000;whiteSpace=wrap;fontSize=11;spacing=0;" parent="-IOmw9dpuARAz1iLvbC0-68" vertex="1">
          <mxGeometry width="150" height="39" relative="1" as="geometry" />
        </mxCell>
        <mxCell id="-IOmw9dpuARAz1iLvbC0-73" value="" style="shape=stencil(UzV2Ls5ILEhVNTIoLinKz04tz0wpyVA1dlE1MsrMy0gtyiwBslSNXVWNndPyi1LTi/JL81Ig/IJEkEoQKze/DGRCBUSfobGeGUiTkUElRMDEBCrgBlGek5mHpNzYQs+cEuVGFviUYziGROXojgEyEP5Oy8zJgQQbsjx6OAGFIGFs7AoA);whiteSpace=wrap;overflow=block;html=1;fontSize=11;strokeOpacity=0;fillOpacity=0;fillColor=#000000;whiteSpace=wrap;fontSize=11;spacing=0;" parent="-IOmw9dpuARAz1iLvbC0-68" vertex="1">
          <mxGeometry width="150" height="39" relative="1" as="geometry" />
        </mxCell>
        <mxCell id="-IOmw9dpuARAz1iLvbC0-74" value="" style="shape=stencil(UzV2Ls5ILEhVNTIoLinKz04tz0wpyVA1dlE1MsrMy0gtyiwBslSNXVWNndPyi1LTi/JL81Ig/IJEkEoQKze/DGRCBUSfobGeGUiTkUElRMDcUM8ELOAGUZ6TmYek3NhCz5wS5aam+JRjOIZE5eiOATIQ/k7LzMmBBBuyPHo4AYUgYWzsCgA=);whiteSpace=wrap;overflow=block;html=1;fontSize=11;strokeOpacity=0;fillOpacity=0;fillColor=#000000;whiteSpace=wrap;fontSize=11;spacing=0;" parent="-IOmw9dpuARAz1iLvbC0-68" vertex="1">
          <mxGeometry width="150" height="39" relative="1" as="geometry" />
        </mxCell>
        <mxCell id="-IOmw9dpuARAz1iLvbC0-75" value="" style="shape=stencil(nZZLcoMwDIZPw9ZjWwbMOm3vkWlIwzQNGZK06e0LY2NjqSiQHYhP1q/X4Aw2l8P2XGdaXq5d+1n/NLvrIYOXTOvmdKi75to/ZfCawWbfdvVH195OO/d+3g7k8PTVfg8n3J1fIYrBR8tf926UN7w5+v3WOVy571ZozyvkIO/aWSqRe8QbTAhyB4x4Q65FyYWNDt6QW2HTsFGZNxQQEMDJAkJmwqKgkxN9DPCyQ9CJLsDIwlyjgyL106kuTXowlynuazoFVRHq6zVUU/jYnDi4UGlCj/BCMKfbPKT/FL5KeQqnNTElWg1QD4ZF4t0IHrFxWpi0d1D59ELvJsxokWzcyI9zKoVCcSXZjrAvY9xJwoCYmcgG70c8c5xMPWYX4kZtQJhF+U54RWqokTJNOjGbLe4vGgeFZkdZn8i/o0ZwY9IFfICHhi3Ecz8Dy/CyWCXGKm4FlQz9eArntROcLyTBV7YJ4+kQWCNgxekE57UTnB8CirOFJDg/BATnu5qHX+NzOK+d4HwhCb6yTfwQaPTH6Ucunz8c07bi6KrEVV+Hr9OC6f4h3hP3zfHorpnT7/he2ZvcnRRe/wA=);whiteSpace=wrap;overflow=block;html=1;fontSize=11;strokeOpacity=0;fillOpacity=0;fillColor=#000000;whiteSpace=wrap;fontSize=11;spacing=0;" parent="-IOmw9dpuARAz1iLvbC0-68" vertex="1">
          <mxGeometry width="150" height="39" relative="1" as="geometry" />
        </mxCell>
        <mxCell id="-IOmw9dpuARAz1iLvbC0-76" value="" style="shape=stencil(pZLRDsIgDEW/hldSaMzc85z/sWRMiBMWhlP/XrAPOhKJZm+X9rS5JZdhM+tuUkzCHLw7q5vpg2Z4YFIaq5U3ISqGLcNmcF6dvLvant5Tl8ikLm5JG+40V1cc05CEBxUE8N2rcCR8NLaE7+sSLnm1gf7TSo6vDxUZDd83Cy5/RWENlvxCZrZkADbAxcMKfxDFOySDGUfK2Gc/D1UsUSCxfQI=);whiteSpace=wrap;overflow=block;html=1;fontSize=11;strokeOpacity=0;fillOpacity=100;fillColor=#434445;whiteSpace=wrap;fontSize=11;spacing=0;" parent="-IOmw9dpuARAz1iLvbC0-68" vertex="1">
          <mxGeometry width="150" height="39" relative="1" as="geometry" />
        </mxCell>
        <mxCell id="-IOmw9dpuARAz1iLvbC0-77" value="" style="shape=stencil(jVTLcoMwDPwaXz22hDGc8/iPTEMK0yRkDGnp3xfqF7EGwk2sV9qVxIjhrqtPj4qB6HrTflU/zbmvGe4ZQHOvK9P0Y8TwwHB3aU31adrn/Wy/H6eJOUW39nuqMNi8TPN8SgLx6wDg8A8cLf3jaSxfuveCa5cgQwZaZACHlKGoR5TPGpBwHKLEqm7kO0RlRDd6c4jSRFcTXc2LVeWcq0TZZ0RllXY8c4eEs61jlXY8myIQb0C2sdhxuuM3vwTKNwNKxhP40Sbw8tUmlh4ZkHC2jSfyHZILLtO1vKrmhWt8ZTiBs6CrhK8RdGNVv3zgWaIcvSHhbOp3xpdkhkC8AdnFYsfpfscgnotLc73aazN/T8/LCNnThIc/);whiteSpace=wrap;overflow=block;html=1;fontSize=11;strokeOpacity=0;fillOpacity=100;fillColor=#434445;whiteSpace=wrap;fontSize=11;spacing=0;" parent="-IOmw9dpuARAz1iLvbC0-68" vertex="1">
          <mxGeometry width="150" height="39" relative="1" as="geometry" />
        </mxCell>
        <mxCell id="-IOmw9dpuARAz1iLvbC0-78" value="" style="shape=stencil(pdTdDoIgFAfwp+GW8aXStdl7uInJMnFoX2+fhlsJ7TjqDg8/2B+YB/F8aMpeIUaG0ZqTuulqbBDfI8Z01yirx2mEeIF4XhurjtZcusp99+Us59HZXOcd7m4dlzibFzHycAUmcfoqHBxvdQdxISBO+TL7I48M4/ONoyYJFhG7ZxTiQfZIHhnG5+ujUoJ3K04lpkAYn288k8/h7AGXdCl85YLi5B+epVD2gMPZQ04wi+DwRQY88pl8Pg3e/3mt29a1ic95vy9MJddTePEE);whiteSpace=wrap;overflow=block;html=1;fontSize=11;strokeOpacity=0;fillOpacity=100;fillColor=#434445;whiteSpace=wrap;fontSize=11;spacing=0;" parent="-IOmw9dpuARAz1iLvbC0-68" vertex="1">
          <mxGeometry width="150" height="39" relative="1" as="geometry" />
        </mxCell>
        <mxCell id="-IOmw9dpuARAz1iLvbC0-79" value="" style="shape=stencil(pdRLDoMgEADQ07Al8lO6tu09TMRKasWg/d2+EJq0QjKGuBvHB5kBHcTquW8mhWgxL9Zc1VO3S4/YEVGqx15ZvbgIsRNidWesulhzH9vwPDVe+uhmHn6HV1gnCS79Ilq8Q4LKb+Ic+KBHiHMOcVFisYdnFhPzjVaFwDxj94pAPKk9k2cWE/N1q4JhueJEYgIUE/ONa4o5XHvCXTMHoFWO2R5eleA3E/ONc094gWkGhw8y4ZnXFHMX/P7zTg9DGBP/7+O54FJhprDTBw==);whiteSpace=wrap;overflow=block;html=1;fontSize=11;strokeOpacity=0;fillOpacity=100;fillColor=#434445;whiteSpace=wrap;fontSize=11;spacing=0;" parent="-IOmw9dpuARAz1iLvbC0-68" vertex="1">
          <mxGeometry width="150" height="39" relative="1" as="geometry" />
        </mxCell>
        <mxCell id="-IOmw9dpuARAz1iLvbC0-80" value="" style="shape=stencil(jZLRDoIwDEW/Zq+La2HiM+J/EBmyiIwMUPh7wSKTERLf2rvT3XYrw7gp0loxODStNXf10llbMDwzAF0Vyup2jBgmDOPcWHWzpqsyyut0IqfoYZ7TDT3VnXg41cBhoDwEfvwIF6KvnSVc+PwsBJJLUnogJeIwI7MQiAVBUpaaAT1kx9Y3Fb4pzm07U+mbOgT/m9UVfLuIeLS2DdemEhdgb9IF2TF1ryc2d4L/B7DpC31kZ9YxcCuR67Kkjfo991dolGj9MHkD);whiteSpace=wrap;overflow=block;html=1;fontSize=11;strokeOpacity=0;fillOpacity=100;fillColor=#434445;whiteSpace=wrap;fontSize=11;spacing=0;" parent="-IOmw9dpuARAz1iLvbC0-68" vertex="1">
          <mxGeometry width="150" height="39" relative="1" as="geometry" />
        </mxCell>
        <mxCell id="-IOmw9dpuARAz1iLvbC0-81" value="" style="shape=stencil(nZLNDoMgEISfZq/EskLlbO17mIiF1IpB7M/bV4pJK0lJ7W0Yvl2GZADLUdWDBJqNzpqzvOnGKcADUKp7Ja12swKsAMvWWHmyZuqbcB5qT3p1MVe/4R7mBJK9H6LZIxi5IOxlHAPe6T6FM07y73hRLMv+xDeGifH1VwsW4SgSUWKYc5LABY+Sb8V3y3O/4ZuSr+FZvLvQ6q4LVfq8j7szW6F3WD0B);whiteSpace=wrap;overflow=block;html=1;fontSize=11;strokeOpacity=0;fillOpacity=100;fillColor=#434445;whiteSpace=wrap;fontSize=11;spacing=0;" parent="-IOmw9dpuARAz1iLvbC0-68" vertex="1">
          <mxGeometry width="150" height="39" relative="1" as="geometry" />
        </mxCell>
        <mxCell id="-IOmw9dpuARAz1iLvbC0-82" value="" style="group;dropTarget=0;" parent="1" vertex="1">
          <mxGeometry x="667" y="12" width="803" height="188" as="geometry" />
        </mxCell>
        <mxCell id="-IOmw9dpuARAz1iLvbC0-83" value="" style="group;html=1;" parent="-IOmw9dpuARAz1iLvbC0-82" vertex="1">
          <mxGeometry width="803" height="188" as="geometry" />
        </mxCell>
        <mxCell id="-IOmw9dpuARAz1iLvbC0-84" value="" style="shape=stencil(nZBLDoAgDERP0z3SIyjew0SURgSD+Lu9kMZoXLhwN9O+tukAlrNpJg1SzDH4QW/URgNYgZTkjA4UkwJUgGXng+6DX1zLfmoymdXo17xh5zmRJ6Q42BWCfc2oJfdAr+Yv+AP9Cb7OJ3H/2JG1HNGz/84klThPVCc=);whiteSpace=wrap;overflow=block;html=1;fontSize=11;strokeOpacity=0;fillOpacity=100;fillColor=#3b9ece;whiteSpace=wrap;fontSize=11;spacing=0;rounded=1;absoluteArcSize=1;arcSize=1;" parent="-IOmw9dpuARAz1iLvbC0-83" vertex="1">
          <mxGeometry width="803" height="188" relative="1" as="geometry" />
        </mxCell>
        <mxCell id="-IOmw9dpuARAz1iLvbC0-85" value="" style="shape=stencil(UzV2Ls5ILEhVNTIoLinKz04tz0wpyVA1dlE1MsrMy0gtyiwBslSNXVWNndPyi1LTi/JL81Ig/IJEkEoQKze/DGRCBUSfoZ4pSI+RQSWEb2GpZwgWcIOozsnMQ1JtZK5nSYlyQzyK0V1Cilp0ZwAZCA+nZebkQMILWR49gIBCkMA1dgUA);whiteSpace=wrap;overflow=block;html=1;fontSize=11;strokeOpacity=0;fillOpacity=0;fillColor=#000000;whiteSpace=wrap;fontSize=11;spacing=0;rounded=1;absoluteArcSize=1;arcSize=1;" parent="-IOmw9dpuARAz1iLvbC0-83" vertex="1">
          <mxGeometry width="803" height="188" relative="1" as="geometry" />
        </mxCell>
        <mxCell id="-IOmw9dpuARAz1iLvbC0-86" value="&lt;div style=&quot;display: flex ; justify-content: flex-start ; text-align: left ; align-items: baseline ; font-size: 0 ; line-height: 1&quot;&gt;&lt;span style=&quot;font-size: 11px&quot;&gt;&lt;span style=&quot;font-size: 14px ; color: #ffffff ; font-family: &amp;#34;arimo&amp;#34;&quot;&gt;NSX-T Tier-1&lt;br&gt;&lt;/span&gt;&lt;/span&gt;&lt;/div&gt;&lt;div style=&quot;display: flex ; justify-content: flex-start ; text-align: left ; align-items: baseline ; font-size: 0 ; line-height: 1&quot;&gt;&lt;span style=&quot;font-size: 11px&quot;&gt;&lt;span style=&quot;font-size: 14px ; color: #ffffff ; font-family: &amp;#34;arimo&amp;#34;&quot;&gt;Active-Passive Pair&lt;br&gt;&lt;/span&gt;&lt;/span&gt;&lt;/div&gt;&lt;div style=&quot;display: flex ; justify-content: flex-start ; text-align: left ; align-items: baseline ; font-size: 0 ; line-height: 1&quot;&gt;&lt;span style=&quot;font-size: 11px&quot;&gt;&lt;span style=&quot;font-size: 14px ; color: #ffffff ; font-family: &amp;#34;arimo&amp;#34;&quot;&gt;&lt;br&gt;&lt;/span&gt;&lt;/span&gt;&lt;/div&gt;&lt;div style=&quot;display: flex ; justify-content: flex-start ; text-align: left ; align-items: baseline ; font-size: 0 ; line-height: 1&quot;&gt;&lt;span style=&quot;font-size: 11px&quot;&gt;&lt;span style=&quot;font-size: 14px ; color: #ffffff ; font-family: &amp;#34;arimo&amp;#34;&quot;&gt;Firewalling&lt;br&gt;&lt;/span&gt;&lt;/span&gt;&lt;/div&gt;&lt;div style=&quot;display: flex ; justify-content: flex-start ; text-align: left ; align-items: baseline ; font-size: 0 ; line-height: 1&quot;&gt;&lt;span style=&quot;font-size: 11px&quot;&gt;&lt;span style=&quot;font-size: 14px ; color: #ffffff ; font-family: &amp;#34;arimo&amp;#34;&quot;&gt;Load Balancing&lt;br&gt;&lt;/span&gt;&lt;/span&gt;&lt;/div&gt;&lt;div style=&quot;display: flex ; justify-content: flex-start ; text-align: left ; align-items: baseline ; font-size: 0 ; line-height: 1&quot;&gt;&lt;span style=&quot;font-size: 11px&quot;&gt;&lt;span style=&quot;font-size: 14px ; color: #ffffff ; font-family: &amp;#34;arimo&amp;#34;&quot;&gt;VPN&lt;br&gt;&lt;/span&gt;&lt;/span&gt;&lt;/div&gt;&lt;div style=&quot;display: flex ; justify-content: flex-start ; text-align: left ; align-items: baseline ; font-size: 0 ; line-height: 1&quot;&gt;&lt;span style=&quot;font-size: 11px&quot;&gt;&lt;br&gt;&lt;/span&gt;&lt;/div&gt;" style="strokeColor=none;fillColor=none;overflow=visible;whiteSpace=wrap;html=1;fontSize=11;whiteSpace=wrap;fontSize=11;spacing=0;strokeOpacity=0;fillOpacity=0;rounded=1;absoluteArcSize=1;arcSize=1;whiteSpace=wrap;fontSize=11;" parent="-IOmw9dpuARAz1iLvbC0-83" vertex="1">
          <mxGeometry x="0.015" y="0.125" width="211.99200000000002" height="144.008" relative="1" as="geometry" />
        </mxCell>
        <mxCell id="-IOmw9dpuARAz1iLvbC0-87" value="" style="group;html=1;" parent="-IOmw9dpuARAz1iLvbC0-82" vertex="1">
          <mxGeometry x="312" y="41" width="112" height="106" as="geometry" />
        </mxCell>
        <mxCell id="-IOmw9dpuARAz1iLvbC0-88" value="" style="shape=stencil(pZLdDsIgDIWfpreEH6NyPed7LBkTIsLC8O/tBRujLNky9e709GtTwgFRDbrpFXA6xOCP6mraqEHsgHPjtAomJgWiBlF1PqhD8GfXYt03mczq5C95ww3n5Jas8hCndzQY2TzrPdLWuDk6GWIaZ2T9B/3dJSO6fCUtUDq9tgQZnUFfzZ9gKQlfTi8+uACTeP96Z6zF0Hz2xylJFiZM1A8=);whiteSpace=wrap;overflow=block;html=1;fontSize=11;strokeOpacity=0;fillOpacity=100;fillColor=#ffffff;whiteSpace=wrap;fontSize=11;spacing=0;" parent="-IOmw9dpuARAz1iLvbC0-87" vertex="1">
          <mxGeometry width="112" height="106" relative="1" as="geometry" />
        </mxCell>
        <mxCell id="-IOmw9dpuARAz1iLvbC0-89" value="" style="shape=stencil(nZHLDoMgEEW/ZrZEGdB0be1/mIiF1IJB+vr7QmdRS1MTu7sczsxiLmAz625SwIs5eHdSN9MHDbgHzo3VypsQE2AL2AzOq6N3F9vTe+qSmdLZXdOGO81Jyeo0xIsHAVEz/gIH0kdjl3rJyg89ArGi59sjqLboyORvvRL/y2K3Jn9fZaOeHTGGdwGDGUfqb/mfFxYRlY3tEw==);whiteSpace=wrap;overflow=block;html=1;fontSize=11;strokeOpacity=0;fillOpacity=100;fillColor=#ffffff;whiteSpace=wrap;fontSize=11;spacing=0;" parent="-IOmw9dpuARAz1iLvbC0-87" vertex="1">
          <mxGeometry width="112" height="106" relative="1" as="geometry" />
        </mxCell>
        <mxCell id="-IOmw9dpuARAz1iLvbC0-90" value="" style="shape=stencil(pZHbDsIgEES/Zl9J3QWbPtf6H01KhYjQULz9vSAm1nsa32aHMxuyA1SPqh0kYDEG77byqLuggFaAqK2SXoeogBqgundebrzb2y7PQ5vIpHbukDacco6XbJlCWJyzIRaMX411xo22UxxZ9YDHPM7BK0afceKs/AcX9A1/+cxcXNxO9R7/dcgo7iX02pjc4fT9ubRo5cKpuQA=);whiteSpace=wrap;overflow=block;html=1;fontSize=11;strokeOpacity=0;fillOpacity=100;fillColor=#ffffff;whiteSpace=wrap;fontSize=11;spacing=0;" parent="-IOmw9dpuARAz1iLvbC0-87" vertex="1">
          <mxGeometry width="112" height="106" relative="1" as="geometry" />
        </mxCell>
        <mxCell id="-IOmw9dpuARAz1iLvbC0-91" value="" style="shape=stencil(pZHdDsIgDIWfprdkoyLues73WDImRISFMX/eXhATJ0bN4t3p6dem6QGsR9kOAmgxemcP4qw6LwG3QKkyUjjlgwJsAOveOrF3djJdqoc2klEd7SluuKQ5VpJNHKLF9WEgYXdjl3CtzAxfcVL9g68poV9wlh3zA68If8U5KT/j4dQl298+sxDPPxPEM4ReaZ0ynPfz0IKVAsfmBg==);whiteSpace=wrap;overflow=block;html=1;fontSize=11;strokeOpacity=0;fillOpacity=100;fillColor=#ffffff;whiteSpace=wrap;fontSize=11;spacing=0;" parent="-IOmw9dpuARAz1iLvbC0-87" vertex="1">
          <mxGeometry width="112" height="106" relative="1" as="geometry" />
        </mxCell>
        <mxCell id="-IOmw9dpuARAz1iLvbC0-92" value="" style="shape=stencil(pZHLDsIgEEW/ZrYEGfGxrvU/mpQKEaGhVO3fF6SJFU2Txt3lcuaRuYBFJ6tWAKOdd/YqHqr2EvAEjCkjhVM+KMASsGisExdne1Ond1tFMqqbvccOz1S33ZNDLGJ0mIwjYS/jnHCtzAznG7L7C6eEL+CYL7OIh9mfOPJp3G+cr+v+dZmVeHaZIN4hNErrlOH8Pw8tWClwLEc=);whiteSpace=wrap;overflow=block;html=1;fontSize=11;strokeOpacity=0;fillOpacity=100;fillColor=#ffffff;whiteSpace=wrap;fontSize=11;spacing=0;" parent="-IOmw9dpuARAz1iLvbC0-87" vertex="1">
          <mxGeometry width="112" height="106" relative="1" as="geometry" />
        </mxCell>
        <mxCell id="-IOmw9dpuARAz1iLvbC0-93" value="" style="shape=stencil(pVvLctw2EPwaXbeIATAAzo7zH65YjlRRJJcsJ87fh8qSANhNDpbOTaYbxGAePQ9w7/yHbw+fvt7fyfTt7fXlj/u/Hz+/Pdz5X+5EHp8f7l8f3+a/7vzHO//hy8vr/e+vL9+fP1///fXTO/L9rz9f/np/w4/ruiAX975Ipn+uD9x0Cf89+PUK/+376xXv6oK0LHCwYvohC8Zf/IKRiikLxhNmeeLcRfudnx6fe0EbfoGnSzyGS/mfcFADCDPS2lbJkgdwEIbgpuzOL3r7Wbi7ZMvi3YL1idva24WLkL1Xn/AVU8DeJ5Vgq3hCA+btqeDtCJe4iHebzk7CTwqD8O1RfayavOXtBLdlF7c4z0/CTwpjH5WD3nw7wW3ZfQIXOwk/KYx9VPJ3Scv628LDByuayCNPwk8Kg/CBVe23E9yWnaj8JPykMIOjrtxahYlL+jxKr9OWar2ulljJ1ucacVIdE5Jr56rrk2KdilwbxQQljE414Gb77QSfs60RZ3NiiSac8lnYqrjiWz5r7i8Vg/msYXzVypmccFIJtoqJV+23EzxMW9lRZ/OCCFqrxF8dM1YnaloTcMxQq0d/i3EpvZyEn1SDreQMmc4vpzvQWY41ShysqDrLisE8YyCYO0yrpQwldPhqKjUFVTKuYEnfHaYV+Q4EBTErYldMjUAiCEcxtfmXIxEWoXTl+k7MrZDq67YHHkj7uhqKazQAX0StXr3GQqi0vewSHfY73tsxN68Q2NcjU3UYIYwnTNvZTELR0b7gDnFCd/DkDh1m3VesaOzwSzSL3Yp2C1yNf1YQkJJUQ3QKAs8Vy29rbKw8YAqpHq04Rzgw5+y1IGTHFKvfIgcA+wAH2FQFRQpVTNE6UfRIFx7OExNG4VzGAKvpRF5ZBnEIUdgmEZ0eIQ6DYjQoZaAamUf7Bpx4xEgW9GjBWLBimE8MNpxdySjKYobspCPCUCQqVSTIKPWlq+ipHsaTP3jAHFWt4BDdO1dDEFFprOZbHSBXt2kKMolqztcwmogFGaDSbDMN7+xxODFyim6FI1cTkq4VRMMzj8IgcFpowSVgjyrJyMLbkN/yQ5cAqyMafqsKPK5muTL7gWzhas0Bk0Adncz2LmGrkqIpe8CjJuvt2oahy4NiljwOj+rtDMelR1V9o56GEcJ4wvh9E5LFo6lkElRQ0LqiCSpYM3SYJhY0rinY1KOUjVLAlrmr+drOlBdg32hX952nuLqC8zrkwaS4K4Z/0sF524p1X86C4BApkUMEzL4zxmwSlHZF0lEi2pSxJlTqmmeMnX09nTfvZF+hnVHTghRfMcc+rbQz6lp2dgaKVyovK2afJSYglZPw7CzKiljsnYTbdDskDuioFWppnezk1y2oFLm1CHfU6qhRpY5anZUVqKPO5WxHXSbk7Qy1QZmQkuaeG8ihTFYmjRnERDgVjBk5rBNCKsaRoODhMZOYdgbfZsFkDmmSoAdGSwkJ2zMbnqcNOHvz3RnenaN10AzgZHZsgj7mTPgEzUE2/Dd5GO+m0QDJjkqYPQYgoDiIDk/RoTQY8wVr566XObxC1nTqCnkOY3sY73fiA++6qaopfNctmG3LZM6KUaMIH420OxHaQCGSmDzSBlpEBdFIe+uyI/Z2VKvNK+gueStmdab+Jhk7+GKZfeifW3fuLqoXRdljST5UoTMJ1oFuwoqsw7TvIaxrDxpDmb7PcPPykuBy5t32FRrBB3eRBDdJl+B4LUP2EywpeKzs6IOWEJCNunsoD5gjt9ySMsJ3Rg4CgioWFV5oAkb1aIe5ddhB3/xEmkR7qsGj7tz+QHcXs+kpFLmDZsFRs9BKnC4YwZY8quswbXhnhwtlFpsJqV8ubsfpgDUK3acxF1bMfgrE2gvhOykQ2U0wV4dAuYVK7kDRgSoCQfFWV+2hGHRqSj1iSFRQZCy4dwafeVBBO4yM7q2re9F0f8aAHVusdKWMYccOX7Vp1lzdgsMaISYM4YJiZrRiMYTs+pc98E7TBFas268tU0J241qrw/h91YCQCUd4AzLsFtQiBsRUdLU2yj/u7SrmaDC5NTjCd25LgWEifUqikUbjOI+LZwfj3Yo1NikiNCKzBUUK1r10OrqnwZ15Bhl3EjmfGW+IzQIF7toQfMNtO4nJjr5z206Ojvf8A0fHrwjGjn7T9wtAGfhRgDMIQ7ea3EJ3BoNgbgfCKRVDLe12w7mMAppx6FCLJjxim+7K4A5vwo8cZKJURr2xOHTiDrPeaYvlxB0ear6jjFuQrT2VzaGgAbovCZqg+JWAt/1yd+dMO+MVGH0XsXMJNto53bAzmMbjeYnXPNxwDAohu1si+OBzRoKbl2878BPgwfeyO3CDKxhuz34IPvgoqlvQfucABBO4Qqe6V7DlMW8IR8OH+Y/2S44vj09P1x+C9P+Pv/yYH11/NeI//gs=);whiteSpace=wrap;overflow=block;html=1;fontSize=11;strokeOpacity=0;fillOpacity=100;fillColor=#ffffff;whiteSpace=wrap;fontSize=11;spacing=0;" parent="-IOmw9dpuARAz1iLvbC0-87" vertex="1">
          <mxGeometry width="112" height="106" relative="1" as="geometry" />
        </mxCell>
        <mxCell id="-IOmw9dpuARAz1iLvbC0-94" value="" style="shape=stencil(pZLRDoIwDEW/Zq8La3HwjvgfRIYsIiMDFP9e5iaQQUiIb1132pu2l2DSllkjCARtp9VdvGTelQTPBEDWpdCyGyOCKcGkUFrctOrr3L6bzJAmeqin6TDYuggomiII3jaBnPJv4mLxStYLPGYU/sKjXRxp7HU/0juk4RH8tIev9+Lh117bPbJfgcOZxwcDOILRyDEwMdwxuGJwawUr1Zln00HQ0wVPla9U52Fx+6xjMDuokFVlDbj89x03pqxbMf0A);whiteSpace=wrap;overflow=block;html=1;fontSize=11;strokeOpacity=0;fillOpacity=100;fillColor=#ffffff;whiteSpace=wrap;fontSize=11;spacing=0;" parent="-IOmw9dpuARAz1iLvbC0-87" vertex="1">
          <mxGeometry width="112" height="106" relative="1" as="geometry" />
        </mxCell>
        <mxCell id="-IOmw9dpuARAz1iLvbC0-95" value="" style="shape=stencil(jVfbdtsgEPwaveoIECA9p8l/5CROrVPXzlGcNvn74goWNGsubzIemF3YnYFOPXwcn98PnRw+ruvl1+Hv8no9dupHJ+VyPh7W5eq+OvXYqYe3y3r4uV4+z6/b7/fnG/L29fvy57bC1zbPTL24TZLD9zYgh/8/nzbwy+e6oQXBtYeLHX74koSYPEIGRK88RjGMIoyt8E7AK3rJmDUwizCSMAtgDpgcs/WRpcwamG3IMGGWwBwxrTnHGYLtpGTRSTiPfMa7E96Xgzb7YrC9KYWoTT9CiGEGhegwGKLt532QCSYEOfmV88x4LFQiCfMIzHPYjMgMvAGR49UhP+KNa0rCSOCNsSmGac04zhBsHyWLTrLzyGUMZ1zRBxXCaFYImlHQCKUxTK4RqliKXCEUHX9eIRxmYrwCeT2mWSGSVbMKkUSXVYhKxkwfkl3M6kNyGvmM4YwrJSGmmpDtwyR8DNPQkn5EzKwgDBeyCm+cEQUUD4YxO8zcwDynzKflvBNRKkUPN2WPcRNQVFjtOgx6jEFfZa0dEDneMaSa8ILDaJRQi/VDiFYhQ8uY0U+TuELVDtgtmCsh8nuM3TLc2WPsFnZ30Zbx7gxjXwqudIJoQ9vnaxbDtHdMH2pW1UWsLGEzdoqCPrEDMFp0UkI0iRehA9+IXpbEFDhRMHmW5b3lgokGwQtgZDIdbxUklwUtsKgFtQuGZT05MZu32B8OgzYfMa19eYeZ8eLdnvwl4cWrnO0LG2Si9nm4LG8QuonD8+s4PgRk3eYJ09wjyaqZLnHPAPAS7JKah2GfJL6Y7ZPEX7PZome7j/hEfFtOp+2Fmf6PT0o3tD1H1eM/);whiteSpace=wrap;overflow=block;html=1;fontSize=11;strokeOpacity=0;fillOpacity=100;fillColor=#ffffff;whiteSpace=wrap;fontSize=11;spacing=0;" parent="-IOmw9dpuARAz1iLvbC0-87" vertex="1">
          <mxGeometry width="112" height="106" relative="1" as="geometry" />
        </mxCell>
        <mxCell id="-IOmw9dpuARAz1iLvbC0-96" value="" style="shape=stencil(pZLdDoIwDIWfZrcLa43ANeJ7EBmyiIyMH+HtZW4IDjQa79ruOz1pV4JRnScVJ+DVjZIXfhNpkxM8EABR5lyJZowIxgSjTCp+VrItU5NXiSZ1dJWd7tAbnQ8UtQi8wRQgfKRHAxeiXMABo/APTD/hSINXPKC7X7rvrf5L3Kf+e3y9FQc/tcpskU0CizOH93qwBJsqA0wDWgJXBG6vYOU6K9hT4fqC4xo6rvOouPWpYzDfTiaKwpze8t29tbFk7hTjOw==);whiteSpace=wrap;overflow=block;html=1;fontSize=11;strokeOpacity=0;fillOpacity=100;fillColor=#ffffff;whiteSpace=wrap;fontSize=11;spacing=0;" parent="-IOmw9dpuARAz1iLvbC0-87" vertex="1">
          <mxGeometry width="112" height="106" relative="1" as="geometry" />
        </mxCell>
        <mxCell id="-IOmw9dpuARAz1iLvbC0-97" value="" style="shape=stencil(jZTdkoIwDIWfprdMmywFrl19D2fFhVlXnIo/+/aCLSkm08W7Er7knCSdKlydm+2pVqDPvet+6lu76xuFnwqgPTa1a/vhpHCtcLXvXP3tustx579P25EcT7/ddaxw93m2zMyYBPrPB6DI7DOw8fjXxXneUEIeEgzL0HcgpgwMEFMFBgUTIlBmHwvKJVOmyEw5Z8rV1OBM2TDliUkpF1nBlGNVIAaZcnSHgnm355hhxCRBuAOxkXTPbM9L18IGI0mjzObER5uWSkabwGxaYXNpQDEjribnA3rVRR1q/jMeYlK6FdedVQ06hRZXMX/VJeLNbok3YoIgfIHYRPoysO0Oh/hg7NvDwb838//8gRlC/nHC9QM=);whiteSpace=wrap;overflow=block;html=1;fontSize=11;strokeOpacity=0;fillOpacity=100;fillColor=#ffffff;whiteSpace=wrap;fontSize=11;spacing=0;" parent="-IOmw9dpuARAz1iLvbC0-87" vertex="1">
          <mxGeometry width="112" height="106" relative="1" as="geometry" />
        </mxCell>
        <mxCell id="-IOmw9dpuARAz1iLvbC0-98" value="" style="shape=stencil(pZLRDoIwDEW/Zq8La6PAM+J/EBmyiIxMUPx7mZsMBiEa37rutDdtL8HkVmYNJxDcWiUv/CHytiR4IACiLrkS7RARTAkmhVT8rGRX5+bdZJrU0VXedYfe1IVAURdB8DQJCOjunTgavBL1BI8Yhb9wtokjjWY4i2n8Q3cW2WG+xOMtfLEZHz91ymySfQoszjw+6MESjIaWgZHZWwYXDK4vYaHrKth4FF8Z5rrj2ZyuGxfXTzsEzkWFqCpjwum/77ohZRyL6Qs=);whiteSpace=wrap;overflow=block;html=1;fontSize=11;strokeOpacity=0;fillOpacity=100;fillColor=#ffffff;whiteSpace=wrap;fontSize=11;spacing=0;" parent="-IOmw9dpuARAz1iLvbC0-87" vertex="1">
          <mxGeometry width="112" height="106" relative="1" as="geometry" />
        </mxCell>
        <mxCell id="-IOmw9dpuARAz1iLvbC0-99" value="" style="shape=stencil(pZbbcoIwEIafhtsM2YUErq19D6diZWrVQW3t2zeUkJBdmsh4x+FbdvffA8lwddlvzk0G+eXanT6a73Z73Wf4kgG0x33TtVdzleE6w9Xu1DXv3el23A73501P9lefp6/+C/fBDipR9EaQ/wwPFIjy78HrgL/duoGXw3vMhbQGkljkd7DMSNh7haOTOxLC3qvSftV6PbTHSZDGZx0GWf0PQ/kUTAKh6U8MJEvOpgtKaCKAlwiZ7jgvfFgnRFGFgdYCI4oVrkoOL6I4ULxcgGudwCXFVQRHUpM4DrAU10/ikVQZHhdyDo+UCXBJC6Q6JrUI4nOgXAvIgPdTUIw9P5mCmkyBZx5aBBP+gdmmjZGAqwjM0ncD7dKvBBUAnETgGCACSBcjOia6f42FYp418SyZ9LWLDhmDD7WqJNLTQZgJlEhkLGoWqAoD1ZVt0ohEOiUR0N40FhUrTsk80+6EGc/1ksVFcPYvLcZkJ4ESiQzDJarCQA2zUCIsZyRC4rl0GwFYAZExON8WRKKSbpk6GWgRBjppZWDJ+EHTKYlSg2YsNPHsx9cXp2CeJfVM/UbkAUFW/CI4cXaZGPijG223nLaboouDn1wCr+bCHzZ37eEwnFWn7+nh1DwaDra4/gU=);whiteSpace=wrap;overflow=block;html=1;fontSize=11;strokeOpacity=0;fillOpacity=100;fillColor=#ffffff;whiteSpace=wrap;fontSize=11;spacing=0;" parent="-IOmw9dpuARAz1iLvbC0-87" vertex="1">
          <mxGeometry width="112" height="106" relative="1" as="geometry" />
        </mxCell>
        <mxCell id="-IOmw9dpuARAz1iLvbC0-100" value="" style="shape=stencil(jVTLEoIwDPyaXjs04eUZ9T8cBemI4FR8/b1gS4upgLeQ7ma3aQLD7FruLjmD4Nqq5pQ/5KEtGa4ZgKzLXMm2ixhuGGZFo/Kjam71QX9fdj2yj87Nva/w1DxIeNSTIHjpRBLz9JPYangl6zF8xXEWvr8pXV5YQmIIgjCCJ1iMybzAYkKDQQ+DFgNzRr9tovE9bTMiNpGLRZvA40WbYOpMK6dEWQw9HikDUQ485XRomVUeMFPKifc0ripYjCDKzh16mH/v7BjC66RTDomyr0t7TV6ZjMRw29/z45v05jZcbI6bbWcyIibJxnSBW85CVpXe7fE5XeYupX8EuHkD);whiteSpace=wrap;overflow=block;html=1;fontSize=11;strokeOpacity=0;fillOpacity=100;fillColor=#ffffff;whiteSpace=wrap;fontSize=11;spacing=0;" parent="-IOmw9dpuARAz1iLvbC0-87" vertex="1">
          <mxGeometry width="112" height="106" relative="1" as="geometry" />
        </mxCell>
        <mxCell id="-IOmw9dpuARAz1iLvbC0-101" value="" style="shape=stencil(pZLdDoIwDIWfprcNW5nMa8T3IGG4RWRkzL+3lzkSEQ3RcHd29rXp1gOU97rsFPCk984e1dVUXgPtgHPTauWMHxRQAZTX1qmDs+e2iueuDGRQJ3sJHW6xjgRuQxFP7tGQG0yfxj7ijWmnOCF7xxmKBZxhtgqXKJeGWQGn40O+w2Js9WPvDPkqfPlXPlb0Jz7b6CBeaahN08QwTe/n6RmsmDwqHg==);whiteSpace=wrap;overflow=block;html=1;fontSize=11;strokeOpacity=0;fillOpacity=100;fillColor=#ffffff;whiteSpace=wrap;fontSize=11;spacing=0;" parent="-IOmw9dpuARAz1iLvbC0-87" vertex="1">
          <mxGeometry width="112" height="106" relative="1" as="geometry" />
        </mxCell>
        <mxCell id="-IOmw9dpuARAz1iLvbC0-102" value="" style="shape=stencil(nZbRdoMgDIafxluOJIhy3XXv0bPa6VlXe6zdurefDgSbWKy7Q/zjJyH5IcHNpdqdywTSS9c2H+V3ve+qBF8SgPpUlW3d9aMEtwluDk1bvrfN9bS3z+fdoBxGn83X8IWbjYNcqCEI0h87UYAo/iZerfzt2lq99AHGBUgSkd7AaQoBTgNMg14zgvFJciE0IxtGLggZGdcQLgoZ5Rr3PnBRIOEGjeeKjJCDJpDjK+ZktchVY+4Dl1CVy/zjPNMdVn4tIc854+Ys0xkj5wtkxcisthiXVlbOKkvd5/lYn6YtoP1a/ieHqHypwUg/ZmNpjXLpsjj/dSYv1v37Srm+bxW2VB2Vz+z36BOSRMQqTS/Ut17oKSTMjLmI8ZULXkOrzHinQa+JkjFlXNJVmDLfzGg39xokXOX+/yHXryZ0lWZkTcjMRyaaJ/1rEhGcExhZETJQJ5nkJZwVcQ8z/JRie0xXLGf2mHJlfI9nvFPSXE9cLpDpWZEz71zpA0TeD8IV4FAfj/YGMX1Prwz9lL1u4PYX);whiteSpace=wrap;overflow=block;html=1;fontSize=11;strokeOpacity=0;fillOpacity=100;fillColor=#ffffff;whiteSpace=wrap;fontSize=11;spacing=0;" parent="-IOmw9dpuARAz1iLvbC0-87" vertex="1">
          <mxGeometry width="112" height="106" relative="1" as="geometry" />
        </mxCell>
        <mxCell id="-IOmw9dpuARAz1iLvbC0-103" value="" style="shape=stencil(lZHNDoMgEISfZq8EFmvwbO17mIiFlIJB+/f2hXKo5UDDbRi+nWx2gPerGhcJSNfNu4t86GlTwI+AqK2SXm9BAR+A97Pz8uzdzU7pvYyRjOrq7jHhmeaQkSYOIX0lQ7Sk+xinhBttdzjrSPuLM3Io4IKwChxpni6IKOCYp5fxpmp35HW7/ztkEN8SZm1M6nD/n5cWrFQ4H94=);whiteSpace=wrap;overflow=block;html=1;fontSize=11;strokeOpacity=0;fillOpacity=100;fillColor=#ffffff;whiteSpace=wrap;fontSize=11;spacing=0;" parent="-IOmw9dpuARAz1iLvbC0-87" vertex="1">
          <mxGeometry width="112" height="106" relative="1" as="geometry" />
        </mxCell>
        <mxCell id="-IOmw9dpuARAz1iLvbC0-104" value="" style="shape=stencil(lZHdDoIwDIWfprfN1hEH14jvQcKQxbmRMfx5e5kjEYwhcnfafqdpekCUQ1f3CogNwbuLuusmdCCOQKRtp7wOkwJRgShb59XZu9E2qe7rSEZ1dbe44ZF8kiOPJmLP1Mjzd3lKsNF2AR8KzNYw4RYusdiBS4ZijRez/zfO52V/4hnSnmMI5R58+42T+ATQamNSfsv5d2BTK4Utqhc=);whiteSpace=wrap;overflow=block;html=1;fontSize=11;strokeOpacity=0;fillOpacity=100;fillColor=#ffffff;whiteSpace=wrap;fontSize=11;spacing=0;" parent="-IOmw9dpuARAz1iLvbC0-87" vertex="1">
          <mxGeometry width="112" height="106" relative="1" as="geometry" />
        </mxCell>
        <mxCell id="-IOmw9dpuARAz1iLvbC0-105" value="" style="shape=stencil(nZTLssIgDEC/hq1TEgHv2sd/OFotY20drK+/txWITBjtHXcUTjiEkAqcn6v1qRRQnDvXHsqb3XaVwIUAsE1VOtv1I4FLgfNd68q9ay/N1n+f1gM5jI7tddjh7uM0TNQQBMXDTxgzmb4mVh7fXJznJQXoECBZRHEHYmaBAWIwMEjMX2CQGPnVjMyr4w7kRWbV8RxkRebUIZv/O3HUKbNMZ8yqwsk/37FhXkWZQFY4IMZkZp6vGskX4ukTs2ZmmVX3zSAxI+baNukzLCjj33DzFZfxhX7As2uQ9Dgli0gLwEtvYkmSAih2Day9+sG7NXe2rn1np+u8lfsp/xvA5RM=);whiteSpace=wrap;overflow=block;html=1;fontSize=11;strokeOpacity=0;fillOpacity=100;fillColor=#ffffff;whiteSpace=wrap;fontSize=11;spacing=0;" parent="-IOmw9dpuARAz1iLvbC0-87" vertex="1">
          <mxGeometry width="112" height="106" relative="1" as="geometry" />
        </mxCell>
        <mxCell id="-IOmw9dpuARAz1iLvbC0-106" value="" style="group;html=1;" parent="-IOmw9dpuARAz1iLvbC0-82" vertex="1">
          <mxGeometry x="508" y="41" width="112" height="106" as="geometry" />
        </mxCell>
        <mxCell id="-IOmw9dpuARAz1iLvbC0-107" value="" style="shape=stencil(pZLdDsIgDIWfpreEH6NyPed7LBkTIsLC8O/tBRujLNky9e709GtTwgFRDbrpFXA6xOCP6mraqEHsgHPjtAomJgWiBlF1PqhD8GfXYt03mczq5C95ww3n5Jas8hCndzQY2TzrPdLWuDk6GWIaZ2T9B/3dJSO6fCUtUDq9tgQZnUFfzZ9gKQlfTi8+uACTeP96Z6zF0Hz2xylJFiZM1A8=);whiteSpace=wrap;overflow=block;html=1;fontSize=11;strokeOpacity=0;fillOpacity=100;fillColor=#ffffff;whiteSpace=wrap;fontSize=11;spacing=0;" parent="-IOmw9dpuARAz1iLvbC0-106" vertex="1">
          <mxGeometry width="112" height="106" relative="1" as="geometry" />
        </mxCell>
        <mxCell id="-IOmw9dpuARAz1iLvbC0-108" value="" style="shape=stencil(nZHLDoMgEEW/ZrZEGdB0be1/mIiF1IJB+vr7QmdRS1MTu7sczsxiLmAz625SwIs5eHdSN9MHDbgHzo3VypsQE2AL2AzOq6N3F9vTe+qSmdLZXdOGO81Jyeo0xIsHAVEz/gIH0kdjl3rJyg89ArGi59sjqLboyORvvRL/y2K3Jn9fZaOeHTGGdwGDGUfqb/mfFxYRlY3tEw==);whiteSpace=wrap;overflow=block;html=1;fontSize=11;strokeOpacity=0;fillOpacity=100;fillColor=#ffffff;whiteSpace=wrap;fontSize=11;spacing=0;" parent="-IOmw9dpuARAz1iLvbC0-106" vertex="1">
          <mxGeometry width="112" height="106" relative="1" as="geometry" />
        </mxCell>
        <mxCell id="-IOmw9dpuARAz1iLvbC0-109" value="" style="shape=stencil(pZHbDsIgEES/Zl9J3QWbPtf6H01KhYjQULz9vSAm1nsa32aHMxuyA1SPqh0kYDEG77byqLuggFaAqK2SXoeogBqgundebrzb2y7PQ5vIpHbukDacco6XbJlCWJyzIRaMX411xo22UxxZ9YDHPM7BK0afceKs/AcX9A1/+cxcXNxO9R7/dcgo7iX02pjc4fT9ubRo5cKpuQA=);whiteSpace=wrap;overflow=block;html=1;fontSize=11;strokeOpacity=0;fillOpacity=100;fillColor=#ffffff;whiteSpace=wrap;fontSize=11;spacing=0;" parent="-IOmw9dpuARAz1iLvbC0-106" vertex="1">
          <mxGeometry width="112" height="106" relative="1" as="geometry" />
        </mxCell>
        <mxCell id="-IOmw9dpuARAz1iLvbC0-110" value="" style="shape=stencil(pZHdDsIgDIWfprdkoyLues73WDImRISFMX/eXhATJ0bN4t3p6dem6QGsR9kOAmgxemcP4qw6LwG3QKkyUjjlgwJsAOveOrF3djJdqoc2klEd7SluuKQ5VpJNHKLF9WEgYXdjl3CtzAxfcVL9g68poV9wlh3zA68If8U5KT/j4dQl298+sxDPPxPEM4ReaZ0ynPfz0IKVAsfmBg==);whiteSpace=wrap;overflow=block;html=1;fontSize=11;strokeOpacity=0;fillOpacity=100;fillColor=#ffffff;whiteSpace=wrap;fontSize=11;spacing=0;" parent="-IOmw9dpuARAz1iLvbC0-106" vertex="1">
          <mxGeometry width="112" height="106" relative="1" as="geometry" />
        </mxCell>
        <mxCell id="-IOmw9dpuARAz1iLvbC0-111" value="" style="shape=stencil(pZHLDsIgEEW/ZrYEGfGxrvU/mpQKEaGhVO3fF6SJFU2Txt3lcuaRuYBFJ6tWAKOdd/YqHqr2EvAEjCkjhVM+KMASsGisExdne1Ond1tFMqqbvccOz1S33ZNDLGJ0mIwjYS/jnHCtzAznG7L7C6eEL+CYL7OIh9mfOPJp3G+cr+v+dZmVeHaZIN4hNErrlOH8Pw8tWClwLEc=);whiteSpace=wrap;overflow=block;html=1;fontSize=11;strokeOpacity=0;fillOpacity=100;fillColor=#ffffff;whiteSpace=wrap;fontSize=11;spacing=0;" parent="-IOmw9dpuARAz1iLvbC0-106" vertex="1">
          <mxGeometry width="112" height="106" relative="1" as="geometry" />
        </mxCell>
        <mxCell id="-IOmw9dpuARAz1iLvbC0-112" value="" style="shape=stencil(pVvLctw2EPwaXbeIATAAzo7zH65YjlRRJJcsJ87fh8qSANhNDpbOTaYbxGAePQ9w7/yHbw+fvt7fyfTt7fXlj/u/Hz+/Pdz5X+5EHp8f7l8f3+a/7vzHO//hy8vr/e+vL9+fP1///fXTO/L9rz9f/np/w4/ruiAX975Ipn+uD9x0Cf89+PUK/+376xXv6oK0LHCwYvohC8Zf/IKRiikLxhNmeeLcRfudnx6fe0EbfoGnSzyGS/mfcFADCDPS2lbJkgdwEIbgpuzOL3r7Wbi7ZMvi3YL1idva24WLkL1Xn/AVU8DeJ5Vgq3hCA+btqeDtCJe4iHebzk7CTwqD8O1RfayavOXtBLdlF7c4z0/CTwpjH5WD3nw7wW3ZfQIXOwk/KYx9VPJ3Scv628LDByuayCNPwk8Kg/CBVe23E9yWnaj8JPykMIOjrtxahYlL+jxKr9OWar2ulljJ1ucacVIdE5Jr56rrk2KdilwbxQQljE414Gb77QSfs60RZ3NiiSac8lnYqrjiWz5r7i8Vg/msYXzVypmccFIJtoqJV+23EzxMW9lRZ/OCCFqrxF8dM1YnaloTcMxQq0d/i3EpvZyEn1SDreQMmc4vpzvQWY41ShysqDrLisE8YyCYO0yrpQwldPhqKjUFVTKuYEnfHaYV+Q4EBTErYldMjUAiCEcxtfmXIxEWoXTl+k7MrZDq67YHHkj7uhqKazQAX0StXr3GQqi0vewSHfY73tsxN68Q2NcjU3UYIYwnTNvZTELR0b7gDnFCd/DkDh1m3VesaOzwSzSL3Yp2C1yNf1YQkJJUQ3QKAs8Vy29rbKw8YAqpHq04Rzgw5+y1IGTHFKvfIgcA+wAH2FQFRQpVTNE6UfRIFx7OExNG4VzGAKvpRF5ZBnEIUdgmEZ0eIQ6DYjQoZaAamUf7Bpx4xEgW9GjBWLBimE8MNpxdySjKYobspCPCUCQqVSTIKPWlq+ipHsaTP3jAHFWt4BDdO1dDEFFprOZbHSBXt2kKMolqztcwmogFGaDSbDMN7+xxODFyim6FI1cTkq4VRMMzj8IgcFpowSVgjyrJyMLbkN/yQ5cAqyMafqsKPK5muTL7gWzhas0Bk0Adncz2LmGrkqIpe8CjJuvt2oahy4NiljwOj+rtDMelR1V9o56GEcJ4wvh9E5LFo6lkElRQ0LqiCSpYM3SYJhY0rinY1KOUjVLAlrmr+drOlBdg32hX952nuLqC8zrkwaS4K4Z/0sF524p1X86C4BApkUMEzL4zxmwSlHZF0lEi2pSxJlTqmmeMnX09nTfvZF+hnVHTghRfMcc+rbQz6lp2dgaKVyovK2afJSYglZPw7CzKiljsnYTbdDskDuioFWppnezk1y2oFLm1CHfU6qhRpY5anZUVqKPO5WxHXSbk7Qy1QZmQkuaeG8ihTFYmjRnERDgVjBk5rBNCKsaRoODhMZOYdgbfZsFkDmmSoAdGSwkJ2zMbnqcNOHvz3RnenaN10AzgZHZsgj7mTPgEzUE2/Dd5GO+m0QDJjkqYPQYgoDiIDk/RoTQY8wVr566XObxC1nTqCnkOY3sY73fiA++6qaopfNctmG3LZM6KUaMIH420OxHaQCGSmDzSBlpEBdFIe+uyI/Z2VKvNK+gueStmdab+Jhk7+GKZfeifW3fuLqoXRdljST5UoTMJ1oFuwoqsw7TvIaxrDxpDmb7PcPPykuBy5t32FRrBB3eRBDdJl+B4LUP2EywpeKzs6IOWEJCNunsoD5gjt9ySMsJ3Rg4CgioWFV5oAkb1aIe5ddhB3/xEmkR7qsGj7tz+QHcXs+kpFLmDZsFRs9BKnC4YwZY8quswbXhnhwtlFpsJqV8ubsfpgDUK3acxF1bMfgrE2gvhOykQ2U0wV4dAuYVK7kDRgSoCQfFWV+2hGHRqSj1iSFRQZCy4dwafeVBBO4yM7q2re9F0f8aAHVusdKWMYccOX7Vp1lzdgsMaISYM4YJiZrRiMYTs+pc98E7TBFas268tU0J241qrw/h91YCQCUd4AzLsFtQiBsRUdLU2yj/u7SrmaDC5NTjCd25LgWEifUqikUbjOI+LZwfj3Yo1NikiNCKzBUUK1r10OrqnwZ15Bhl3EjmfGW+IzQIF7toQfMNtO4nJjr5z206Ojvf8A0fHrwjGjn7T9wtAGfhRgDMIQ7ea3EJ3BoNgbgfCKRVDLe12w7mMAppx6FCLJjxim+7K4A5vwo8cZKJURr2xOHTiDrPeaYvlxB0ear6jjFuQrT2VzaGgAbovCZqg+JWAt/1yd+dMO+MVGH0XsXMJNto53bAzmMbjeYnXPNxwDAohu1si+OBzRoKbl2878BPgwfeyO3CDKxhuz34IPvgoqlvQfucABBO4Qqe6V7DlMW8IR8OH+Y/2S44vj09P1x+C9P+Pv/yYH11/NeI//gs=);whiteSpace=wrap;overflow=block;html=1;fontSize=11;strokeOpacity=0;fillOpacity=100;fillColor=#ffffff;whiteSpace=wrap;fontSize=11;spacing=0;" parent="-IOmw9dpuARAz1iLvbC0-106" vertex="1">
          <mxGeometry width="112" height="106" relative="1" as="geometry" />
        </mxCell>
        <mxCell id="-IOmw9dpuARAz1iLvbC0-113" value="" style="shape=stencil(pZLRDoIwDEW/Zq8La3HwjvgfRIYsIiMDFP9e5iaQQUiIb1132pu2l2DSllkjCARtp9VdvGTelQTPBEDWpdCyGyOCKcGkUFrctOrr3L6bzJAmeqin6TDYuggomiII3jaBnPJv4mLxStYLPGYU/sKjXRxp7HU/0juk4RH8tIev9+Lh117bPbJfgcOZxwcDOILRyDEwMdwxuGJwawUr1Zln00HQ0wVPla9U52Fx+6xjMDuokFVlDbj89x03pqxbMf0A);whiteSpace=wrap;overflow=block;html=1;fontSize=11;strokeOpacity=0;fillOpacity=100;fillColor=#ffffff;whiteSpace=wrap;fontSize=11;spacing=0;" parent="-IOmw9dpuARAz1iLvbC0-106" vertex="1">
          <mxGeometry width="112" height="106" relative="1" as="geometry" />
        </mxCell>
        <mxCell id="-IOmw9dpuARAz1iLvbC0-114" value="" style="shape=stencil(jVfbdtsgEPwaveoIECA9p8l/5CROrVPXzlGcNvn74goWNGsubzIemF3YnYFOPXwcn98PnRw+ruvl1+Hv8no9dupHJ+VyPh7W5eq+OvXYqYe3y3r4uV4+z6/b7/fnG/L29fvy57bC1zbPTL24TZLD9zYgh/8/nzbwy+e6oQXBtYeLHX74koSYPEIGRK88RjGMIoyt8E7AK3rJmDUwizCSMAtgDpgcs/WRpcwamG3IMGGWwBwxrTnHGYLtpGTRSTiPfMa7E96Xgzb7YrC9KYWoTT9CiGEGhegwGKLt532QCSYEOfmV88x4LFQiCfMIzHPYjMgMvAGR49UhP+KNa0rCSOCNsSmGac04zhBsHyWLTrLzyGUMZ1zRBxXCaFYImlHQCKUxTK4RqliKXCEUHX9eIRxmYrwCeT2mWSGSVbMKkUSXVYhKxkwfkl3M6kNyGvmM4YwrJSGmmpDtwyR8DNPQkn5EzKwgDBeyCm+cEQUUD4YxO8zcwDynzKflvBNRKkUPN2WPcRNQVFjtOgx6jEFfZa0dEDneMaSa8ILDaJRQi/VDiFYhQ8uY0U+TuELVDtgtmCsh8nuM3TLc2WPsFnZ30Zbx7gxjXwqudIJoQ9vnaxbDtHdMH2pW1UWsLGEzdoqCPrEDMFp0UkI0iRehA9+IXpbEFDhRMHmW5b3lgokGwQtgZDIdbxUklwUtsKgFtQuGZT05MZu32B8OgzYfMa19eYeZ8eLdnvwl4cWrnO0LG2Si9nm4LG8QuonD8+s4PgRk3eYJ09wjyaqZLnHPAPAS7JKah2GfJL6Y7ZPEX7PZome7j/hEfFtOp+2Fmf6PT0o3tD1H1eM/);whiteSpace=wrap;overflow=block;html=1;fontSize=11;strokeOpacity=0;fillOpacity=100;fillColor=#ffffff;whiteSpace=wrap;fontSize=11;spacing=0;" parent="-IOmw9dpuARAz1iLvbC0-106" vertex="1">
          <mxGeometry width="112" height="106" relative="1" as="geometry" />
        </mxCell>
        <mxCell id="-IOmw9dpuARAz1iLvbC0-115" value="" style="shape=stencil(pZLdDoIwDIWfZrcLa43ANeJ7EBmyiIyMH+HtZW4IDjQa79ruOz1pV4JRnScVJ+DVjZIXfhNpkxM8EABR5lyJZowIxgSjTCp+VrItU5NXiSZ1dJWd7tAbnQ8UtQi8wRQgfKRHAxeiXMABo/APTD/hSINXPKC7X7rvrf5L3Kf+e3y9FQc/tcpskU0CizOH93qwBJsqA0wDWgJXBG6vYOU6K9hT4fqC4xo6rvOouPWpYzDfTiaKwpze8t29tbFk7hTjOw==);whiteSpace=wrap;overflow=block;html=1;fontSize=11;strokeOpacity=0;fillOpacity=100;fillColor=#ffffff;whiteSpace=wrap;fontSize=11;spacing=0;" parent="-IOmw9dpuARAz1iLvbC0-106" vertex="1">
          <mxGeometry width="112" height="106" relative="1" as="geometry" />
        </mxCell>
        <mxCell id="-IOmw9dpuARAz1iLvbC0-116" value="" style="shape=stencil(jZTdkoIwDIWfprdMmywFrl19D2fFhVlXnIo/+/aCLSkm08W7Er7knCSdKlydm+2pVqDPvet+6lu76xuFnwqgPTa1a/vhpHCtcLXvXP3tustx579P25EcT7/ddaxw93m2zMyYBPrPB6DI7DOw8fjXxXneUEIeEgzL0HcgpgwMEFMFBgUTIlBmHwvKJVOmyEw5Z8rV1OBM2TDliUkpF1nBlGNVIAaZcnSHgnm355hhxCRBuAOxkXTPbM9L18IGI0mjzObER5uWSkabwGxaYXNpQDEjribnA3rVRR1q/jMeYlK6FdedVQ06hRZXMX/VJeLNbok3YoIgfIHYRPoysO0Oh/hg7NvDwb838//8gRlC/nHC9QM=);whiteSpace=wrap;overflow=block;html=1;fontSize=11;strokeOpacity=0;fillOpacity=100;fillColor=#ffffff;whiteSpace=wrap;fontSize=11;spacing=0;" parent="-IOmw9dpuARAz1iLvbC0-106" vertex="1">
          <mxGeometry width="112" height="106" relative="1" as="geometry" />
        </mxCell>
        <mxCell id="-IOmw9dpuARAz1iLvbC0-117" value="" style="shape=stencil(pZLRDoIwDEW/Zq8La6PAM+J/EBmyiIxMUPx7mZsMBiEa37rutDdtL8HkVmYNJxDcWiUv/CHytiR4IACiLrkS7RARTAkmhVT8rGRX5+bdZJrU0VXedYfe1IVAURdB8DQJCOjunTgavBL1BI8Yhb9wtokjjWY4i2n8Q3cW2WG+xOMtfLEZHz91ymySfQoszjw+6MESjIaWgZHZWwYXDK4vYaHrKth4FF8Z5rrj2ZyuGxfXTzsEzkWFqCpjwum/77ohZRyL6Qs=);whiteSpace=wrap;overflow=block;html=1;fontSize=11;strokeOpacity=0;fillOpacity=100;fillColor=#ffffff;whiteSpace=wrap;fontSize=11;spacing=0;" parent="-IOmw9dpuARAz1iLvbC0-106" vertex="1">
          <mxGeometry width="112" height="106" relative="1" as="geometry" />
        </mxCell>
        <mxCell id="-IOmw9dpuARAz1iLvbC0-118" value="" style="shape=stencil(pZbbcoIwEIafhtsM2YUErq19D6diZWrVQW3t2zeUkJBdmsh4x+FbdvffA8lwddlvzk0G+eXanT6a73Z73Wf4kgG0x33TtVdzleE6w9Xu1DXv3el23A73501P9lefp6/+C/fBDipR9EaQ/wwPFIjy78HrgL/duoGXw3vMhbQGkljkd7DMSNh7haOTOxLC3qvSftV6PbTHSZDGZx0GWf0PQ/kUTAKh6U8MJEvOpgtKaCKAlwiZ7jgvfFgnRFGFgdYCI4oVrkoOL6I4ULxcgGudwCXFVQRHUpM4DrAU10/ikVQZHhdyDo+UCXBJC6Q6JrUI4nOgXAvIgPdTUIw9P5mCmkyBZx5aBBP+gdmmjZGAqwjM0ncD7dKvBBUAnETgGCACSBcjOia6f42FYp418SyZ9LWLDhmDD7WqJNLTQZgJlEhkLGoWqAoD1ZVt0ohEOiUR0N40FhUrTsk80+6EGc/1ksVFcPYvLcZkJ4ESiQzDJarCQA2zUCIsZyRC4rl0GwFYAZExON8WRKKSbpk6GWgRBjppZWDJ+EHTKYlSg2YsNPHsx9cXp2CeJfVM/UbkAUFW/CI4cXaZGPijG223nLaboouDn1wCr+bCHzZ37eEwnFWn7+nh1DwaDra4/gU=);whiteSpace=wrap;overflow=block;html=1;fontSize=11;strokeOpacity=0;fillOpacity=100;fillColor=#ffffff;whiteSpace=wrap;fontSize=11;spacing=0;" parent="-IOmw9dpuARAz1iLvbC0-106" vertex="1">
          <mxGeometry width="112" height="106" relative="1" as="geometry" />
        </mxCell>
        <mxCell id="-IOmw9dpuARAz1iLvbC0-119" value="" style="shape=stencil(jVTLEoIwDPyaXjs04eUZ9T8cBemI4FR8/b1gS4upgLeQ7ma3aQLD7FruLjmD4Nqq5pQ/5KEtGa4ZgKzLXMm2ixhuGGZFo/Kjam71QX9fdj2yj87Nva/w1DxIeNSTIHjpRBLz9JPYangl6zF8xXEWvr8pXV5YQmIIgjCCJ1iMybzAYkKDQQ+DFgNzRr9tovE9bTMiNpGLRZvA40WbYOpMK6dEWQw9HikDUQ485XRomVUeMFPKifc0ripYjCDKzh16mH/v7BjC66RTDomyr0t7TV6ZjMRw29/z45v05jZcbI6bbWcyIibJxnSBW85CVpXe7fE5XeYupX8EuHkD);whiteSpace=wrap;overflow=block;html=1;fontSize=11;strokeOpacity=0;fillOpacity=100;fillColor=#ffffff;whiteSpace=wrap;fontSize=11;spacing=0;" parent="-IOmw9dpuARAz1iLvbC0-106" vertex="1">
          <mxGeometry width="112" height="106" relative="1" as="geometry" />
        </mxCell>
        <mxCell id="-IOmw9dpuARAz1iLvbC0-120" value="" style="shape=stencil(pZLdDoIwDIWfprcNW5nMa8T3IGG4RWRkzL+3lzkSEQ3RcHd29rXp1gOU97rsFPCk984e1dVUXgPtgHPTauWMHxRQAZTX1qmDs+e2iueuDGRQJ3sJHW6xjgRuQxFP7tGQG0yfxj7ijWmnOCF7xxmKBZxhtgqXKJeGWQGn40O+w2Js9WPvDPkqfPlXPlb0Jz7b6CBeaahN08QwTe/n6RmsmDwqHg==);whiteSpace=wrap;overflow=block;html=1;fontSize=11;strokeOpacity=0;fillOpacity=100;fillColor=#ffffff;whiteSpace=wrap;fontSize=11;spacing=0;" parent="-IOmw9dpuARAz1iLvbC0-106" vertex="1">
          <mxGeometry width="112" height="106" relative="1" as="geometry" />
        </mxCell>
        <mxCell id="-IOmw9dpuARAz1iLvbC0-121" value="" style="shape=stencil(nZbRdoMgDIafxluOJIhy3XXv0bPa6VlXe6zdurefDgSbWKy7Q/zjJyH5IcHNpdqdywTSS9c2H+V3ve+qBF8SgPpUlW3d9aMEtwluDk1bvrfN9bS3z+fdoBxGn83X8IWbjYNcqCEI0h87UYAo/iZerfzt2lq99AHGBUgSkd7AaQoBTgNMg14zgvFJciE0IxtGLggZGdcQLgoZ5Rr3PnBRIOEGjeeKjJCDJpDjK+ZktchVY+4Dl1CVy/zjPNMdVn4tIc854+Ys0xkj5wtkxcisthiXVlbOKkvd5/lYn6YtoP1a/ieHqHypwUg/ZmNpjXLpsjj/dSYv1v37Srm+bxW2VB2Vz+z36BOSRMQqTS/Ut17oKSTMjLmI8ZULXkOrzHinQa+JkjFlXNJVmDLfzGg39xokXOX+/yHXryZ0lWZkTcjMRyaaJ/1rEhGcExhZETJQJ5nkJZwVcQ8z/JRie0xXLGf2mHJlfI9nvFPSXE9cLpDpWZEz71zpA0TeD8IV4FAfj/YGMX1Prwz9lL1u4PYX);whiteSpace=wrap;overflow=block;html=1;fontSize=11;strokeOpacity=0;fillOpacity=100;fillColor=#ffffff;whiteSpace=wrap;fontSize=11;spacing=0;" parent="-IOmw9dpuARAz1iLvbC0-106" vertex="1">
          <mxGeometry width="112" height="106" relative="1" as="geometry" />
        </mxCell>
        <mxCell id="-IOmw9dpuARAz1iLvbC0-122" value="" style="shape=stencil(lZHNDoMgEISfZq8EFmvwbO17mIiFlIJB+/f2hXKo5UDDbRi+nWx2gPerGhcJSNfNu4t86GlTwI+AqK2SXm9BAR+A97Pz8uzdzU7pvYyRjOrq7jHhmeaQkSYOIX0lQ7Sk+xinhBttdzjrSPuLM3Io4IKwChxpni6IKOCYp5fxpmp35HW7/ztkEN8SZm1M6nD/n5cWrFQ4H94=);whiteSpace=wrap;overflow=block;html=1;fontSize=11;strokeOpacity=0;fillOpacity=100;fillColor=#ffffff;whiteSpace=wrap;fontSize=11;spacing=0;" parent="-IOmw9dpuARAz1iLvbC0-106" vertex="1">
          <mxGeometry width="112" height="106" relative="1" as="geometry" />
        </mxCell>
        <mxCell id="-IOmw9dpuARAz1iLvbC0-123" value="" style="shape=stencil(lZHdDoIwDIWfprfN1hEH14jvQcKQxbmRMfx5e5kjEYwhcnfafqdpekCUQ1f3CogNwbuLuusmdCCOQKRtp7wOkwJRgShb59XZu9E2qe7rSEZ1dbe44ZF8kiOPJmLP1Mjzd3lKsNF2AR8KzNYw4RYusdiBS4ZijRez/zfO52V/4hnSnmMI5R58+42T+ATQamNSfsv5d2BTK4Utqhc=);whiteSpace=wrap;overflow=block;html=1;fontSize=11;strokeOpacity=0;fillOpacity=100;fillColor=#ffffff;whiteSpace=wrap;fontSize=11;spacing=0;" parent="-IOmw9dpuARAz1iLvbC0-106" vertex="1">
          <mxGeometry width="112" height="106" relative="1" as="geometry" />
        </mxCell>
        <mxCell id="-IOmw9dpuARAz1iLvbC0-124" value="" style="shape=stencil(nZTLssIgDEC/hq1TEgHv2sd/OFotY20drK+/txWITBjtHXcUTjiEkAqcn6v1qRRQnDvXHsqb3XaVwIUAsE1VOtv1I4FLgfNd68q9ay/N1n+f1gM5jI7tddjh7uM0TNQQBMXDTxgzmb4mVh7fXJznJQXoECBZRHEHYmaBAWIwMEjMX2CQGPnVjMyr4w7kRWbV8RxkRebUIZv/O3HUKbNMZ8yqwsk/37FhXkWZQFY4IMZkZp6vGskX4ukTs2ZmmVX3zSAxI+baNukzLCjj33DzFZfxhX7As2uQ9Dgli0gLwEtvYkmSAih2Day9+sG7NXe2rn1np+u8lfsp/xvA5RM=);whiteSpace=wrap;overflow=block;html=1;fontSize=11;strokeOpacity=0;fillOpacity=100;fillColor=#ffffff;whiteSpace=wrap;fontSize=11;spacing=0;" parent="-IOmw9dpuARAz1iLvbC0-106" vertex="1">
          <mxGeometry width="112" height="106" relative="1" as="geometry" />
        </mxCell>
        <mxCell id="-IOmw9dpuARAz1iLvbC0-125" value="" style="group;html=1;" parent="1" vertex="1">
          <mxGeometry x="694" y="266" width="57" height="46" as="geometry" />
        </mxCell>
        <mxCell id="-IOmw9dpuARAz1iLvbC0-126" value="" style="shape=stencil(jZbRdoIwDIafhtuetoEC1257D8/EyZkTD+qmbz84TRsSsHjXxr/4Nf2TNoPN5bA9N5nVl2vffTd/7e56yOAts7Y9HZq+vQ6jDN4z2Oy7vvnqu9tp5+fn7agcRz/d7/iFu19XW1WPi6x++ADg/MOrP2+9lxvUF8qg3vAF+m5R4lSFEoy4sOYOMwlGKlVO//bYnqaQJMeAUZCkpAUhMseknRC45KTsgNAsguZWFRxUyCUo1CoXoASBWOCiJqJzTIAZJjyHpH3j6VTKJhnjxzHgSlxAiCEQT7xQTjBGCQaccBqHJDnO7Uoioz4EdMgaQdYccjBdxSELjmjLJCKIw3ZpU0LMSWDM0fSEKAqHTItEedzVA7hkuXBWqpv3gsnHfUAnt1NK62qxmTzmByOiusBI29q0JYDRDelzKUAjLREPKCJqYYhaNgDN+aQLOaBmeNLfEk9zOOdkgzJxv6GoaulXSgkGSoOHspxBK0q/XresyGFdzT0r273RmmNO2iJwyWuuFer1bk8EEul5rydJ6KHikuGQJF+8wGZm1OK8X7g2RRbnl1Eih+laHgb0INi3x6N/T0x/lw+IIeQfH/D+Dw==);whiteSpace=wrap;fontSize=11;strokeOpacity=0;fillOpacity=100;fillColor=#ffffff;whiteSpace=wrap;spacing=0;" parent="-IOmw9dpuARAz1iLvbC0-125" vertex="1">
          <mxGeometry width="57" height="46" relative="1" as="geometry" />
        </mxCell>
        <mxCell id="-IOmw9dpuARAz1iLvbC0-127" value="" style="shape=stencil(lZLdEoIgEIWfhltGQEWuzd7DSUwmEwe19O2TYPyBxupuOXy7h10WkLSr8pYDHHS9kjf+FEVfAXICGIum4kr0cwRIBkhaSsWvSg5NYc5trkkd3eVDVxhNXoIh00k4mIxAMURv4WzwWjQbPGKQHuKXQZnyyCYkS33kZAQjXhirTFahxBLEI6xCw6++yPGNIPZ8meMbO75ru2RHfByOP8v4aJY+zg5gBpM9HP5VO2a2+x+f4nzrHKwbVIq6Ngu4vXc3bpbMtpLsBQ==);whiteSpace=wrap;fontSize=11;strokeOpacity=0;fillOpacity=100;fillColor=#ffffff;whiteSpace=wrap;spacing=0;" parent="-IOmw9dpuARAz1iLvbC0-125" vertex="1">
          <mxGeometry width="57" height="46" relative="1" as="geometry" />
        </mxCell>
        <mxCell id="-IOmw9dpuARAz1iLvbC0-128" value="" style="shape=stencil(lZLbEoIgEIafhluGgxRcW72Hk5hMpg5q2dsnQR7AnLpbfr7df/YAaNzkSS0BQU2rq6t8qLTNAT0AQlSZS63aIQL0CGicVVpedNWVqX3XiSFNdKvupkJv8ziBwiQR9LRCxOHuLZwsXqhyhjMB95v4udO2PHYJfKyPvQzUk5HBjnFKJCBzDA2Yj4Ic890ZL50ZXnEWS2dGAuepZeoxqyMKJvovzmC0gQvIlzja2le4Xua6+RH31jsE0yVlqijsIc7//csbJHu19PgC);whiteSpace=wrap;fontSize=11;strokeOpacity=0;fillOpacity=100;fillColor=#ffffff;whiteSpace=wrap;spacing=0;" parent="-IOmw9dpuARAz1iLvbC0-125" vertex="1">
          <mxGeometry width="57" height="46" relative="1" as="geometry" />
        </mxCell>
        <mxCell id="-IOmw9dpuARAz1iLvbC0-129" value="" style="shape=stencil(lVRJkoMwDHyNry4sGZOcs/wjlZCBykLKkGV+PzDG2JEKQm5G7qZbqJHAVV3sbrmApG5sdcqf5aEpBK4FQHktcls27UngRuDqWNn8x1b368E933Ydsjtdqkf3hpfj6YVMOxIkv0MB/gtbB9/frcOr/n45EBRhJC9wlTSRusfAwPIYZJhQMVPKEcNXlFy+K0fuvBcYMMhaRoIZ6zljysCUTe8+KCumHDAze44Yin1JYO6ATWS0ZzrnT7HQEieNpjIjRj0jGEVmNJOKGMVvYxEx/HA00Q3e/GjMjFCY6VC040Wia2goUmSh0O+6EWLub4AsEuErAvMGbBrjkSAzbg9hbRzL89ltnfierpm25FYUbv4A);whiteSpace=wrap;fontSize=11;strokeOpacity=0;fillOpacity=100;fillColor=#ffffff;whiteSpace=wrap;spacing=0;" parent="-IOmw9dpuARAz1iLvbC0-125" vertex="1">
          <mxGeometry width="57" height="46" relative="1" as="geometry" />
        </mxCell>
        <mxCell id="-IOmw9dpuARAz1iLvbC0-130" value="" style="shape=stencil(lZLREoIgEEW/hldGdtXk2eo/nMRkMnVQy/4+CcYMnMq35XJ277IswbQrs1YQCLpeNRdxl3lfEtwTAFmXQsl+iggeCKZFo8RZNUOdm3ObaVJH1+amK4wmLwHKdRIEDyMA0OglHA1eyXqBR5zuvuKnQZnyzCYkc33mZAQjzAyzjFUAaWgZ9BirQPjTmTnOEY09Z+44x3N36D0ZHWZ1RP5EN+Lcvn0d5zT5xMNN1Rm3M/izGed7p+C9SYWsKrOIy3t38ybJbC0eng==);whiteSpace=wrap;fontSize=11;strokeOpacity=0;fillOpacity=100;fillColor=#ffffff;whiteSpace=wrap;spacing=0;" parent="-IOmw9dpuARAz1iLvbC0-125" vertex="1">
          <mxGeometry width="57" height="46" relative="1" as="geometry" />
        </mxCell>
        <mxCell id="-IOmw9dpuARAz1iLvbC0-131" value="" style="shape=stencil(lVfRdpswDP0aXjlIMhieu+4/etZ04SxLemi6tX8/MrAtdGsgb8S58pUs6cou5OHt+PR6KLh6uw6XX4e//fP1WMi3grk/Hw9Dfx2/Cnks5OHlMhx+Dpf38/P0+/Xphrx9/b78ue3wMdm5tqxvRlx9Tgvsyub/wvcJ/uN9mPA0G3TRgIxF9cHTSl2VbsbMK1yXfsYIYOYV9mu8Ch9421KWvMq3wNsFq8CrAhaDyUXsgTntGpibcAaROXkngNkVscITnCKDbwzZyEdscrwsCWoCy2fcgNccJV+2S0ejRXSUWntAY7J46ajCpCJZLUZlEcqEys4wJ+9CeXLECIQsBpNjjqmIzAzMDpgJmBNmb8wOTruD007eMWQkG7PN84ZSeCrX6xeUIlqsKIXnEF5eKbwr6T6t8DV0LGiFb8JKvnMiZrdWqF2zWqG8y2rFVsyoFuoks2qhMpKP2eR5a4BUG2UBnRMtkqMCsiaQHLlvgCh84PUwQJDX7+FdRnzqz1pO29DzQU7dhrTEyREb3NkaIm+rd8SYefNFgwdMjlmiqwS7BmYCIfdzZSZmulvICYTc9KvyLWhHs0PGm42z9iDjDcg4jK4alII6WxR1vWReFoUTK6b1+ox1kBoPM9YZN9tq+/ITMTkpJVuMatdwHAKC5u0lRGH2iriAoFVw0UzezSuNt+MDY46Y3VKqdk3tZsqx6WwbODu2FvEuC4IpFtC+CwjTFxcQUxAjBi8gpiQUZmevKguY9IrZqkRrS4JT8sKBmcSYnnHmXiq0Lmc4aYRhGJt7kghc26F+ImZ3z6hdsz0jlRUV7JmNJxJ0jJqa2Y5R0zf/YDAzffxID8qX/nSa3qP6f/sAHZemx6s8/gM=);whiteSpace=wrap;fontSize=11;strokeOpacity=0;fillOpacity=100;fillColor=#ffffff;whiteSpace=wrap;spacing=0;" parent="-IOmw9dpuARAz1iLvbC0-125" vertex="1">
          <mxGeometry width="57" height="46" relative="1" as="geometry" />
        </mxCell>
        <mxCell id="-IOmw9dpuARAz1iLvbC0-132" value="" style="group;html=1;" parent="1" vertex="1">
          <mxGeometry x="775" y="264" width="258" height="48" as="geometry" />
        </mxCell>
        <mxCell id="-IOmw9dpuARAz1iLvbC0-133" value="" style="shape=stencil(nZBRDoQgDERP03+WHsHFe5iISyOCQdT19kIaIxq//Jtp3zTpAFaTaUYNUkwx+F6v1EYD+AUpyRkdKCYFqACrzgf9C352LfuxyWRWg1/yhT/nRE5IsZWuZtCSK8CPeI0e/hF+jV7AJM4PO7KWCyr390bSiNtEtQM=);whiteSpace=wrap;fontSize=11;strokeOpacity=0;fillOpacity=0;fillColor=#000000;whiteSpace=wrap;spacing=0;" parent="-IOmw9dpuARAz1iLvbC0-132" vertex="1">
          <mxGeometry width="258" height="48" relative="1" as="geometry" />
        </mxCell>
        <mxCell id="-IOmw9dpuARAz1iLvbC0-134" value="&lt;div style=&quot;display: flex; justify-content: flex-start; text-align: left; align-items: baseline; font-size: 0; line-height: 1;&quot;&gt;&lt;span style=&quot;font-size:11px;&quot;&gt;&lt;span style=&quot;font-size:21px;color:#ffffff;font-family: Carlito;&quot;&gt;Floating IP Pool &#xa;&lt;/span&gt;&lt;/span&gt;&lt;/div&gt;&lt;div style=&quot;display: flex; justify-content: flex-start; text-align: left; align-items: baseline; font-size: 0; line-height: 1;&quot;&gt;&lt;span style=&quot;font-size:11px;&quot;&gt;&lt;span style=&quot;font-size:21px;color:#ffffff;font-family: Carlito;&quot;&gt;(vIPs / Ingress Controllers)&lt;/span&gt;&lt;/span&gt;&lt;/div&gt;" style="strokeColor=none;fillColor=none;overflow=visible;whiteSpace=wrap;html=1;fontSize=11;whiteSpace=wrap;fontSize=11;spacing=0;strokeOpacity=0;fillOpacity=0;whiteSpace=wrap;fontSize=11;" parent="-IOmw9dpuARAz1iLvbC0-132" vertex="1">
          <mxGeometry x="0.021" y="0.111" width="247.422" height="37.344" relative="1" as="geometry" />
        </mxCell>
        <mxCell id="-IOmw9dpuARAz1iLvbC0-135" value="" style="group;html=1;" parent="1" vertex="1">
          <mxGeometry x="698" y="358" width="49" height="49" as="geometry" />
        </mxCell>
        <mxCell id="-IOmw9dpuARAz1iLvbC0-136" value="" style="shape=stencil(lZTdkoIwDIWfprdM2gCzXrvueziKS0cEp+IPb7+wLQ0NCHhXwil8OT2NwO0t318zoeBWm+qcPfWxzgV+C6V0mWdG1+1K4E7g9lSZ7NdU9/Jon6/7TtmtLtWj+8LL7tvIaNNtUtDYAkbp//OPVR/uxsql08dR7PQy3AAv5SSpl7hK4iU4krjKVySHvy10OYQkOaN+R5lySuL2mDHHpF2ek9zh5JOgfReek6k5pzemGYH3mN7eZsTdU5KEY09CknzSes6InDHhB55wROTnTb7gZMrYcS9kMkww9xw+agbCVmChEQjbmE0tBFhLkQXxaRAkgJh3uVesc5mpl+8UAXCi9zeKJKuySvJVWSX5+uHETBxf+RkPZ7PXLmjqnnRR2KE9fM+ndFuyEx53fw==);whiteSpace=wrap;overflow=block;html=1;fontSize=11;strokeOpacity=0;fillOpacity=100;fillColor=#ffffff;whiteSpace=wrap;fontSize=11;spacing=0;" parent="-IOmw9dpuARAz1iLvbC0-135" vertex="1">
          <mxGeometry width="49" height="49" relative="1" as="geometry" />
        </mxCell>
        <mxCell id="-IOmw9dpuARAz1iLvbC0-137" value="" style="shape=stencil(lZLRDoMgDEW/hleiLS767Nx/mImTzKlB3fTvJwHUoG7xrZRze0spwbgt0oYT8NpO1k/+EVlXELwSAFEVXIpuiggmBOO8lvwh677K9LlJFamiV/1WFQat8wMaKRF4o04wm7hpvBTVCg+Qsp/4vZe6vG8EbBb4jsIbwDABBcPAzPiGwQ1jMowZ5sh5UVhnnKvCpjvrDBQd5+XJ6DC7I9pO9ByOEQ2O8dA+Ydyfwr9eQno5gzu/OwXLIuWiLPUeru/dxZtSemkx+QI=);whiteSpace=wrap;overflow=block;html=1;fontSize=11;strokeOpacity=0;fillOpacity=100;fillColor=#ffffff;whiteSpace=wrap;fontSize=11;spacing=0;" parent="-IOmw9dpuARAz1iLvbC0-135" vertex="1">
          <mxGeometry width="49" height="49" relative="1" as="geometry" />
        </mxCell>
        <mxCell id="-IOmw9dpuARAz1iLvbC0-138" value="" style="shape=stencil(pZLREoIgEEW/hldGWNF8NvsPJzGZTB3Usr9PgsTAmmZ6Wy7n7i7LIkj7Ku84okE/yPbMb6IYKgR7RKloKi7FMEcIMgRp2Up+ku3YFPrc5YpU0aW9qgyT9jHAoTLR4K6FmOLoKRw0XotmhROGk3/wKDHCJr7D5D15aJr7sZcvqX04wvAZ98fi4MdR6jESYwgXA3EcwUQNwzA1jFFihplhwGNgewheZet4VV6aXyrb7qjzb7ayfTJs/+0c2DUqRV3rLVzfu2s3S3plIXsA);whiteSpace=wrap;overflow=block;html=1;fontSize=11;strokeOpacity=0;fillOpacity=100;fillColor=#ffffff;whiteSpace=wrap;fontSize=11;spacing=0;" parent="-IOmw9dpuARAz1iLvbC0-135" vertex="1">
          <mxGeometry width="49" height="49" relative="1" as="geometry" />
        </mxCell>
        <mxCell id="-IOmw9dpuARAz1iLvbC0-139" value="" style="shape=stencil(lZLZDoMgEEW/hlfC6vJs2/8wFSupFYPa6t9XAi5BbePbMJw7dxgG0KQp0loAgppWq6f4yKwtAL0AQmRVCC3bMQL0CmiSKy0eWnVVZs91akgTvdTbVOitLmIQGxFBg03wKXGzeCmrFc4CGPzE75225bET8FmAPQXqiWMYjBxDZiZ2DN0wLsO5Y46cF8XkHMxVyaa7yTmEoee8PJl6zO6IthM9hwcI8mM8xtMbhv0x/GsGQ3YG9753DJZNymVZ2kVc3/ubN6bs1tLrFw==);whiteSpace=wrap;overflow=block;html=1;fontSize=11;strokeOpacity=0;fillOpacity=100;fillColor=#ffffff;whiteSpace=wrap;fontSize=11;spacing=0;" parent="-IOmw9dpuARAz1iLvbC0-135" vertex="1">
          <mxGeometry width="49" height="49" relative="1" as="geometry" />
        </mxCell>
        <mxCell id="-IOmw9dpuARAz1iLvbC0-140" value="" style="shape=stencil(lZLdEoIgEIWfhltGWPy7NnsPJzWZTB3UsrdPAsXQdLpbD9/Zs+4sgqgtkiZD1Gk7Ud+yJ0+7AsEJUcqrIhO8GysEMYIor0V2FXVfpeq7SSQpq3v9kB0G5QsYJtJEnZcSKGD/I5wVXvJqgTMPe7v4pReqPdEGdzYQy+EMVDMMB5rRCmXY1QysGK3QqfOvZOOYkufh52Qz3ZTsY2Ylm18Gi9lc0Xqj/+HgaGETDwkOv7tbazgaZqf34S2MhbmjnJelOsPlu313o6RuFuI3);whiteSpace=wrap;overflow=block;html=1;fontSize=11;strokeOpacity=0;fillOpacity=100;fillColor=#ffffff;whiteSpace=wrap;fontSize=11;spacing=0;" parent="-IOmw9dpuARAz1iLvbC0-135" vertex="1">
          <mxGeometry width="49" height="49" relative="1" as="geometry" />
        </mxCell>
        <mxCell id="-IOmw9dpuARAz1iLvbC0-141" value="" style="group;html=1;" parent="1" vertex="1">
          <mxGeometry x="772" y="358" width="258" height="48" as="geometry" />
        </mxCell>
        <mxCell id="-IOmw9dpuARAz1iLvbC0-142" value="" style="shape=stencil(nZBRDoQgDERP03+WHsHFe5iISyOCQdT19kIaIxq//Jtp3zTpAFaTaUYNUkwx+F6v1EYD+AUpyRkdKCYFqACrzgf9C352LfuxyWRWg1/yhT/nRE5IsZWuZtCSK8CPeI0e/hF+jV7AJM4PO7KWCyr390bSiNtEtQM=);whiteSpace=wrap;overflow=block;html=1;fontSize=11;strokeOpacity=0;fillOpacity=0;fillColor=#000000;whiteSpace=wrap;fontSize=11;spacing=0;" parent="-IOmw9dpuARAz1iLvbC0-141" vertex="1">
          <mxGeometry width="258" height="48" relative="1" as="geometry" />
        </mxCell>
        <mxCell id="-IOmw9dpuARAz1iLvbC0-143" value="&lt;div style=&quot;display: flex ; justify-content: flex-start ; text-align: left ; align-items: baseline ; line-height: 1&quot;&gt;&lt;font color=&quot;#ffffff&quot; face=&quot;carlito&quot;&gt;&lt;span style=&quot;font-size: 21px&quot;&gt;vn-segment&lt;/span&gt;&lt;/font&gt;&lt;/div&gt;" style="strokeColor=none;fillColor=none;overflow=visible;whiteSpace=wrap;html=1;fontSize=11;whiteSpace=wrap;fontSize=11;spacing=0;strokeOpacity=0;fillOpacity=0;whiteSpace=wrap;fontSize=11;" parent="-IOmw9dpuARAz1iLvbC0-141" vertex="1">
          <mxGeometry x="0.021" y="0.111" width="247.422" height="37.344" relative="1" as="geometry" />
        </mxCell>
        <mxCell id="-IOmw9dpuARAz1iLvbC0-144" value="" style="group;html=1;" parent="1" vertex="1">
          <mxGeometry x="682" y="700" width="48" height="47" as="geometry" />
        </mxCell>
        <mxCell id="-IOmw9dpuARAz1iLvbC0-145" value="" style="shape=stencil(nZXRksIgDEW/hlcmEBT67Op/OFq3zHZbp9bd+ve2C7UuVMb0LQ0H5ja5EIabS7E/50zCpW3qr/zXHtuC4QeT0lZF3ti2jxhuGW5OdZN/NvW1Orrv834gh+i7/hlO6Ny+TPD1sEnCzSW04dlfYufw0lYpXElunvHDtXHHi2iDzyjBtct00jPgz4CbzyjwIqBDlzHZg8GAmRW6ioTScCm4eI2vYTkMr0nM+Goxmxah9FjRZXi6fFNz5unQFWa0wMMUU8O9BSYBMvINhgjOm/G/yPCX0k6HxayARNskBG2j0WkdgnaZI1wpX+I3PUHDNXAk+JmI9w+NevsOkuC0kOjlIOLpIhpazSM8bQAd1ZyGJ707Li6CiVMoxPtgGngnW5ZuXj6vhwOyT7nhits7);whiteSpace=wrap;overflow=block;html=1;fontSize=11;strokeOpacity=0;fillOpacity=100;fillColor=#ffffff;whiteSpace=wrap;fontSize=11;spacing=0;" parent="-IOmw9dpuARAz1iLvbC0-144" vertex="1">
          <mxGeometry width="48" height="47" relative="1" as="geometry" />
        </mxCell>
        <mxCell id="-IOmw9dpuARAz1iLvbC0-146" value="" style="group;html=1;" parent="1" vertex="1">
          <mxGeometry x="742" y="704" width="294" height="48" as="geometry" />
        </mxCell>
        <mxCell id="-IOmw9dpuARAz1iLvbC0-147" value="" style="shape=stencil(nZBRDoQgDERP03+WHsHFe5iISyOCQdT19kIaIxq//Jtp3zTpAFaTaUYNUkwx+F6v1EYD+AUpyRkdKCYFqACrzgf9C352LfuxyWRWg1/yhT/nRE5IsZWuZtCSK8CPeI0e/hF+jV7AJM4PO7KWCyr390bSiNtEtQM=);whiteSpace=wrap;overflow=block;html=1;fontSize=11;strokeOpacity=0;fillOpacity=0;fillColor=#000000;whiteSpace=wrap;fontSize=11;spacing=0;" parent="-IOmw9dpuARAz1iLvbC0-146" vertex="1">
          <mxGeometry width="294" height="48" relative="1" as="geometry" />
        </mxCell>
        <mxCell id="-IOmw9dpuARAz1iLvbC0-148" value="&lt;div style=&quot;display: flex; justify-content: flex-start; text-align: left; align-items: baseline; font-size: 0; line-height: 1;&quot;&gt;&lt;span style=&quot;font-size:11px;&quot;&gt;&lt;span style=&quot;font-size:21px;color:#ffffff;font-family: Carlito;&quot;&gt;Intra-Tier Subnet&#xa;&lt;/span&gt;&lt;/span&gt;&lt;/div&gt;&lt;div style=&quot;display: flex; justify-content: flex-start; text-align: left; align-items: baseline; font-size: 0; line-height: 1;&quot;&gt;&lt;span style=&quot;font-size:11px;&quot;&gt;&lt;span style=&quot;font-size:21px;color:#ffffff;font-family: Carlito;&quot;&gt;/23 Per Site, /31,126 Per T1&lt;/span&gt;&lt;/span&gt;&lt;/div&gt;" style="strokeColor=none;fillColor=none;overflow=visible;whiteSpace=wrap;html=1;fontSize=11;whiteSpace=wrap;fontSize=11;spacing=0;strokeOpacity=0;fillOpacity=0;whiteSpace=wrap;fontSize=11;" parent="-IOmw9dpuARAz1iLvbC0-146" vertex="1">
          <mxGeometry x="0.018" y="0.111" width="283.416" height="37.344" relative="1" as="geometry" />
        </mxCell>
        <mxCell id="-IOmw9dpuARAz1iLvbC0-149" value="" style="group;html=1;" parent="1" vertex="1">
          <mxGeometry x="699" y="447" width="49" height="49" as="geometry" />
        </mxCell>
        <mxCell id="-IOmw9dpuARAz1iLvbC0-150" value="" style="shape=stencil(lZTdkoIwDIWfprdM2gCzXrvueziKS0cEp+IPb7+wLQ0NCHhXwil8OT2NwO0t318zoeBWm+qcPfWxzgV+C6V0mWdG1+1K4E7g9lSZ7NdU9/Jon6/7TtmtLtWj+8LL7tvIaNNtUtDYAkbp//OPVR/uxsql08dR7PQy3AAv5SSpl7hK4iU4krjKVySHvy10OYQkOaN+R5lySuL2mDHHpF2ek9zh5JOgfReek6k5pzemGYH3mN7eZsTdU5KEY09CknzSes6InDHhB55wROTnTb7gZMrYcS9kMkww9xw+agbCVmChEQjbmE0tBFhLkQXxaRAkgJh3uVesc5mpl+8UAXCi9zeKJKuySvJVWSX5+uHETBxf+RkPZ7PXLmjqnnRR2KE9fM+ndFuyEx53fw==);whiteSpace=wrap;overflow=block;html=1;fontSize=11;strokeOpacity=0;fillOpacity=100;fillColor=#ffffff;whiteSpace=wrap;fontSize=11;spacing=0;" parent="-IOmw9dpuARAz1iLvbC0-149" vertex="1">
          <mxGeometry width="49" height="49" relative="1" as="geometry" />
        </mxCell>
        <mxCell id="-IOmw9dpuARAz1iLvbC0-151" value="" style="shape=stencil(lZLRDoMgDEW/hleiLS767Nx/mImTzKlB3fTvJwHUoG7xrZRze0spwbgt0oYT8NpO1k/+EVlXELwSAFEVXIpuiggmBOO8lvwh677K9LlJFamiV/1WFQat8wMaKRF4o04wm7hpvBTVCg+Qsp/4vZe6vG8EbBb4jsIbwDABBcPAzPiGwQ1jMowZ5sh5UVhnnKvCpjvrDBQd5+XJ6DC7I9pO9ByOEQ2O8dA+Ydyfwr9eQno5gzu/OwXLIuWiLPUeru/dxZtSemkx+QI=);whiteSpace=wrap;overflow=block;html=1;fontSize=11;strokeOpacity=0;fillOpacity=100;fillColor=#ffffff;whiteSpace=wrap;fontSize=11;spacing=0;" parent="-IOmw9dpuARAz1iLvbC0-149" vertex="1">
          <mxGeometry width="49" height="49" relative="1" as="geometry" />
        </mxCell>
        <mxCell id="-IOmw9dpuARAz1iLvbC0-152" value="" style="shape=stencil(pZLREoIgEEW/hldGWNF8NvsPJzGZTB3Usr9PgsTAmmZ6Wy7n7i7LIkj7Ku84okE/yPbMb6IYKgR7RKloKi7FMEcIMgRp2Up+ku3YFPrc5YpU0aW9qgyT9jHAoTLR4K6FmOLoKRw0XotmhROGk3/wKDHCJr7D5D15aJr7sZcvqX04wvAZ98fi4MdR6jESYwgXA3EcwUQNwzA1jFFihplhwGNgewheZet4VV6aXyrb7qjzb7ayfTJs/+0c2DUqRV3rLVzfu2s3S3plIXsA);whiteSpace=wrap;overflow=block;html=1;fontSize=11;strokeOpacity=0;fillOpacity=100;fillColor=#ffffff;whiteSpace=wrap;fontSize=11;spacing=0;" parent="-IOmw9dpuARAz1iLvbC0-149" vertex="1">
          <mxGeometry width="49" height="49" relative="1" as="geometry" />
        </mxCell>
        <mxCell id="-IOmw9dpuARAz1iLvbC0-153" value="" style="shape=stencil(lZLZDoMgEEW/hlfC6vJs2/8wFSupFYPa6t9XAi5BbePbMJw7dxgG0KQp0loAgppWq6f4yKwtAL0AQmRVCC3bMQL0CmiSKy0eWnVVZs91akgTvdTbVOitLmIQGxFBg03wKXGzeCmrFc4CGPzE75225bET8FmAPQXqiWMYjBxDZiZ2DN0wLsO5Y46cF8XkHMxVyaa7yTmEoee8PJl6zO6IthM9hwcI8mM8xtMbhv0x/GsGQ3YG9753DJZNymVZ2kVc3/ubN6bs1tLrFw==);whiteSpace=wrap;overflow=block;html=1;fontSize=11;strokeOpacity=0;fillOpacity=100;fillColor=#ffffff;whiteSpace=wrap;fontSize=11;spacing=0;" parent="-IOmw9dpuARAz1iLvbC0-149" vertex="1">
          <mxGeometry width="49" height="49" relative="1" as="geometry" />
        </mxCell>
        <mxCell id="-IOmw9dpuARAz1iLvbC0-154" value="" style="shape=stencil(lZLdEoIgEIWfhltGWPy7NnsPJzWZTB3UsrdPAsXQdLpbD9/Zs+4sgqgtkiZD1Gk7Ud+yJ0+7AsEJUcqrIhO8GysEMYIor0V2FXVfpeq7SSQpq3v9kB0G5QsYJtJEnZcSKGD/I5wVXvJqgTMPe7v4pReqPdEGdzYQy+EMVDMMB5rRCmXY1QysGK3QqfOvZOOYkufh52Qz3ZTsY2Ylm18Gi9lc0Xqj/+HgaGETDwkOv7tbazgaZqf34S2MhbmjnJelOsPlu313o6RuFuI3);whiteSpace=wrap;overflow=block;html=1;fontSize=11;strokeOpacity=0;fillOpacity=100;fillColor=#ffffff;whiteSpace=wrap;fontSize=11;spacing=0;" parent="-IOmw9dpuARAz1iLvbC0-149" vertex="1">
          <mxGeometry width="49" height="49" relative="1" as="geometry" />
        </mxCell>
        <mxCell id="-IOmw9dpuARAz1iLvbC0-155" value="" style="group;html=1;" parent="1" vertex="1">
          <mxGeometry x="773" y="447" width="294" height="48" as="geometry" />
        </mxCell>
        <mxCell id="-IOmw9dpuARAz1iLvbC0-156" value="" style="shape=stencil(nZBRDoQgDERP03+WHsHFe5iISyOCQdT19kIaIxq//Jtp3zTpAFaTaUYNUkwx+F6v1EYD+AUpyRkdKCYFqACrzgf9C352LfuxyWRWg1/yhT/nRE5IsZWuZtCSK8CPeI0e/hF+jV7AJM4PO7KWCyr390bSiNtEtQM=);whiteSpace=wrap;overflow=block;html=1;fontSize=11;strokeOpacity=0;fillOpacity=0;fillColor=#000000;whiteSpace=wrap;fontSize=11;spacing=0;" parent="-IOmw9dpuARAz1iLvbC0-155" vertex="1">
          <mxGeometry width="294" height="48" relative="1" as="geometry" />
        </mxCell>
        <mxCell id="-IOmw9dpuARAz1iLvbC0-158" value="" style="group;html=1;" parent="1" vertex="1">
          <mxGeometry x="700" y="539" width="49" height="49" as="geometry" />
        </mxCell>
        <mxCell id="-IOmw9dpuARAz1iLvbC0-159" value="" style="shape=stencil(lZTdkoIwDIWfprdM2gCzXrvueziKS0cEp+IPb7+wLQ0NCHhXwil8OT2NwO0t318zoeBWm+qcPfWxzgV+C6V0mWdG1+1K4E7g9lSZ7NdU9/Jon6/7TtmtLtWj+8LL7tvIaNNtUtDYAkbp//OPVR/uxsql08dR7PQy3AAv5SSpl7hK4iU4krjKVySHvy10OYQkOaN+R5lySuL2mDHHpF2ek9zh5JOgfReek6k5pzemGYH3mN7eZsTdU5KEY09CknzSes6InDHhB55wROTnTb7gZMrYcS9kMkww9xw+agbCVmChEQjbmE0tBFhLkQXxaRAkgJh3uVesc5mpl+8UAXCi9zeKJKuySvJVWSX5+uHETBxf+RkPZ7PXLmjqnnRR2KE9fM+ndFuyEx53fw==);whiteSpace=wrap;overflow=block;html=1;fontSize=11;strokeOpacity=0;fillOpacity=100;fillColor=#ffffff;whiteSpace=wrap;fontSize=11;spacing=0;" parent="-IOmw9dpuARAz1iLvbC0-158" vertex="1">
          <mxGeometry width="49" height="49" relative="1" as="geometry" />
        </mxCell>
        <mxCell id="-IOmw9dpuARAz1iLvbC0-160" value="" style="shape=stencil(lZLRDoMgDEW/hleiLS767Nx/mImTzKlB3fTvJwHUoG7xrZRze0spwbgt0oYT8NpO1k/+EVlXELwSAFEVXIpuiggmBOO8lvwh677K9LlJFamiV/1WFQat8wMaKRF4o04wm7hpvBTVCg+Qsp/4vZe6vG8EbBb4jsIbwDABBcPAzPiGwQ1jMowZ5sh5UVhnnKvCpjvrDBQd5+XJ6DC7I9pO9ByOEQ2O8dA+Ydyfwr9eQno5gzu/OwXLIuWiLPUeru/dxZtSemkx+QI=);whiteSpace=wrap;overflow=block;html=1;fontSize=11;strokeOpacity=0;fillOpacity=100;fillColor=#ffffff;whiteSpace=wrap;fontSize=11;spacing=0;" parent="-IOmw9dpuARAz1iLvbC0-158" vertex="1">
          <mxGeometry width="49" height="49" relative="1" as="geometry" />
        </mxCell>
        <mxCell id="-IOmw9dpuARAz1iLvbC0-161" value="" style="shape=stencil(pZLREoIgEEW/hldGWNF8NvsPJzGZTB3Usr9PgsTAmmZ6Wy7n7i7LIkj7Ku84okE/yPbMb6IYKgR7RKloKi7FMEcIMgRp2Up+ku3YFPrc5YpU0aW9qgyT9jHAoTLR4K6FmOLoKRw0XotmhROGk3/wKDHCJr7D5D15aJr7sZcvqX04wvAZ98fi4MdR6jESYwgXA3EcwUQNwzA1jFFihplhwGNgewheZet4VV6aXyrb7qjzb7ayfTJs/+0c2DUqRV3rLVzfu2s3S3plIXsA);whiteSpace=wrap;overflow=block;html=1;fontSize=11;strokeOpacity=0;fillOpacity=100;fillColor=#ffffff;whiteSpace=wrap;fontSize=11;spacing=0;" parent="-IOmw9dpuARAz1iLvbC0-158" vertex="1">
          <mxGeometry width="49" height="49" relative="1" as="geometry" />
        </mxCell>
        <mxCell id="-IOmw9dpuARAz1iLvbC0-162" value="" style="shape=stencil(lZLZDoMgEEW/hlfC6vJs2/8wFSupFYPa6t9XAi5BbePbMJw7dxgG0KQp0loAgppWq6f4yKwtAL0AQmRVCC3bMQL0CmiSKy0eWnVVZs91akgTvdTbVOitLmIQGxFBg03wKXGzeCmrFc4CGPzE75225bET8FmAPQXqiWMYjBxDZiZ2DN0wLsO5Y46cF8XkHMxVyaa7yTmEoee8PJl6zO6IthM9hwcI8mM8xtMbhv0x/GsGQ3YG9753DJZNymVZ2kVc3/ubN6bs1tLrFw==);whiteSpace=wrap;overflow=block;html=1;fontSize=11;strokeOpacity=0;fillOpacity=100;fillColor=#ffffff;whiteSpace=wrap;fontSize=11;spacing=0;" parent="-IOmw9dpuARAz1iLvbC0-158" vertex="1">
          <mxGeometry width="49" height="49" relative="1" as="geometry" />
        </mxCell>
        <mxCell id="-IOmw9dpuARAz1iLvbC0-163" value="" style="shape=stencil(lZLdEoIgEIWfhltGWPy7NnsPJzWZTB3UsrdPAsXQdLpbD9/Zs+4sgqgtkiZD1Gk7Ud+yJ0+7AsEJUcqrIhO8GysEMYIor0V2FXVfpeq7SSQpq3v9kB0G5QsYJtJEnZcSKGD/I5wVXvJqgTMPe7v4pReqPdEGdzYQy+EMVDMMB5rRCmXY1QysGK3QqfOvZOOYkufh52Qz3ZTsY2Ylm18Gi9lc0Xqj/+HgaGETDwkOv7tbazgaZqf34S2MhbmjnJelOsPlu313o6RuFuI3);whiteSpace=wrap;overflow=block;html=1;fontSize=11;strokeOpacity=0;fillOpacity=100;fillColor=#ffffff;whiteSpace=wrap;fontSize=11;spacing=0;" parent="-IOmw9dpuARAz1iLvbC0-158" vertex="1">
          <mxGeometry width="49" height="49" relative="1" as="geometry" />
        </mxCell>
      </root>
    </mxGraphModel>
  </diagram>
</mxfile>
